SplineFontDB: 3.0
FontName: KacstOne-Bold
FullName: KacstOne Bold
FamilyName: KacstOne
Weight: Bold
Copyright: KACST holds the copyright of the included Arabic font which is donated under GPL by KACST.\nCopyleft 2002, 2003, 2005, 2008, 2009 Free Software Foundation.\nCopyright 2009-2011 Khaled Hosny <khaledhosny@eglug.org>.
Version: 5.00
ItalicAngle: 0
UnderlinePosition: -400
UnderlineWidth: 100
Ascent: 1638
Descent: 410
LayerCount: 2
Layer: 0 1 "Back"  1
Layer: 1 1 "Fore"  0
XUID: [1021 678 237379909 10861362]
FSType: 0
OS2Version: 2
OS2_WeightWidthSlopeOnly: 1
OS2_UseTypoMetrics: 1
CreationTime: 1163511077
ModificationTime: 1311298342
PfmFamily: 33
TTFWeight: 700
TTFWidth: 5
LineGap: 59
VLineGap: 0
OS2TypoAscent: 2000
OS2TypoAOffset: 0
OS2TypoDescent: -700
OS2TypoDOffset: 0
OS2TypoLinegap: 59
OS2WinAscent: 10
OS2WinAOffset: 1
OS2WinDescent: 10
OS2WinDOffset: 1
HheadAscent: 2000
HheadAOffset: 0
HheadDescent: -700
HheadDOffset: 0
OS2Vendor: 'kcst'
Lookup: 1 0 0 "'init' Initial Forms"  {"'init' Initial Forms subtable"  } ['init' ('arab' <'dflt' > ) ]
Lookup: 1 0 0 "'medi' Medial Forms"  {"'medi' Medial Forms subtable"  } ['medi' ('arab' <'dflt' > ) ]
Lookup: 1 0 0 "'fina' Terminal Forms"  {"'fina' Terminal Forms subtable"  } ['fina' ('arab' <'dflt' > ) ]
Lookup: 4 8 1 "'rlig' Lam Alef Ligatures"  {"'rlig' Lam Alef Ligatures subtable"  } ['rlig' ('DFLT' <'dflt' > 'arab' <'dflt' > ) ]
Lookup: 4 8 1 "'liga' Regular Ligatures"  {"'liga' Regular Ligatures subtable"  } ['liga' ('arab' <'dflt' > ) ]
Lookup: 4 0 1 "'liga' Regular Ligatures (no ignore mark)"  {"'liga' Regular Ligatures (no ignore mark) subtable"  } ['liga' ('arab' <'dflt' > ) ]
Lookup: 4 0 1 "'liga' Mark Ligatures"  {"'liga' Mark Ligatures subtable"  } ['liga' ('arab' <'dflt' > ) ]
Lookup: 1 0 0 "'locl' Arabic Localized Forms"  {"'locl' Arabic Localized Forms subtable"  } ['locl' ('arab' <'dflt' > ) ]
Lookup: 1 0 0 "'rtlm' Mirrored forms"  {"'rtlm' Mirrored forms subtable"  } ['rtlm' ('arab' <'dflt' > ) ]

StartChar: uni060C
Encoding: 1548 1548 1
Width: 586
Flags: MW
LayerCount: 2
Fore
SplineSet
291 290 m 0,0,1
 297 290 297 290 303 291 c 0,2,3
 317 294 317 294 341 294 c 0,4,5
 426 294 426 294 467 226 c 0,6,7
 490 186 490 186 490 135 c 0,8,9
 490 36 490 36 416 -10 c 0,10,11
 374 -35 374 -35 320 -35 c 0,12,13
 211 -35 211 -35 154 53 c 0,14,15
 114 115 114 115 113 202 c 0,16,17
 113 382 113 382 269 522 c 0,18,19
 342 587 342 587 453 651 c 1,20,-1
 476 606 l 1,21,22
 254 452 254 452 253 335 c 0,23,24
 253 297 253 297 282 291 c 0,25,26
 287 290 287 290 291 290 c 0,0,1
EndSplineSet
EndChar

StartChar: uni061B
Encoding: 1563 1563 2
Width: 681
Flags: MW
LayerCount: 2
Fore
SplineSet
387 870 m 2,0,1
 431 870 431 870 473 839 c 0,2,3
 531 795 531 795 532 711 c 0,4,5
 532 612 532 612 458 566 c 0,6,7
 416 541 416 541 362 541 c 0,8,9
 253 541 253 541 196 629 c 0,10,11
 156 691 156 691 155 778 c 0,12,13
 155 958 155 958 311 1098 c 0,14,15
 384 1163 384 1163 495 1227 c 1,16,-1
 518 1182 l 1,17,18
 295 1027 295 1027 294 909 c 0,19,20
 294 880 294 880 318 869 c 0,21,22
 324 866 324 866 331 866 c 2,23,-1
 346 866 l 1,24,-1
 370 870 l 1,25,-1
 387 870 l 2,0,1
360 -109 m 0,26,27
 277 -109 277 -109 225 -44 c 0,28,29
 187 4 187 4 186 65 c 0,30,31
 186 146 186 146 251 198 c 0,32,33
 300 236 300 236 360 237 c 0,34,35
 447 237 447 237 497 169 c 0,36,37
 531 122 531 122 532 61 c 0,38,39
 532 -18 532 -18 469 -70 c 0,40,41
 420 -109 420 -109 360 -109 c 0,26,27
EndSplineSet
EndChar

StartChar: uni061F
Encoding: 1567 1567 3
Width: 1024
Flags: MW
LayerCount: 2
Fore
SplineSet
701 131 m 2,0,1
 701 115 701 115 629.5 43.5 c 128,-1,2
 558 -28 558 -28 548 -28 c 2,3,-1
 522 -28 l 2,4,5
 509 -28 509 -28 437 42 c 256,6,7
 365 112 365 112 365 126 c 2,8,-1
 365 152 l 2,9,10
 365 165 365 165 438.5 239 c 128,-1,11
 512 313 512 313 525 313 c 2,12,-1
 551 313 l 2,13,14
 564 313 564 313 633 241 c 256,15,16
 701 169 701 169 701 157 c 2,17,-1
 701 131 l 2,0,1
715 1255 m 0,18,19
 715 1274 715 1274 704 1291 c 0,20,21
 674 1337 674 1337 590 1337 c 0,22,23
 547 1337 547 1337 512 1316 c 0,24,25
 418 1258 418 1258 418 1071 c 0,26,27
 418 960 418 960 459 860 c 0,28,29
 468 838 468 838 521 737 c 0,30,31
 571 642 571 642 571 567 c 0,32,33
 571 535 571 535 567 473 c 1,34,-1
 506 473 l 1,35,36
 506 490 506 490 506 504 c 0,37,38
 504 597 504 597 475 639 c 0,39,40
 449 676 449 676 360 731 c 0,41,42
 240 806 240 806 184 870 c 0,43,44
 113 952 113 952 113 1071 c 0,45,46
 114 1208 114 1208 205 1299 c 0,47,48
 318 1411 318 1411 522 1411 c 0,49,50
 687 1411 687 1411 795 1331 c 0,51,52
 907 1248 907 1248 907 1116 c 0,53,54
 907 1065 907 1065 883 1025 c 0,55,56
 843 961 843 961 768 961 c 0,57,58
 731 961 731 961 701 977 c 0,59,60
 639 1011 639 1011 639 1092 c 0,61,62
 639 1111 639 1111 643 1128 c 0,63,64
 651 1159 651 1159 686 1197 c 0,65,66
 715 1229 715 1229 715 1255 c 0,18,19
EndSplineSet
EndChar

StartChar: uni0621
Encoding: 1569 1569 4
Width: 880
VWidth: 2940
Flags: MW
AnchorPoint: "Below" 468 -69 basechar 0
AnchorPoint: "Above" 470 907 basechar 0
LayerCount: 2
Fore
SplineSet
286 109 m 1,0,1
 140 258 140 258 124 336 c 1,2,3
 176 496 176 496 259 573 c 0,4,5
 398 702 398 702 554 673 c 0,6,7
 594 665 594 665 639 647 c 1,8,-1
 639 417 l 1,9,-1
 564 446 l 2,10,11
 403 508 403 508 302 459 c 1,12,13
 376 312 376 312 561 248 c 1,14,15
 679 298 679 298 792 318 c 1,16,17
 773 241 773 241 740 163 c 2,18,-1
 721 118 l 1,19,-1
 674 107 l 2,20,21
 433 54 433 54 209 -100 c 0,22,23
 153 -138 153 -138 135 -138 c 2,24,-1
 134 -138 l 1,25,26
 107 -135 107 -135 98 -131 c 1,27,-1
 93 -114 l 1,28,29
 141 -21 141 -21 285 94 c 1,30,-1
 286 109 l 1,0,1
EndSplineSet
EndChar

StartChar: uni0640
Encoding: 1600 1600 30
Width: 356
Flags: MW
LayerCount: 2
Fore
SplineSet
-139 273 m 1,0,-1
 395 273 l 1,1,-1
 395 -34 l 1,2,-1
 -139 -34 l 1,3,-1
 -139 273 l 1,0,-1
EndSplineSet
EndChar

StartChar: uni064B
Encoding: 1611 1611 41
Width: 0
VWidth: 2091
GlyphClass: 4
Flags: MW
AnchorPoint: "MkMkAbove" 297 1667 mark 0
AnchorPoint: "AboveLig" 260 1656 mark 0
AnchorPoint: "Above" 260 1656 mark 0
LayerCount: 2
Fore
SplineSet
485 2166 m 1,0,1
 495 2081 495 2081 478 2042 c 128,-1,2
 461 2003 461 2003 414 1968 c 2,3,-1
 -45 1626 l 1,4,5
 -49 1703 -49 1703 -33 1746.5 c 128,-1,6
 -17 1790 -17 1790 69 1854 c 1,7,-1
 485 2166 l 1,0,1
485 2506 m 1,8,9
 496 2421 496 2421 478 2382 c 0,10,11
 459 2341 459 2341 414 2308 c 2,12,-1
 -45 1966 l 1,13,14
 -50 2044 -50 2044 -33 2087 c 0,15,16
 -17 2130 -17 2130 69 2194 c 1,17,-1
 485 2506 l 1,8,9
EndSplineSet
EndChar

StartChar: uni064C
Encoding: 1612 1612 42
Width: 0
VWidth: 2251
GlyphClass: 4
Flags: MW
AnchorPoint: "MkMkAbove" 290 1287 mark 0
AnchorPoint: "AboveLig" 290 1290 mark 0
AnchorPoint: "Above" 290 1290 mark 0
LayerCount: 2
Fore
SplineSet
446 1952 m 1,0,1
 407 2007 407 2007 362 2006 c 0,2,3
 272 2004 272 2004 272 1924 c 0,4,5
 272 1860 272 1860 405 1770 c 1,6,7
 487 1900 487 1900 446 1952 c 1,0,1
503 1763 m 1,8,9
 524 1747 524 1747 559 1720 c 1,10,-1
 538 1462 l 1,11,-1
 358 1580 l 1,12,13
 167 1391 167 1391 -78 1347 c 1,14,15
 -19 1490 -19 1490 -18 1653 c 2,16,-1
 -18 1655 l 1,17,18
 -19 1725 -19 1725 -77 1730 c 1,19,20
 -84 1708 -84 1708 -87 1677 c 1,21,-1
 -165 1619 l 1,22,23
 -180 1663 -180 1663 -180 1696 c 2,24,-1
 -180 1700 l 2,25,26
 -180 1778 -180 1778 -161.5 1816 c 128,-1,27
 -143 1854 -143 1854 -98.5 1890.5 c 128,-1,28
 -54 1927 -54 1927 -3 1928 c 0,29,30
 170 1931 170 1931 117 1540 c 1,31,32
 214 1583 214 1583 262 1634 c 1,33,34
 38 1769 38 1769 249 2040 c 0,35,36
 351 2170 351 2170 459 2152 c 1,37,38
 590 2128 590 2128 596 1982 c 1,39,40
 599 1911 599 1911 503 1763 c 1,8,9
EndSplineSet
EndChar

StartChar: uni064D
Encoding: 1613 1613 43
Width: 0
VWidth: 3483
GlyphClass: 4
Flags: MW
AnchorPoint: "BelowLig" 160 -425 mark 0
AnchorPoint: "Below" 160 -425 mark 0
LayerCount: 2
Fore
SplineSet
485 -797 m 1,0,1
 495 -882 495 -882 478 -921 c 128,-1,2
 461 -960 461 -960 414 -995 c 2,3,-1
 -45 -1337 l 1,4,5
 -49 -1260 -49 -1260 -33 -1216.5 c 128,-1,6
 -17 -1173 -17 -1173 69 -1109 c 1,7,-1
 485 -797 l 1,0,1
485 -457 m 1,8,9
 495 -542 495 -542 478 -581 c 128,-1,10
 461 -620 461 -620 414 -655 c 2,11,-1
 -45 -997 l 1,12,13
 -49 -920 -49 -920 -33 -876.5 c 128,-1,14
 -17 -833 -17 -833 69 -769 c 1,15,-1
 485 -457 l 1,8,9
EndSplineSet
EndChar

StartChar: uni064E
Encoding: 1614 1614 44
Width: 0
VWidth: 2170
GlyphClass: 4
Flags: MW
AnchorPoint: "MkMkAbove" 305 1715 mark 0
AnchorPoint: "AboveLig" 305 1715 mark 0
AnchorPoint: "Above" 305 1715 mark 0
LayerCount: 2
Fore
SplineSet
487 2180 m 1,0,1
 497 2095 497 2095 480 2056 c 128,-1,2
 463 2017 463 2017 416 1982 c 2,3,-1
 -43 1640 l 1,4,5
 -47 1718 -47 1718 -32 1761.5 c 128,-1,6
 -17 1805 -17 1805 73 1869 c 1,7,-1
 487 2180 l 1,0,1
EndSplineSet
EndChar

StartChar: uni064F
Encoding: 1615 1615 45
Width: 0
VWidth: 2121
GlyphClass: 4
Flags: MW
AnchorPoint: "MkMkAbove" 355 1490 mark 0
AnchorPoint: "AboveLig" 355 1490 mark 0
AnchorPoint: "Above" 355 1490 mark 0
LayerCount: 2
Fore
SplineSet
446 2108 m 128,-1,1
 406 2164 406 2164 362 2162 c 1,2,3
 272 2160 272 2160 272 2080 c 0,4,5
 272 2016 272 2016 405 1926 c 1,6,0
 486 2052 486 2052 446 2108 c 128,-1,1
503 1919 m 1,7,8
 524 1903 524 1903 559 1876 c 1,9,-1
 538 1619 l 1,10,-1
 369 1728 l 1,11,12
 184 1524 184 1524 63 1524 c 0,13,14
 31 1524 31 1524 -33 1542 c 2,15,-1
 -73 1553 l 1,16,-1
 15 1603 l 2,17,18
 138 1672 138 1672 270 1785 c 1,19,20
 147 1854 147 1854 147 1959.5 c 128,-1,21
 147 2065 147 2065 239 2184 c 1,22,23
 354 2326 354 2326 459 2308 c 1,24,25
 591 2282 591 2282 596 2138 c 0,26,27
 599 2067 599 2067 503 1919 c 1,7,8
EndSplineSet
EndChar

StartChar: uni0650
Encoding: 1616 1616 46
Width: 0
VWidth: 3446
GlyphClass: 4
Flags: MW
AnchorPoint: "BelowLig" 216 -557 mark 0
AnchorPoint: "Below" 216 -557 mark 0
LayerCount: 2
Fore
SplineSet
487 -600 m 1,0,1
 497 -685 497 -685 480 -724 c 128,-1,2
 463 -763 463 -763 416 -798 c 2,3,-1
 -43 -1141 l 1,4,5
 -47 -1063 -47 -1063 -32 -1019.5 c 128,-1,6
 -17 -976 -17 -976 73 -912 c 1,7,-1
 487 -600 l 1,0,1
EndSplineSet
EndChar

StartChar: uni0651
Encoding: 1617 1617 47
Width: 0
VWidth: 2264
GlyphClass: 4
Flags: MW
AnchorPoint: "MkMkAbove" 8 1877 basemark 0
AnchorPoint: "AboveLig" -32 1330 mark 0
AnchorPoint: "Above" -32 1330 mark 0
LayerCount: 2
Fore
SplineSet
267 1921 m 1,0,1
 317 1642 317 1642 259 1538.5 c 128,-1,2
 201 1435 201 1435 109.5 1429.5 c 128,-1,3
 18 1424 18 1424 -49 1461 c 1,4,5
 -104 1296 -104 1296 -261 1304 c 0,6,7
 -438 1311 -438 1311 -395 1631 c 2,8,-1
 -389 1679 l 1,9,-1
 -285 1705 l 1,10,-1
 -285 1697 l 1,11,12
 -290 1498 -290 1498 -172 1538 c 1,13,14
 -116 1567 -116 1567 -127 1761 c 2,15,-1
 -130 1805 l 1,16,-1
 -20 1839 l 1,17,18
 30 1657 30 1657 127 1682 c 0,19,20
 173 1694 173 1694 157 1831 c 2,21,-1
 153 1863 l 1,22,-1
 267 1921 l 1,0,1
EndSplineSet
EndChar

StartChar: uni0652
Encoding: 1618 1618 48
Width: 0
VWidth: 2269
GlyphClass: 4
Flags: MW
AnchorPoint: "MkMkAbove" 321 1392 mark 0
AnchorPoint: "AboveLig" 208 1364 mark 0
AnchorPoint: "Above" 208 1364 mark 0
LayerCount: 2
Fore
SplineSet
343 1725 m 0,0,1
 343 1764 343 1764 278 1811 c 0,2,3
 220 1854 220 1854 174 1854 c 0,4,5
 87 1854 87 1854 87 1752 c 0,6,7
 87 1664 87 1664 222 1664 c 0,8,9
 343 1664 343 1664 343 1725 c 0,0,1
434 1789 m 0,10,11
 433 1669 433 1669 379 1592 c 0,12,13
 298 1476 298 1476 166 1481 c 0,14,15
 -1 1485 -1 1485 -1 1669 c 1,16,17
 -1 1790 -1 1790 63 1890 c 0,18,19
 144 2016 144 2016 236 2020 c 0,20,21
 295 2023 295 2023 360 1974 c 0,22,23
 435 1919 435 1919 434 1789 c 0,10,11
EndSplineSet
EndChar

StartChar: uni0660
Encoding: 1632 1632 49
Width: 1000
VWidth: 2380
Flags: MW
LayerCount: 2
Fore
SplineSet
659 510 m 1,0,-1
 574 217 l 1,1,-1
 341 361 l 1,2,-1
 425 654 l 1,3,-1
 659 510 l 1,0,-1
EndSplineSet
EndChar

StartChar: uni0661
Encoding: 1633 1633 50
Width: 1000
VWidth: 2405
Flags: MW
LayerCount: 2
Fore
SplineSet
725 257 m 0,0,1
 723 -90 723 -90 624 -147 c 1,2,3
 585 -162 585 -162 570 -87 c 0,4,5
 496 496 496 496 275 820 c 1,6,7
 341 1012 341 1012 364 1087 c 2,8,-1
 388 1162 l 1,9,-1
 439 1145 l 1,10,11
 460 1136 460 1136 503 1072 c 0,12,13
 727 739 727 739 725 257 c 0,0,1
EndSplineSet
EndChar

StartChar: uni0662
Encoding: 1634 1634 51
Width: 1000
VWidth: 2404
Flags: MW
LayerCount: 2
Fore
SplineSet
821 1119 m 2,0,-1
 771 933 l 2,1,2
 768 921 768 921 732.5 886 c 128,-1,3
 697 851 697 851 678 870 c 1,4,5
 510 926 510 926 365 855 c 1,6,7
 355 824 355 824 399 708 c 0,8,9
 407 687 407 687 491 521 c 0,10,11
 652 199 652 199 580 -42 c 1,12,13
 560 -105 560 -105 527 -150 c 0,14,15
 485 -207 485 -207 456 -99 c 1,16,17
 394 154 394 154 267 374 c 0,18,19
 121 629 121 629 212 873 c 1,20,21
 268 1007 268 1007 366.5 1081.5 c 128,-1,22
 465 1156 465 1156 591.5 1171.5 c 128,-1,23
 718 1187 718 1187 814 1147 c 1,24,25
 827 1140 827 1140 821 1119 c 2,0,-1
EndSplineSet
EndChar

StartChar: uni0663
Encoding: 1635 1635 52
Width: 1000
VWidth: 2402
Flags: MW
LayerCount: 2
Fore
SplineSet
776 1026 m 0,0,1
 833 1026 833 1026 870 1144 c 0,2,3
 879 1177 879 1177 927 1171 c 1,4,5
 954 1164 954 1164 948 1109 c 0,6,7
 924 828 924 828 799 731 c 0,8,9
 741 686 741 686 679 686.5 c 128,-1,10
 617 687 617 687 538 745 c 1,11,12
 485 695 485 695 428 664 c 1,13,14
 572 -52 572 -52 407 -162 c 0,15,16
 343 -205 343 -205 335 -86 c 1,17,18
 268 483 268 483 50 910 c 1,19,20
 103 1039 103 1039 160 1114 c 2,21,-1
 211 1180 l 1,22,-1
 298 1066 l 1,23,24
 392 948 392 948 444 953 c 0,25,26
 467 955 467 955 479 962 c 1,27,28
 539 1005 539 1005 563 1133 c 1,29,30
 602 1201 602 1201 608 1206 c 0,31,32
 671 1261 671 1261 685 1175 c 1,33,34
 713 1026 713 1026 776 1026 c 0,0,1
EndSplineSet
EndChar

StartChar: uni0664
Encoding: 1636 1636 53
Width: 1000
VWidth: 2403
Flags: MW
LayerCount: 2
Fore
SplineSet
694 -117 m 1,0,1
 448 -84 448 -84 334.5 -22 c 128,-1,2
 221 40 221 40 221 101 c 2,3,-1
 221 107 l 1,4,5
 222 204 222 204 425 449 c 1,6,7
 423 493 423 493 309 554 c 1,8,9
 213 607 213 607 213 683 c 1,10,11
 214 777 214 777 323 923 c 0,12,13
 455 1101 455 1101 637 1164 c 1,14,-1
 605 945 l 1,15,-1
 546 927 l 2,16,17
 469 904 469 904 432 883 c 0,18,19
 431 879 l 2,20,-1
 431 878 l 1,21,22
 434 855 434 855 650 742 c 0,23,24
 689 722 689 722 688 695 c 1,25,26
 683 614 683 614 497 421 c 0,27,28
 442 364 442 364 443 331 c 128,-1,29
 444 298 444 298 469 282 c 0,30,31
 586 213 586 213 787 167 c 1,32,-1
 694 -117 l 1,0,1
EndSplineSet
EndChar

StartChar: uni0665
Encoding: 1637 1637 54
Width: 1000
VWidth: 2398
Flags: MW
LayerCount: 2
Fore
SplineSet
665 474 m 0,0,1
 611 639 611 639 405 715 c 1,2,3
 338 609 338 609 337 525 c 0,4,5
 336 394 336 394 535 395 c 0,6,7
 626 395 626 395 677 419 c 1,8,9
 680 433 680 433 665 474 c 0,0,1
862 610 m 0,10,11
 862 540 862 540 836 431.5 c 128,-1,12
 810 323 810 323 788.5 286 c 128,-1,13
 767 249 767 249 734 223 c 0,14,15
 559 87 559 87 411 87.5 c 128,-1,16
 263 88 263 88 187 175 c 0,17,18
 138 231 138 231 138 339 c 0,19,20
 139 523 139 523 265 752 c 1,21,22
 415 1021 415 1021 554 1022 c 1,23,24
 628 1021 628 1021 718 917 c 0,25,26
 862 750 862 750 862 610 c 0,10,11
EndSplineSet
EndChar

StartChar: uni0666
Encoding: 1638 1638 55
Width: 1000
VWidth: 2399
Flags: MW
LayerCount: 2
Fore
SplineSet
752 -97 m 2,0,1
 707 -51 707 -51 642.5 77.5 c 128,-1,2
 578 206 578 206 555.5 395.5 c 128,-1,3
 533 585 533 585 541 675 c 128,-1,4
 549 765 549 765 555 804 c 1,5,6
 316 763 316 763 235 798 c 1,7,8
 127 849 127 849 120 956 c 0,9,10
 117 998 117 998 151 1135 c 2,11,-1
 174 1227 l 1,12,-1
 297 1149 l 2,13,14
 418 1073 418 1073 600 1108 c 0,15,16
 653 1118 653 1118 716 1134 c 1,17,-1
 729 1134 l 1,18,-1
 720 1091 l 1,19,20
 652 722 652 722 759 443 c 0,21,22
 808 314 808 314 881 218 c 1,23,-1
 791 -138 l 1,24,-1
 752 -97 l 2,0,1
EndSplineSet
EndChar

StartChar: uni0667
Encoding: 1639 1639 56
Width: 1000
VWidth: 2400
Flags: MW
LayerCount: 2
Fore
SplineSet
944 1166 m 1,0,-1
 968 941 l 1,1,2
 732 638 732 638 604 133 c 0,3,4
 584 49 584 49 576 30 c 0,5,6
 540 -63 540 -63 504 -57 c 1,7,8
 448 -54 448 -54 434 35 c 1,9,10
 328 544 328 544 32 825 c 1,11,-1
 170 1140 l 1,12,-1
 200 1102 l 2,13,14
 448 770 448 770 548 430 c 1,15,16
 700 923 700 923 944 1166 c 1,0,-1
EndSplineSet
EndChar

StartChar: uni0668
Encoding: 1640 1640 57
Width: 1000
VWidth: 2410
Flags: MW
LayerCount: 2
Fore
SplineSet
56 -127 m 1,0,-1
 32 98 l 1,1,2
 268 401 268 401 396 907 c 0,3,4
 416 991 416 991 424 1009 c 0,5,6
 460 1102 460 1102 496 1096 c 1,7,8
 550 1093 550 1093 566 1004 c 1,9,10
 672 495 672 495 968 214 c 1,11,-1
 830 -101 l 1,12,-1
 802 -63 l 2,13,14
 554 269 554 269 452 609 c 1,15,16
 300 116 300 116 56 -127 c 1,0,-1
EndSplineSet
EndChar

StartChar: uni0669
Encoding: 1641 1641 58
Width: 1000
VWidth: 2406
Flags: MW
LayerCount: 2
Fore
SplineSet
543 704 m 1,0,1
 516 912 516 912 419 911 c 0,2,3
 342 911 342 911 309 779 c 1,4,5
 311 687 311 687 543 704 c 1,0,1
730 -141 m 1,6,7
 563 -6 563 -6 532 414 c 1,8,9
 517 418 517 418 450 418 c 128,-1,10
 383 418 383 418 313 429 c 0,11,12
 114 463 114 463 121 653 c 1,13,14
 126 770 126 770 242 948 c 1,15,16
 389 1169 389 1169 504 1170 c 1,17,18
 589 1168 589 1168 651 1046 c 0,19,20
 699 950 699 950 712 691 c 0,21,22
 732 313 732 313 880 180 c 1,23,24
 847 64 847 64 807 -83 c 2,25,-1
 780 -180 l 1,26,-1
 730 -141 l 1,6,7
EndSplineSet
EndChar

StartChar: uni066A
Encoding: 1642 1642 59
Width: 1000
VWidth: 2081
Flags: MW
LayerCount: 2
Fore
SplineSet
380 870 m 1,0,-1
 164 870 l 1,1,-1
 164 1100 l 1,2,-1
 380 1100 l 1,3,-1
 380 870 l 1,0,-1
836 1107 m 1,4,-1
 324 16 l 1,5,-1
 176 16 l 1,6,-1
 688 1107 l 1,7,-1
 836 1107 l 1,4,-1
820 -8 m 1,8,-1
 604 -8 l 1,9,-1
 604 221 l 1,10,-1
 820 221 l 1,11,-1
 820 -8 l 1,8,-1
EndSplineSet
EndChar

StartChar: uni066D
Encoding: 1645 1645 60
Width: 815
Flags: MW
LayerCount: 2
Fore
SplineSet
765 1190 m 1,0,-1
 547 1029 l 1,1,-1
 629 770 l 1,2,-1
 408 928 l 1,3,-1
 187 770 l 1,4,-1
 269 1029 l 1,5,-1
 51 1190 l 1,6,-1
 322 1190 l 1,7,-1
 408 1450 l 1,8,-1
 494 1190 l 1,9,-1
 765 1190 l 1,0,-1
EndSplineSet
EndChar

StartChar: uniFD3E
Encoding: 64830 64830 69
Width: 1135
Flags: MW
LayerCount: 2
Fore
SplineSet
684 560 m 1,0,1
 751 580 751 580 872 704 c 1,2,-1
 879 704 l 2,3,4
 909 704 909 704 930 646 c 128,-1,5
 951 588 951 588 955 533 c 1,6,7
 1061 476 1061 476 1061.5 426.5 c 128,-1,8
 1062 377 1062 377 961 316 c 1,9,10
 953 177 953 177 911 154 c 0,11,12
 900 148 900 148 889 148 c 2,13,-1
 882 148 l 1,14,-1
 809 218 l 2,15,16
 753 273 753 273 687 287 c 1,17,18
 697 232 697 232 756 174.5 c 128,-1,19
 815 117 815 117 823.5 103.5 c 128,-1,20
 832 90 832 90 832 80 c 0,21,22
 832 49 832 49 768 31 c 0,23,24
 755 27 755 27 728 22 c 1,25,26
 762 -131 762 -131 856 -297.5 c 128,-1,27
 950 -464 950 -464 1066 -565 c 0,28,29
 1090 -588 1090 -588 1092 -612 c 1,30,31
 1085 -640 1085 -640 1051 -644 c 1,32,33
 967 -643 967 -643 810 -488 c 0,34,35
 610 -292 610 -292 496 6 c 1,36,37
 329 10 329 10 294 46 c 0,38,39
 282 59 282 59 282 78 c 2,40,-1
 282 85 l 1,41,42
 400 209 400 209 416 281 c 1,43,44
 368 270 368 270 312 212.5 c 128,-1,45
 256 155 256 155 244 146 c 0,46,47
 232 136 232 136 221 136 c 0,48,49
 177 136 177 136 160 234 c 0,50,51
 155 262 155 262 150 306 c 1,52,53
 53 355 53 355 40 395 c 0,54,55
 38 404 38 404 38 412 c 0,56,57
 38 466 38 466 143 530 c 1,58,59
 153 656 153 656 181 683 c 0,60,61
 193 694 193 694 209 694 c 2,62,-1
 216 694 l 1,63,64
 346 572 346 572 415 553 c 1,65,66
 401 612 401 612 344 667.5 c 128,-1,67
 287 723 287 723 278.5 733.5 c 128,-1,68
 270 744 270 744 270 756 c 0,69,70
 270 785 270 785 340 806.5 c 128,-1,71
 410 828 410 828 489 832 c 1,72,73
 562 1045 562 1045 671 1196.5 c 128,-1,74
 780 1348 780 1348 881 1428 c 128,-1,75
 982 1508 982 1508 1022 1508 c 0,76,77
 1062 1508 1062 1508 1062 1468 c 0,78,79
 1062 1450 1062 1450 1038.5 1424.5 c 128,-1,80
 1015 1399 1015 1399 1004 1387 c 0,81,82
 900 1274 900 1274 828 1140 c 128,-1,83
 756 1006 756 1006 725 819 c 1,84,85
 822 801 822 801 822 760 c 1,86,-1
 822 753 l 1,87,88
 700 631 700 631 684 560 c 1,0,1
479 635 m 1,89,90
 518 698 518 698 548.5 699 c 128,-1,91
 579 700 579 700 619 633 c 1,92,93
 638 656 638 656 673 688 c 128,-1,94
 708 720 708 720 713 745 c 1,95,96
 706 747 706 747 698 749 c 2,97,-1
 634 760 l 1,98,99
 698 1023 698 1023 736 1112 c 128,-1,100
 774 1201 774 1201 841 1297 c 1,101,102
 657 1106 657 1106 541 751 c 1,103,104
 405 744 405 744 389 742 c 1,105,-1
 413 718 l 2,106,107
 452 680 452 680 479 635 c 1,89,90
971 428 m 1,108,109
 958 445 958 445 881 472 c 1,110,111
 874 557 874 557 866 587 c 1,112,113
 852 574 852 574 822 544 c 128,-1,114
 792 514 792 514 754 492 c 1,115,116
 820 450 820 450 826 418 c 1,117,118
 824 381 824 381 762 350 c 1,119,120
 808 327 808 327 846 293 c 2,121,-1
 875 266 l 1,122,123
 880 295 880 295 880 354 c 2,124,-1
 880 364 l 1,125,126
 960 409 960 409 971 428 c 1,108,109
630 342 m 1,127,128
 662 374 662 374 662 419 c 128,-1,129
 662 464 662 464 630 497 c 1,130,131
 596 529 596 529 550 529 c 128,-1,132
 504 529 504 529 472 497 c 1,133,134
 440 463 440 463 440 418 c 128,-1,135
 440 373 440 373 472 341.5 c 128,-1,136
 504 310 504 310 550.5 310.5 c 128,-1,137
 597 311 597 311 630 342 c 1,127,128
347 348 m 1,138,139
 282 390 282 390 276 422 c 1,140,141
 278 461 278 461 345 492 c 1,142,143
 321 511 321 511 288 545 c 128,-1,144
 255 579 255 579 228 584 c 1,145,146
 220 559 220 559 220 485 c 2,147,-1
 220 475 l 1,148,149
 142 431 142 431 129 412 c 1,150,151
 143 395 143 395 219 367 c 1,152,153
 226 283 226 283 234 252 c 1,154,155
 248 264 248 264 278 294.5 c 128,-1,156
 308 325 308 325 347 348 c 1,138,139
404 94 m 1,157,158
 464 83 464 83 547 91 c 1,159,160
 651 -237 651 -237 856 -434 c 1,161,162
 687 -200 687 -200 644 84 c 1,163,164
 695 89 695 89 715 93 c 1,165,-1
 688 118 l 2,166,167
 647 156 647 156 619 202 c 1,168,169
 586 141 586 141 548 141.5 c 128,-1,170
 510 142 510 142 482 197 c 1,171,172
 457 150 457 150 423 115 c 1,173,-1
 404 94 l 1,157,158
EndSplineSet
EndChar

StartChar: uniFD3F
Encoding: 64831 64831 70
Width: 1135
Flags: MW
LayerCount: 2
Fore
SplineSet
451 305 m 1,0,1
 383 284 383 284 263 160 c 1,2,-1
 256 160 l 2,3,4
 225 160 225 160 204.5 217.5 c 128,-1,5
 184 275 184 275 180 331 c 1,6,7
 73 389 73 389 72.5 438.5 c 128,-1,8
 72 488 72 488 173 549 c 1,9,10
 185 716 185 716 246 716 c 2,11,-1
 253 716 l 1,12,-1
 326 646 l 2,13,14
 382 591 382 591 448 577 c 1,15,16
 438 633 438 633 379 690.5 c 128,-1,17
 320 748 320 748 311 760.5 c 128,-1,18
 302 773 302 773 302 784 c 0,19,20
 302 816 302 816 367 833 c 0,21,22
 380 837 380 837 407 843 c 1,23,24
 373 997 373 997 279 1162.5 c 128,-1,25
 185 1328 185 1328 69 1429 c 0,26,27
 44 1453 44 1453 42 1475 c 1,28,29
 50 1504 50 1504 84 1508 c 1,30,31
 168 1507 168 1507 325 1353 c 0,32,33
 525 1156 525 1156 639 859 c 1,34,35
 807 855 807 855 841 818 c 0,36,37
 854 804 854 804 854 786 c 2,38,-1
 854 779 l 1,39,40
 735 655 735 655 718 583 c 1,41,42
 766 594 766 594 822.5 652.5 c 128,-1,43
 879 711 879 711 890 719.5 c 128,-1,44
 901 728 901 728 913 728 c 0,45,46
 957 728 957 728 975 631 c 0,47,48
 980 603 980 603 985 558 c 1,49,50
 1080 510 1080 510 1094 471 c 0,51,52
 1096 462 1096 462 1096 453 c 0,53,54
 1094 397 1094 397 992 334 c 1,55,56
 982 208 982 208 954 181 c 0,57,58
 942 170 942 170 926 170 c 2,59,-1
 919 170 l 1,60,61
 789 292 789 292 719 311 c 1,62,63
 734 252 734 252 791 197 c 128,-1,64
 848 142 848 142 856 132 c 0,65,66
 866 122 866 122 866 109 c 0,67,68
 866 80 866 80 795.5 58 c 128,-1,69
 725 36 725 36 646 32 c 1,70,71
 573 -181 573 -181 464 -332.5 c 128,-1,72
 355 -484 355 -484 254 -564 c 128,-1,73
 153 -644 153 -644 113 -644 c 0,74,75
 72 -644 72 -644 72 -606 c 0,76,77
 72 -588 72 -588 95.5 -562.5 c 128,-1,78
 119 -537 119 -537 130 -524 c 0,79,80
 234 -410 234 -410 306 -276.5 c 128,-1,81
 378 -143 378 -143 410 45 c 1,82,83
 329 61 329 61 316 88 c 0,84,85
 312 96 312 96 312 104 c 2,86,-1
 312 111 l 1,87,88
 434 233 434 233 451 305 c 1,0,1
732 771 m 1,89,90
 673 782 673 782 588 774 c 1,91,92
 482 1101 482 1101 278 1298 c 1,93,94
 448 1063 448 1063 491 781 c 1,95,96
 438 776 438 776 419 772 c 1,97,-1
 446 746 l 1,98,99
 488 708 488 708 516 662 c 1,100,101
 554 720 554 720 584 724 c 1,102,103
 625 723 625 723 652 668 c 1,104,105
 678 714 678 714 711 749 c 1,106,-1
 732 771 l 1,89,90
788 516 m 1,107,108
 858 479 858 479 858 441 c 128,-1,109
 858 403 858 403 790 372 c 1,110,111
 813 354 813 354 846.5 319.5 c 128,-1,112
 880 285 880 285 907 280 c 1,113,114
 914 304 914 304 914 379 c 2,115,-1
 914 389 l 1,116,117
 990 434 990 434 1006 453 c 1,118,119
 990 470 990 470 916 497 c 1,120,121
 909 581 909 581 901 612 c 1,122,123
 887 599 887 599 857 569 c 128,-1,124
 827 539 827 539 788 516 c 1,107,108
663 367 m 1,125,126
 695 401 695 401 695 446 c 128,-1,127
 695 491 695 491 662 522 c 128,-1,128
 629 553 629 553 583.5 553 c 128,-1,129
 538 553 538 553 505 522 c 1,130,131
 473 490 473 490 473 445 c 128,-1,132
 473 400 473 400 505 367 c 1,133,134
 539 335 539 335 584.5 335 c 128,-1,135
 630 335 630 335 663 367 c 1,125,126
381 373 m 1,136,137
 310 409 310 409 310 446.5 c 128,-1,138
 310 484 310 484 372 514 c 1,139,140
 325 537 325 537 288 571 c 1,141,-1
 260 598 l 1,142,143
 256 569 256 569 256 510 c 2,144,-1
 256 500 l 1,145,146
 176 455 176 455 163 436 c 1,147,148
 176 419 176 419 254 392 c 1,149,150
 261 308 261 308 269 277 c 1,151,152
 283 289 283 289 313 319.5 c 128,-1,153
 343 350 343 350 381 373 c 1,136,137
429 117 m 1,154,155
 437 115 437 115 500 104 c 1,156,157
 439 -158 439 -158 400 -247.5 c 128,-1,158
 361 -337 361 -337 294 -433 c 1,159,160
 479 -242 479 -242 593 113 c 1,161,162
 720 119 720 119 746 123 c 1,163,-1
 721 147 l 1,164,165
 683 183 683 183 655 228 c 1,166,167
 617 165 617 165 586.5 164.5 c 128,-1,168
 556 164 556 164 518 227 c 1,169,170
 495 185 495 185 459 148 c 2,171,-1
 429 117 l 1,154,155
EndSplineSet
EndChar

StartChar: uniFDF2
Encoding: 65010 65010 71
Width: 1918
Flags: MW
LayerCount: 2
Fore
SplineSet
916 1681 m 2,0,1
 950 1534 950 1534 930 1426 c 2,2,-1
 924 1392 l 1,3,-1
 845 1358 l 1,4,5
 836 1470 836 1470 781 1540 c 1,6,-1
 904 1732 l 1,7,-1
 916 1681 l 2,0,1
1090 1412 m 1,8,9
 1126 1259 1126 1259 1089 1179 c 0,10,11
 1069 1137 1069 1137 1013 1092 c 0,12,13
 957 1047 957 1047 887 1069 c 1,14,15
 815 995 815 995 749 995 c 1,16,17
 658 997 658 997 658 1107 c 0,18,19
 658 1141 658 1141 682 1222 c 2,20,-1
 696 1269 l 1,21,-1
 783 1288 l 1,22,-1
 783 1280 l 2,23,24
 783 1184 783 1184 812 1172 c 1,25,26
 829 1211 829 1211 841 1278 c 2,27,-1
 847 1315 l 1,28,-1
 936 1350 l 1,29,30
 954 1271 954 1271 977 1250 c 1,31,32
 986 1284 986 1284 990 1334 c 2,33,-1
 992 1366 l 1,34,-1
 1090 1412 l 1,8,9
1291 274 m 1,35,36
 1263 609 1263 609 1230 970 c 1,37,-1
 1463 1211 l 1,38,-1
 1465 1179 l 2,39,40
 1537 260 1537 260 1540 198 c 0,41,42
 1544 86 1544 86 1490 28 c 0,43,44
 1437 -30 1437 -30 1389 -34 c 1,45,-1
 1388 -34 l 2,46,47
 1382 -34 1382 -34 612 -35 c 1,48,49
 535 -34 535 -34 494 47 c 0,50,51
 469 97 469 97 449 203 c 1,52,53
 423 151 423 151 398 119 c 0,54,55
 373 87 373 87 334 76 c 1,56,57
 32 117 32 117 -14 246 c 1,58,59
 -22 275 -22 275 35 399 c 0,60,61
 92 523 92 523 131 566 c 0,62,63
 171 608 171 608 214 629 c 0,64,65
 256 650 256 650 405 711 c 1,66,-1
 400 789 l 1,67,-1
 417 807 l 2,68,69
 458 850 458 850 537 920 c 2,70,-1
 586 964 l 1,71,-1
 589 941 l 2,72,73
 591 925 591 925 597 807 c 0,74,75
 602 688 602 688 612 513 c 0,76,77
 622 338 622 338 641 300 c 1,78,79
 658 271 658 271 712 271 c 1,80,-1
 846 274 l 1,81,82
 799 771 799 771 800 774 c 2,83,-1
 800 783 l 1,84,-1
 1019 1022 l 1,85,-1
 1091 281 l 1,86,-1
 1101 271 l 1,87,-1
 1291 274 l 1,35,36
432 367 m 1,88,-1
 418 568 l 1,89,-1
 411 574 l 1,90,91
 232 514 232 514 214 472 c 0,92,93
 211 466 211 466 209 458 c 1,94,95
 288 380 288 380 432 367 c 1,88,-1
EndSplineSet
Refer: 10 1575 N 1 0 0 1 1560 0 2
EndChar

StartChar: uni0627.isol
Encoding: 65165 65165 99
Width: 520
VWidth: 2081
Flags: MW
LayerCount: 2
Fore
SplineSet
365 1302 m 2,0,1
 365 1298 365 1298 411 332 c 1,2,3
 372 156 372 156 218 26 c 2,4,-1
 168 -17 l 1,5,-1
 173 132 l 1,6,7
 169 461 169 461 147 726 c 0,8,9
 126 992 126 992 124 1054 c 1,10,-1
 365 1350 l 1,11,-1
 365 1302 l 2,0,1
EndSplineSet
EndChar

StartChar: uni0627.fina
Encoding: 65166 65166 100
Width: 516
VWidth: 2081
Flags: MW
AnchorPoint: "Below" 291 -216 basechar 0
AnchorPoint: "Above" 217 1262 basechar 0
LayerCount: 2
Fore
SplineSet
311 0 m 1,0,1
 148 2 148 2 130 240 c 1,2,-1
 74 1065 l 1,3,-1
 98 1087 l 2,4,5
 123 1111 123 1111 191 1178 c 0,6,7
 271 1256 271 1256 318 1272 c 1,8,-1
 349 461 l 1,9,10
 356 305 356 305 479 304 c 2,11,-1
 516 304 l 1,12,-1
 516 0 l 1,13,-1
 311 0 l 1,0,1
EndSplineSet
EndChar

StartChar: uni062D.isol
Encoding: 65185 65185 119
Width: 1379
VWidth: 2081
Flags: MW
LayerCount: 2
Fore
SplineSet
1267 -354 m 0,0,1
 1290 -356 1290 -356 1271 -389.5 c 128,-1,2
 1252 -423 1252 -423 1139 -515 c 0,3,4
 1014 -617 1014 -617 988 -634 c 0,5,6
 826 -735 826 -735 638 -734.5 c 128,-1,7
 450 -734 450 -734 324 -608 c 1,8,9
 178 -461 178 -461 178 -201 c 1,10,11
 179 129 179 129 445 428 c 1,12,-1
 440 439 l 1,13,14
 300 439 300 439 259 433 c 128,-1,15
 218 427 218 427 191 403 c 0,16,17
 102 327 102 327 100 366 c 0,18,19
 100 373 100 373 109 405 c 1,20,21
 160 550 160 550 254.5 648 c 128,-1,22
 349 746 349 746 473 746 c 0,23,24
 555 746 555 746 734 719.5 c 128,-1,25
 913 693 913 693 991 693 c 2,26,-1
 1189 693 l 1,27,-1
 1045 402 l 1,28,-1
 1002 400 l 2,29,30
 928 397 928 397 852 391 c 2,31,-1
 683 378 l 1,32,33
 574 345 574 345 474 239 c 1,34,35
 350 104 350 104 349 -45 c 1,36,37
 351 -431 351 -431 800 -432 c 0,38,39
 968 -432 968 -432 1236 -358 c 1,40,41
 1256 -353 1256 -353 1267 -354 c 0,0,1
EndSplineSet
EndChar

StartChar: uni062D.fina
Encoding: 65186 65186 120
Width: 1430
VWidth: 2081
Flags: MW
AnchorPoint: "Below" 600 -767 basechar 0
AnchorPoint: "Above" 676 957 basechar 0
LayerCount: 2
Fore
SplineSet
276 150 m 1,0,1
 353 315 353 315 471 450 c 1,2,-1
 466 461 l 1,3,4
 280 473 280 473 181 390 c 0,5,6
 121 340 121 340 102 354 c 1,7,8
 84 372 84 372 204 532 c 0,9,10
 361 740 361 740 546 741 c 0,11,12
 618 741 618 741 799 711.5 c 128,-1,13
 980 682 980 682 1047 682 c 1,14,-1
 1213 693 l 1,15,-1
 1219 682 l 1,16,-1
 1219 681 l 1,17,-1
 1133 441 l 1,18,-1
 1075 441 l 2,19,20
 994 441 994 441 930 432 c 1,21,22
 929 423 929 423 929 416 c 0,23,24
 931 304 931 304 1122 304 c 2,25,-1
 1430 304 l 1,26,-1
 1430 0 l 1,27,-1
 1079 0 l 2,28,29
 941 0 941 0 862 36.5 c 128,-1,30
 783 73 783 73 783 201 c 0,31,32
 783 248 783 248 801 397 c 1,33,-1
 791 408 l 1,34,35
 602 388 602 388 493 281 c 0,36,37
 367 156 367 156 366 -45 c 1,38,39
 368 -444 368 -444 867 -445 c 0,40,41
 1110 -445 1110 -445 1303 -387 c 1,42,43
 1350 -379 1350 -379 1354 -385 c 0,44,45
 1372 -411 1372 -411 1292 -467 c 1,46,-1
 1016 -662 l 1,47,48
 863 -751 863 -751 676 -750.5 c 128,-1,49
 489 -750 489 -750 341.5 -606 c 128,-1,50
 194 -462 194 -462 194 -201 c 0,51,52
 194 -23 194 -23 276 149 c 1,53,-1
 276 150 l 1,0,1
EndSplineSet
EndChar

StartChar: uni062D.init
Encoding: 65187 65187 121
Width: 1449
VWidth: 2081
Flags: MW
AnchorPoint: "Below" 625 -216 basechar 0
AnchorPoint: "Above" 716 951 basechar 0
LayerCount: 2
Fore
SplineSet
314 545 m 1,0,1
 464 734 464 734 650 735 c 1,2,3
 815 734 815 734 944 626 c 0,4,5
 956 616 956 616 1160 418 c 0,6,7
 1276 305 1276 305 1343 305 c 2,8,-1
 1349 305 l 1,9,-1
 1349 93 l 1,10,11
 1347 66 1347 66 1312 36 c 0,12,13
 1277 8 1277 8 1237 4 c 0,14,15
 1193 0 1193 0 1128 0 c 2,16,-1
 -17 1 l 2,17,18
 -70 1 -70 1 -70 55 c 2,19,-1
 -70 307 l 1,20,-1
 867 307 l 1,21,22
 681 512 681 512 492 513 c 0,23,24
 426 513 426 513 329 474 c 0,25,26
 278 454 278 454 277 478 c 1,27,28
 278 501 278 501 300 528 c 2,29,-1
 314 545 l 1,0,1
EndSplineSet
EndChar

StartChar: uni062D.medi
Encoding: 65188 65188 122
Width: 1311
VWidth: 2081
Flags: MW
AnchorPoint: "Below" 605 -216 basechar 0
AnchorPoint: "Above" 675 952 basechar 0
LayerCount: 2
Fore
SplineSet
833 308 m 1,0,1
 647 513 647 513 457 514 c 0,2,3
 430 514 430 514 288 473 c 0,4,5
 242 460 242 460 241 476 c 1,6,7
 241 493 241 493 266 528 c 128,-1,8
 291 563 291 563 321 595 c 0,9,10
 456 736 456 736 606 736 c 0,11,12
 774 736 774 736 909 627 c 0,13,14
 924 615 924 615 1125 419 c 0,15,16
 1241 306 1241 306 1305 306 c 2,17,-1
 1311 306 l 1,18,-1
 1311 0 l 1,19,-1
 -16 0 l 2,20,21
 -70 0 -70 0 -70 56 c 2,22,-1
 -70 308 l 1,23,-1
 833 308 l 1,0,1
EndSplineSet
EndChar

StartChar: uni062F.isol
Encoding: 65193 65193 127
Width: 929
VWidth: 2081
Flags: MW
LayerCount: 2
Fore
SplineSet
623 297 m 1,0,1
 603 494 603 494 512 660 c 1,2,-1
 659 854 l 1,3,4
 717 920 717 920 731 893 c 0,5,6
 748 863 l 0,7,8
 764 833 764 833 784 755 c 0,9,10
 850 500 850 500 821 303 c 2,11,-1
 792 101 l 2,12,13
 789 86 789 86 776 69 c 0,14,15
 735 22 735 22 678 12 c 0,16,17
 658 9 658 9 506 0 c 128,-1,18
 354 -9 354 -9 248 3 c 1,19,20
 101 25 101 25 100 169 c 0,21,22
 100 202 100 202 104 221 c 0,23,24
 140 405 140 405 180 460 c 0,25,26
 188 469 188 469 208 483 c 0,27,28
 257 518 257 518 257 486 c 1,29,-1
 247 434 l 1,30,31
 249 320 249 320 373 302 c 1,32,33
 496 286 496 286 623 297 c 1,0,1
EndSplineSet
EndChar

StartChar: uni062F.fina
Encoding: 65194 65194 128
Width: 810
VWidth: 2081
Flags: MW
AnchorPoint: "Below" 451 -216 basechar 0
AnchorPoint: "Above" 542 1320 basechar 0
LayerCount: 2
Fore
SplineSet
623 298 m 1,0,1
 604 487 604 487 512 661 c 1,2,-1
 662 858 l 1,3,4
 718 920 718 920 731 893 c 1,5,6
 794 778 794 778 813 588 c 128,-1,7
 832 398 832 398 803 154 c 1,8,9
 792 71 792 71 791 61 c 2,10,-1
 785 0 l 1,11,-1
 332 0 l 2,12,13
 275 0 275 0 247 4 c 0,14,15
 101 25 101 25 100 170 c 1,16,17
 115 364 115 364 180 473 c 0,18,19
 187 483 187 483 223.5 508 c 128,-1,20
 260 533 260 533 261 501 c 1,21,-1
 248 435 l 1,22,23
 235 331 235 331 373 303 c 1,24,25
 500 287 500 287 623 298 c 1,0,1
EndSplineSet
EndChar

StartChar: uni0631.isol
Encoding: 65197 65197 131
Width: 906
VWidth: 2081
Flags: MW
LayerCount: 2
Fore
SplineSet
689 -319 m 0,0,1
 642 -401 642 -401 585 -460 c 0,2,3
 445 -604 445 -604 284 -605 c 1,4,5
 189 -604 189 -604 75 -496 c 128,-1,6
 -39 -388 -39 -388 -76 -293 c 0,7,8
 -152 -97 -152 -97 15 -207 c 1,9,10
 148 -299 148 -299 282 -298.5 c 128,-1,11
 416 -298 416 -298 503 -219 c 128,-1,12
 590 -140 590 -140 630 -9 c 1,13,14
 628 31 628 31 571 108 c 128,-1,15
 514 185 514 185 442 253 c 1,16,-1
 580 557 l 1,17,-1
 618 531 l 1,18,19
 807 405 807 405 807 145 c 128,-1,20
 807 -115 807 -115 689 -319 c 0,0,1
EndSplineSet
EndChar

StartChar: uni0633.isol
Encoding: 65201 65201 135
Width: 2105
VWidth: 2081
Flags: MW
LayerCount: 2
Fore
SplineSet
961 -125 m 1,0,1
 957 93 957 93 811 341 c 1,2,3
 855 401 855 401 908 475 c 128,-1,4
 961 549 961 549 983 570 c 0,5,6
 1021 606 1021 606 1037 598 c 1,7,8
 1106 508 1106 508 1148 311 c 1,9,-1
 1158 303 l 1,10,11
 1256 305 1256 305 1364 319 c 1,12,13
 1375 364 1375 364 1355 426 c 1,14,-1
 1578 669 l 1,15,-1
 1582 636 l 2,16,17
 1599 511 1599 511 1540 354 c 1,18,-1
 1543 343 l 1,19,20
 1625 284 1625 284 1761 283 c 0,21,22
 1785 283 1785 283 1803 285 c 1,23,24
 1793 375 1793 375 1743 466 c 1,25,-1
 1949 704 l 1,26,-1
 1963 681 l 2,27,28
 2025 574 2025 574 1997 105 c 0,29,30
 1995 84 1995 84 1973 59 c 0,31,32
 1916 -1 1916 -1 1831 -3 c 0,33,34
 1819 -3 1819 -3 1800.5 -3 c 128,-1,35
 1782 -3 1782 -3 1775 -3 c 0,36,37
 1559 -3 1559 -3 1399 86 c 1,38,39
 1338 33 1338 33 1277 19 c 128,-1,40
 1216 5 1216 5 1142 1 c 1,41,42
 1115 -92 1115 -92 1066 -193 c 0,43,44
 1009 -309 1009 -309 950 -360 c 0,45,46
 783 -510 783 -510 509 -510 c 1,47,48
 100 -508 100 -508 100 -69 c 1,49,50
 101 158 101 158 232 351 c 0,51,52
 268 404 268 404 308 428 c 128,-1,53
 348 452 348 452 337 419 c 1,54,-1
 320 380 l 1,55,56
 236 194 236 194 235 74 c 1,57,58
 237 -210 237 -210 594 -211 c 0,59,60
 843 -210 843 -210 961 -125 c 1,0,1
EndSplineSet
EndChar

StartChar: uni0633.init
Encoding: 65203 65203 137
Width: 1556
VWidth: 2081
Flags: MW
AnchorPoint: "Below" 839 -192 basechar 0
AnchorPoint: "Above" 939 883 basechar 0
LayerCount: 2
Fore
SplineSet
1252 285 m 1,0,1
 1242 375 1242 375 1192 466 c 1,2,-1
 1402 710 l 1,3,-1
 1411 679 l 2,4,5
 1478 448 1478 448 1446 104 c 1,6,7
 1442 83 1442 83 1421 60 c 0,8,9
 1360 -3 1360 -3 1279 -3 c 0,10,11
 1267 -3 1267 -3 1248 -3 c 128,-1,12
 1229 -3 1229 -3 1223 -3 c 0,13,14
 1008 -3 1008 -3 846 86 c 1,15,16
 792 42 792 42 728.5 21 c 128,-1,17
 665 0 665 0 537 0 c 128,-1,18
 409 0 409 0 322 50 c 1,19,-1
 319 50 l 1,20,21
 227 0 227 0 91 0 c 2,22,-1
 -16 0 l 2,23,24
 -70 0 -70 0 -70 54 c 2,25,-1
 -70 304 l 1,26,-1
 204 304 l 2,27,28
 289 304 289 304 338 313 c 1,29,30
 344 363 344 363 324 438 c 1,31,-1
 535 678 l 1,32,-1
 544 650 l 2,33,34
 552 625 552 625 552 545 c 0,35,36
 552 467 552 467 505 336 c 1,37,-1
 511 324 l 1,38,39
 674 274 674 274 816 310 c 1,40,41
 830 375 830 375 804 427 c 1,42,-1
 1021 662 l 1,43,-1
 1031 638 l 2,44,45
 1037 624 1037 624 1037 543 c 0,46,47
 1037 465 1037 465 989 354 c 1,48,-1
 992 343 l 1,49,50
 1074 284 1074 284 1210 283 c 0,51,52
 1233 283 1233 283 1252 285 c 1,0,1
EndSplineSet
EndChar

StartChar: uni0635.isol
Encoding: 65209 65209 143
Width: 2439
VWidth: 2081
Flags: MW
LayerCount: 2
Fore
SplineSet
2049 405 m 1,0,1
 1927 474 1927 474 1813.5 473.5 c 128,-1,2
 1700 473 1700 473 1568 374 c 0,3,4
 1534 348 1534 348 1487 313 c 1,5,-1
 1488 309 l 1,6,7
 1748 293 1748 293 1896 293 c 2,8,-1
 1946 293 l 1,9,10
 2082 298 2082 298 2150 314 c 1,11,12
 2134 355 2134 355 2050 405 c 1,13,-1
 2049 405 l 1,0,1
961 -125 m 1,14,15
 957 93 957 93 811 341 c 1,16,-1
 1018 619 l 1,17,-1
 1037 595 l 2,18,19
 1101 514 1101 514 1151 311 c 1,20,-1
 1161 303 l 1,21,22
 1280 305 1280 305 1375 381 c 1,23,-1
 1375 382 l 1,24,-1
 1652 628 l 2,25,26
 1815 773 1815 773 1941 773 c 0,27,28
 2033 772 2033 772 2164.5 681 c 128,-1,29
 2296 590 2296 590 2324 527 c 0,30,31
 2339 491 2339 491 2339 413 c 0,32,33
 2339 245 2339 245 2286 156 c 1,34,35
 2240 81 2240 81 2151 38 c 0,36,37
 2046 -12 2046 -12 1618 -12 c 0,38,39
 1426 -12 1426 -12 1141 -2 c 1,40,41
 1131 -38 1131 -38 1118 -71 c 0,42,43
 1057 -233 1057 -233 1018 -284 c 0,44,45
 844 -510 844 -510 509 -510 c 1,46,47
 100 -508 100 -508 100 -69 c 1,48,49
 101 158 101 158 232 352 c 0,50,51
 268 404 268 404 303 425 c 0,52,53
 357 457 357 457 333 405 c 0,54,55
 238 197 238 197 237 74 c 1,56,57
 239 -210 239 -210 594 -211 c 0,58,59
 843 -210 843 -210 961 -125 c 1,14,15
EndSplineSet
EndChar

StartChar: uni0635.fina
Encoding: 65210 65210 144
Width: 2319
VWidth: 2081
Flags: MW
AnchorPoint: "Below" 1415 -217 basechar 0
AnchorPoint: "Above" 1615 1033 basechar 0
LayerCount: 2
Fore
SplineSet
2049 405 m 1,0,1
 1927 474 1927 474 1816 474 c 0,2,3
 1702 474 1702 474 1633 423 c 0,4,5
 1602 399 1602 399 1487 313 c 1,6,-1
 1488 309 l 1,7,8
 1748 293 1748 293 1896 293 c 2,9,-1
 1946 293 l 1,10,11
 2082 298 2082 298 2150 314 c 1,12,13
 2134 355 2134 355 2050 405 c 1,14,-1
 2049 405 l 1,0,1
961 -125 m 1,15,16
 957 93 957 93 811 341 c 1,17,-1
 1018 619 l 1,18,-1
 1037 595 l 2,19,20
 1101 514 1101 514 1151 311 c 1,21,-1
 1161 303 l 1,22,23
 1280 305 1280 305 1375 381 c 1,24,-1
 1375 382 l 1,25,-1
 1652 628 l 2,26,27
 1815 773 1815 773 1941 773 c 0,28,29
 2033 772 2033 772 2164.5 681 c 128,-1,30
 2296 590 2296 590 2324 527 c 0,31,32
 2339 491 2339 491 2339 413 c 0,33,34
 2339 149 2339 149 2263 45 c 2,35,-1
 2230 0 l 1,36,-1
 1142 0 l 1,37,38
 1132 -36 1132 -36 1118 -71 c 0,39,40
 1057 -233 1057 -233 1018 -284 c 0,41,42
 844 -510 844 -510 509 -510 c 1,43,44
 100 -508 100 -508 100 -69 c 1,45,46
 101 158 101 158 232 351 c 0,47,48
 277 416 277 416 309 435.5 c 128,-1,49
 341 455 341 455 346.5 450 c 128,-1,50
 352 445 352 445 344 430 c 1,51,-1
 322 380 l 1,52,53
 238 195 238 195 237 74 c 1,54,55
 239 -210 239 -210 594 -211 c 0,56,57
 843 -210 843 -210 961 -125 c 1,15,16
EndSplineSet
EndChar

StartChar: uni0635.init
Encoding: 65211 65211 145
Width: 2068
VWidth: 2081
Flags: MW
AnchorPoint: "Above" 1255 1033 basechar 0
AnchorPoint: "Below" 839 -217 basechar 0
LayerCount: 2
Fore
SplineSet
1777 315 m 1,0,1
 1758 353 1758 353 1686 395 c 0,2,3
 1552 473 1552 473 1443 473 c 0,4,5
 1331 473 1331 473 1263 422 c 0,6,7
 1231 397 1231 397 1117 312 c 1,8,-1
 1118 308 l 1,9,10
 1372 292 1372 292 1524 292 c 2,11,-1
 1575 292 l 1,12,13
 1700 296 1700 296 1777 315 c 1,0,1
377 314 m 1,14,15
 382 359 382 359 360 434 c 1,16,-1
 565 685 l 1,17,-1
 575 652 l 2,18,19
 584 623 584 623 584 533 c 0,20,21
 584 445 584 445 541 338 c 1,22,-1
 547 326 l 1,23,24
 614 301 614 301 788 302 c 0,25,26
 927 303 927 303 1033 402 c 1,27,-1
 1282 627 l 2,28,29
 1444 773 1444 773 1571 772 c 0,30,31
 1660 771 1660 771 1796 677 c 0,32,33
 1934 582 1934 582 1954 526 c 0,34,35
 1968 487 1968 487 1968 412 c 0,36,37
 1968 235 1968 235 1907 144 c 1,38,39
 1856 71 1856 71 1764.5 33.5 c 128,-1,40
 1673 -4 1673 -4 1379 -4 c 0,41,42
 815 -4 815 -4 681 1 c 0,43,44
 439 10 439 10 373 57 c 1,45,-1
 371 57 l 1,46,47
 283 0 283 0 122 0 c 2,48,-1
 -15 0 l 2,49,50
 -70 0 -70 0 -70 54 c 2,51,-1
 -70 304 l 1,52,-1
 165 304 l 2,53,54
 310 304 310 304 377 314 c 1,14,15
EndSplineSet
EndChar

StartChar: uni0635.medi
Encoding: 65212 65212 146
Width: 1836
VWidth: 2081
Flags: MW
AnchorPoint: "Above" 1085 1033 basechar 0
AnchorPoint: "Below" 839 -217 basechar 0
LayerCount: 2
Fore
SplineSet
1665 315 m 1,0,1
 1646 353 1646 353 1574 395 c 0,2,3
 1440 473 1440 473 1331 473 c 0,4,5
 1219 473 1219 473 1151 422 c 0,6,7
 1120 398 1120 398 1005 312 c 1,8,-1
 1006 308 l 1,9,10
 1260 292 1260 292 1412 292 c 2,11,-1
 1463 292 l 1,12,13
 1588 296 1588 296 1665 315 c 1,0,1
265 315 m 1,14,15
 270 360 270 360 248 434 c 1,16,-1
 453 685 l 1,17,-1
 463 652 l 2,18,19
 472 622 472 622 472 533 c 0,20,21
 472 445 472 445 428 338 c 1,22,-1
 434 326 l 1,23,24
 503 301 503 301 676 302 c 0,25,26
 805 303 805 303 925 406 c 0,27,28
 932 412 932 412 1131 592 c 128,-1,29
 1330 772 1330 772 1459 772 c 1,30,31
 1548 771 1548 771 1684 677 c 0,32,33
 1822 582 1822 582 1842 526 c 0,34,35
 1856 487 1856 487 1856 412 c 0,36,37
 1856 231 1856 231 1820 151 c 0,38,39
 1788 78 1788 78 1726 25 c 2,40,-1
 1697 0 l 1,41,-1
 1276 0 l 2,42,43
 594 0 594 0 568 1 c 0,44,45
 327 10 327 10 261 57 c 1,46,-1
 259 57 l 1,47,48
 171 0 171 0 10 0 c 2,49,-1
 -15 0 l 2,50,51
 -70 0 -70 0 -70 54 c 2,52,-1
 -70 304 l 1,53,-1
 14 304 l 2,54,55
 190 304 190 304 265 315 c 1,14,15
EndSplineSet
EndChar

StartChar: uni0637.isol
Encoding: 65217 65217 151
Width: 1660
VWidth: 2081
Flags: MW
LayerCount: 2
Fore
SplineSet
1380 308 m 1,0,1
 1325 464 1325 464 1063 463 c 0,2,3
 994 463 994 463 882 396 c 1,4,-1
 723 308 l 1,5,-1
 1380 308 l 1,0,1
730 940 m 1,6,7
 773 614 773 614 652 397 c 1,8,-1
 660 388 l 1,9,10
 716 422 716 422 920.5 582 c 128,-1,11
 1125 742 1125 742 1217 742 c 0,12,13
 1370 741 1370 741 1461 647 c 1,14,15
 1553 548 1553 548 1554 398 c 0,16,-1
 1560 318 l 1,17,-1
 1560 1 l 1,18,-1
 378 0 l 1,19,-1
 324 2 l 1,20,21
 142 4 142 4 109 243 c 2,22,-1
 100 306 l 1,23,-1
 243 306 l 2,24,25
 421 306 421 306 497 329 c 1,26,27
 513 387 513 387 513 495 c 0,28,29
 513 766 513 766 440 1068 c 1,30,-1
 649 1342 l 1,31,-1
 657 1301 l 2,32,33
 692 1136 692 1136 817 1066 c 1,34,35
 775 997 775 997 730 940 c 1,6,7
EndSplineSet
EndChar

StartChar: uni0637.fina
Encoding: 65218 65218 152
Width: 1561
VWidth: 2081
Flags: MW
AnchorPoint: "Above" 1248 1254 basechar 0
AnchorPoint: "Below" 807 -216 basechar 0
LayerCount: 2
Fore
SplineSet
1380 308 m 1,0,1
 1325 464 1325 464 1063 463 c 0,2,3
 994 463 994 463 882 396 c 1,4,-1
 723 308 l 1,5,-1
 1380 308 l 1,0,1
730 940 m 1,6,7
 773 614 773 614 652 397 c 1,8,-1
 660 388 l 1,9,10
 716 422 716 422 920.5 582 c 128,-1,11
 1125 742 1125 742 1217 742 c 0,12,13
 1370 741 1370 741 1461 647 c 1,14,15
 1552 548 1552 548 1561 318 c 1,16,-1
 1561 1 l 1,17,-1
 378 0 l 1,18,-1
 324 2 l 1,19,20
 142 4 142 4 109 243 c 2,21,-1
 100 306 l 1,22,-1
 243 306 l 2,23,24
 421 306 421 306 497 329 c 1,25,26
 513 387 513 387 513 495 c 0,27,28
 513 766 513 766 440 1068 c 1,29,-1
 649 1342 l 1,30,-1
 657 1301 l 2,31,32
 692 1136 692 1136 817 1066 c 1,33,34
 775 997 775 997 730 940 c 1,6,7
EndSplineSet
EndChar

StartChar: uni0637.init
Encoding: 65219 65219 153
Width: 1440
VWidth: 2081
Flags: MW
AnchorPoint: "Above" 1028 1253 basechar 0
AnchorPoint: "Below" 687 -217 basechar 0
LayerCount: 2
Fore
SplineSet
1159 307 m 1,0,1
 1104 463 1104 463 842 462 c 0,2,3
 773 462 773 462 661 395 c 1,4,-1
 502 307 l 1,5,-1
 1159 307 l 1,0,1
509 938 m 1,6,7
 520 856 520 856 519 791 c 0,8,9
 519 554 519 554 431 396 c 1,10,-1
 439 387 l 1,11,12
 495 421 495 421 699.5 581 c 128,-1,13
 904 741 904 741 996 741 c 0,14,15
 1147 740 1147 740 1243.5 642 c 128,-1,16
 1340 544 1340 544 1340 396 c 2,17,-1
 1340 0 l 1,18,-1
 -70 0 l 1,19,-1
 -70 306 l 1,20,-1
 -28 306 l 2,21,22
 193 306 193 306 276 331 c 1,23,24
 291 389 291 389 292 494 c 0,25,26
 292 765 292 765 219 1067 c 1,27,-1
 429 1341 l 1,28,-1
 437 1300 l 2,29,30
 469 1136 469 1136 596 1065 c 1,31,32
 549 988 549 988 509 938 c 1,6,7
EndSplineSet
EndChar

StartChar: uni0637.medi
Encoding: 65220 65220 154
Width: 1339
VWidth: 2081
Flags: MW
AnchorPoint: "Above" 988 1253 basechar 0
AnchorPoint: "Below" 669 -217 basechar 0
LayerCount: 2
Fore
SplineSet
1159 307 m 1,0,1
 1104 463 1104 463 842 462 c 0,2,3
 773 462 773 462 661 395 c 1,4,-1
 502 307 l 1,5,-1
 1159 307 l 1,0,1
509 938 m 1,6,7
 520 856 520 856 519 791 c 0,8,9
 519 554 519 554 431 396 c 1,10,-1
 439 387 l 1,11,12
 495 421 495 421 699.5 581 c 128,-1,13
 904 741 904 741 996 741 c 0,14,15
 1152 740 1152 740 1240 646 c 1,16,17
 1314 566 1314 566 1339 317 c 0,18,-1
 1339 0 l 1,19,-1
 -70 0 l 1,20,-1
 -70 306 l 1,21,-1
 -28 306 l 2,22,23
 193 306 193 306 276 331 c 1,24,25
 291 389 291 389 292 494 c 0,26,27
 292 765 292 765 219 1067 c 1,28,-1
 429 1341 l 1,29,-1
 437 1300 l 2,30,31
 469 1136 469 1136 596 1065 c 1,32,33
 549 988 549 988 509 938 c 1,6,7
EndSplineSet
EndChar

StartChar: uni0639.isol
Encoding: 65225 65225 159
Width: 1283
VWidth: 2081
Flags: MW
LayerCount: 2
Fore
SplineSet
281 -191 m 0,0,1
 281 -467 281 -467 844 -499 c 1,2,-1
 1140 -495 l 1,3,-1
 1183 -501 l 1,4,5
 1177 -527 1177 -527 1093 -590 c 0,6,7
 1085 -596 1085 -596 1081 -599 c 0,8,9
 830 -789 830 -789 599 -789 c 0,10,11
 367 -789 367 -789 232 -654 c 1,12,13
 100 -519 100 -519 100 -286 c 1,14,15
 101 -9 101 -9 328 213 c 1,16,-1
 328 219 l 1,17,18
 249 290 249 290 246 294 c 0,19,20
 216 331 216 331 216 380 c 0,21,22
 216 480 216 480 313 634 c 1,23,24
 445 848 445 848 578 847 c 0,25,26
 758 846 758 846 875 677 c 0,27,28
 941 579 941 579 731 647 c 0,29,30
 560 714 560 714 453 534 c 1,31,-1
 455 524 l 1,32,-1
 607 406 l 1,33,-1
 614 405 l 1,34,35
 899 507 899 507 1026 504 c 1,36,37
 1014 480 1014 480 993 404 c 0,38,39
 972 331 972 331 952 270 c 2,40,-1
 935 219 l 1,41,-1
 883 212 l 2,42,43
 529 163 529 163 376 17 c 1,44,45
 282 -78 282 -78 281 -191 c 0,0,1
EndSplineSet
EndChar

StartChar: uni0639.fina
Encoding: 65226 65226 160
Width: 1173
VWidth: 2081
Flags: MW
AnchorPoint: "Below" 600 -767 basechar 0
AnchorPoint: "Above" 644 1004 basechar 0
LayerCount: 2
Fore
SplineSet
399 367 m 1,0,1
 346 424 346 424 217 433 c 1,2,3
 316 616 316 616 345 660 c 0,4,5
 408 757 408 757 497 773 c 2,6,-1
 518 777 l 1,7,8
 687 803 687 803 777 745 c 1,9,10
 860 695 860 695 860 613 c 128,-1,11
 860 531 860 531 839.5 493.5 c 128,-1,12
 819 456 819 456 766 405 c 1,13,-1
 766 402 l 1,14,15
 848 304 848 304 1102 304 c 2,16,-1
 1173 304 l 1,17,-1
 1173 0 l 1,18,-1
 1026 0 l 2,19,20
 657 1 657 1 529 231 c 1,21,-1
 524 232 l 1,22,23
 316 68 316 68 315 -164 c 1,24,25
 317 -474 317 -474 724 -475 c 0,26,27
 821 -475 821 -475 902 -464 c 1,28,-1
 1053 -442 l 2,29,30
 1091 -436 1091 -436 1087 -458 c 1,31,32
 1080 -484 1080 -484 1014 -553 c 0,33,34
 798 -777 798 -777 537 -777 c 1,35,36
 323 -776 323 -776 211.5 -639 c 128,-1,37
 100 -502 100 -502 100 -284 c 0,38,39
 101 -116 101 -116 186.5 58 c 128,-1,40
 272 232 272 232 399 362 c 1,41,-1
 399 367 l 1,0,1
EndSplineSet
EndChar

StartChar: uni0639.init
Encoding: 65227 65227 161
Width: 1215
VWidth: 2081
Flags: MW
AnchorPoint: "Below" 576 -216 basechar 0
AnchorPoint: "Above" 676 1077 basechar 0
LayerCount: 2
Fore
SplineSet
856 295 m 0,0,1
 926 295 926 295 1094 319 c 2,2,-1
 1115 322 l 1,3,-1
 1001 72 l 2,4,5
 967 -2 967 -2 895 0 c 1,6,-1
 -70 0 l 1,7,-1
 -70 305 l 1,8,-1
 311 305 l 1,9,10
 247 399 247 399 247 459 c 2,11,-1
 247 464 l 1,12,13
 248 574 248 574 391 717 c 0,14,15
 535 861 535 861 661 861 c 2,16,-1
 667 861 l 1,17,18
 866 859 866 859 960 585 c 0,19,-1
 961 585 l 0,20,21
 994 423 994 423 879 509 c 0,22,23
 694 648 694 648 522 580 c 1,24,25
 535 535 535 535 612 442 c 0,26,27
 733 296 733 296 856 295 c 0,0,1
EndSplineSet
EndChar

StartChar: uni0639.medi
Encoding: 65228 65228 162
Width: 1089
VWidth: 2081
Flags: MW
AnchorPoint: "Below" 544 -216 basechar 0
AnchorPoint: "Above" 704 1039 basechar 0
LayerCount: 2
Fore
SplineSet
-16 0 m 2,0,1
 -70 0 -70 0 -70 54 c 2,2,-1
 -70 304 l 1,3,-1
 258 304 l 2,4,5
 397 304 397 304 495 335 c 1,6,7
 383 458 383 458 290 459 c 1,8,-1
 248 455 l 1,9,-1
 246 453 l 1,10,-1
 213 453 l 1,11,12
 267 562 267 562 376 742 c 1,13,14
 450 816 450 816 556 822 c 0,15,16
 573 823 573 823 607 823 c 0,17,18
 709 822 709 822 813.5 756 c 128,-1,19
 918 690 918 690 918 596 c 0,20,21
 918 580 918 580 892.5 509.5 c 128,-1,22
 867 439 867 439 821 373 c 1,23,-1
 821 362 l 1,24,25
 887 304 887 304 1022 304 c 2,26,-1
 1089 304 l 1,27,-1
 1089 0 l 1,28,-1
 946 0 l 2,29,30
 724 0 724 0 616 124 c 1,31,-1
 612 125 l 1,32,33
 430 0 430 0 142 0 c 2,34,-1
 -16 0 l 2,0,1
EndSplineSet
EndChar

StartChar: uni0643.isol
Encoding: 65241 65241 175
Width: 1596
VWidth: 2081
Flags: MW
LayerCount: 2
Fore
SplineSet
675 514 m 0,0,1
 616 475 616 475 606 471 c 128,-1,2
 596 467 596 467 579 467.5 c 128,-1,3
 562 468 562 468 557 476 c 1,4,-1
 557 489 l 1,5,6
 594 561 594 561 698 646 c 1,7,-1
 698 650 l 1,8,9
 588 737 588 737 570 805 c 1,10,11
 612 923 612 923 642 960 c 128,-1,12
 672 997 672 997 700 1015 c 0,13,14
 797 1078 797 1078 873.5 1078.5 c 128,-1,15
 950 1079 950 1079 980 1065 c 1,16,-1
 980 870 l 1,17,-1
 905 899 l 2,18,19
 813 934 813 934 735 921 c 1,20,21
 769 856 769 856 784 841 c 0,22,23
 833 794 833 794 923 769 c 1,24,-1
 931 769 l 1,25,26
 946 775 946 775 982 788.5 c 128,-1,27
 1018 802 1018 802 1094 825 c 1,28,29
 1076 759 1076 759 1054 705 c 2,30,-1
 1036 660 l 1,31,-1
 988 649 l 2,32,33
 826 613 826 613 675 514 c 0,0,1
1315 9 m 1,34,35
 1152 -2 1152 -2 393 -1 c 0,36,37
 280 0 280 0 202 66 c 0,38,39
 100 154 100 154 100 304 c 2,40,-1
 100 318 l 2,41,42
 100 525 100 525 193 711 c 0,43,44
 193 712 193 712 195 714 c 0,45,46
 207 748 207 748 253 780 c 0,47,48
 314 821 314 821 288 760 c 0,49,50
 274 724 274 724 264 650 c 0,51,52
 237 435 237 435 340 347 c 1,53,54
 416 285 416 285 626.5 277 c 128,-1,55
 837 269 837 269 1271 277 c 1,56,-1
 1153 1125 l 1,57,-1
 1176 1147 l 2,58,59
 1212 1181 1212 1181 1274.5 1243 c 128,-1,60
 1337 1305 1337 1305 1363 1323 c 2,61,-1
 1397 1346 l 1,62,-1
 1496 227 l 1,63,-1
 1429 80 l 1,64,-1
 1315 9 l 1,34,35
EndSplineSet
EndChar

StartChar: uni0643.fina
Encoding: 65242 65242 176
Width: 1492
VWidth: 2081
Flags: MW
AnchorPoint: "Above" 812 1164 basechar 0
AnchorPoint: "Below" 746 -216 basechar 0
LayerCount: 2
Fore
SplineSet
675 515 m 0,0,1
 616 476 616 476 606 472 c 128,-1,2
 596 468 596 468 579 468.5 c 128,-1,3
 562 469 562 469 557 477 c 1,4,-1
 557 490 l 1,5,6
 594 562 594 562 698 647 c 1,7,-1
 698 651 l 1,8,9
 588 738 588 738 570 806 c 1,10,11
 612 924 612 924 642 961 c 128,-1,12
 672 998 672 998 700 1016 c 0,13,14
 797 1079 797 1079 873.5 1079.5 c 128,-1,15
 950 1080 950 1080 980 1066 c 1,16,-1
 980 871 l 1,17,-1
 905 900 l 2,18,19
 813 935 813 935 735 922 c 1,20,21
 769 857 769 857 784 842 c 0,22,23
 833 795 833 795 923 770 c 1,24,-1
 931 770 l 1,25,26
 946 776 946 776 982 789.5 c 128,-1,27
 1018 803 1018 803 1094 826 c 1,28,29
 1076 760 1076 760 1054 706 c 2,30,-1
 1036 661 l 1,31,-1
 988 650 l 2,32,33
 826 614 826 614 675 515 c 0,0,1
393 0 m 1,34,35
 280 1 280 1 202 67 c 1,36,37
 103 155 103 155 100 305 c 1,38,-1
 100 319 l 2,39,40
 100 526 100 526 193 711 c 0,41,42
 193 712 193 712 195 715 c 0,43,44
 209 753 209 753 239.5 774 c 128,-1,45
 270 795 270 795 283.5 799.5 c 128,-1,46
 297 804 297 804 297 793 c 128,-1,47
 297 782 297 782 290 764 c 0,48,49
 258 686 258 686 257 544 c 2,50,-1
 257 533 l 1,51,52
 259 417 259 417 343.5 345.5 c 128,-1,53
 428 274 428 274 542 274 c 2,54,-1
 1271 274 l 1,55,-1
 1153 1126 l 1,56,-1
 1323 1290 l 2,57,58
 1329 1296 1329 1296 1332 1300 c 2,59,-1
 1388 1356 l 1,60,-1
 1447 838 l 1,61,62
 1482 407 1482 407 1492 320 c 0,63,-1
 1492 0 l 1,64,-1
 393 0 l 1,34,35
EndSplineSet
EndChar

StartChar: uni0643.init
Encoding: 65243 65243 177
Width: 1017
VWidth: 2081
Flags: MW
AnchorPoint: "Below" 472 -216 basechar 0
AnchorPoint: "Above" 572 1320 basechar 0
LayerCount: 2
Fore
SplineSet
-16 0 m 2,0,1
 -70 0 -70 0 -70 45 c 2,2,-1
 -70 305 l 1,3,-1
 600 305 l 1,4,5
 493 397 493 397 102 633 c 1,6,7
 95 640 95 640 99.5 662 c 128,-1,8
 104 684 104 684 108.5 710.5 c 128,-1,9
 113 737 113 737 141.5 770 c 128,-1,10
 170 803 170 803 295 872.5 c 128,-1,11
 420 942 420 942 620 1016 c 128,-1,12
 820 1090 820 1090 900 1106 c 1,13,14
 897 1079 897 1079 857 942 c 2,15,-1
 845 901 l 1,16,-1
 793 884 l 2,17,18
 506 790 506 790 411 748 c 1,19,20
 522 687 522 687 706 548.5 c 128,-1,21
 890 410 890 410 914 344 c 0,22,23
 918 333 918 333 917.5 276.5 c 128,-1,24
 917 220 917 220 909.5 158.5 c 128,-1,25
 902 97 902 97 897 81 c 0,26,27
 872 0 872 0 781 0 c 2,28,-1
 -16 0 l 2,0,1
EndSplineSet
EndChar

StartChar: uni0643.medi
Encoding: 65244 65244 178
Width: 917
VWidth: 2081
Flags: MW
AnchorPoint: "Below" 456 -216 basechar 0
AnchorPoint: "Above" 556 1134 basechar 0
LayerCount: 2
Fore
SplineSet
915 0 m 1,0,-1
 -70 0 l 1,1,-1
 -70 307 l 1,2,-1
 595 307 l 1,3,4
 456 415 456 415 104 632 c 1,5,6
 95 636 95 636 99 657.5 c 128,-1,7
 103 679 103 679 108 707.5 c 128,-1,8
 113 736 113 736 141 769 c 0,9,10
 194 836 194 836 430 936 c 0,11,12
 645 1027 645 1027 872 1100 c 2,13,-1
 900 1109 l 1,14,15
 893 1066 893 1066 857 942 c 2,16,-1
 845 901 l 1,17,-1
 793 884 l 2,18,19
 531 798 531 798 412 748 c 1,20,21
 523 687 523 687 720.5 537.5 c 128,-1,22
 918 388 918 388 917 323 c 1,23,-1
 915 273 l 1,24,-1
 915 0 l 1,0,-1
EndSplineSet
EndChar

StartChar: uni0644.isol
Encoding: 65245 65245 179
Width: 1146
VWidth: 2081
Flags: MW
LayerCount: 2
Fore
SplineSet
1046 8 m 1,0,1
 1045 -91 1045 -91 899 -232 c 1,2,3
 704 -415 704 -415 448 -415 c 0,4,5
 297 -414 297 -414 198.5 -324 c 128,-1,6
 100 -234 100 -234 100 -86 c 0,7,8
 100 118 100 118 201 318 c 1,9,10
 230 379 230 379 274 407 c 0,11,12
 328 442 328 442 300 378 c 0,13,14
 261 289 261 289 261.5 155 c 128,-1,15
 262 21 262 21 338 -45.5 c 128,-1,16
 414 -112 414 -112 531 -112 c 1,17,18
 709 -111 709 -111 844 -29 c 1,19,20
 846 -23 846 -23 847 -17 c 0,21,-1
 740 1053 l 1,22,-1
 988 1286 l 1,23,-1
 1040 350 l 1,24,25
 1044 215 1044 215 1046 10 c 1,26,-1
 1046 8 l 1,0,1
EndSplineSet
EndChar

StartChar: uni0644.init
Encoding: 65247 65247 181
Width: 716
VWidth: 2081
Flags: MW
AnchorPoint: "Below" 289 -216 basechar 0
AnchorPoint: "Above" 300 1334 basechar 0
LayerCount: 2
Fore
SplineSet
-10 0 m 2,0,1
 -70 0 -70 0 -70 55 c 2,2,-1
 -70 305 l 1,3,-1
 373 306 l 1,4,5
 373 379 373 379 358 539 c 0,6,7
 329 847 329 847 328 860 c 0,8,9
 314 1022 314 1022 309 1052 c 1,10,-1
 541 1293 l 1,11,-1
 615 304 l 2,12,13
 626 150 626 150 564 50 c 2,14,-1
 533 0 l 1,15,-1
 -10 0 l 2,0,1
EndSplineSet
EndChar

StartChar: uni0644.medi
Encoding: 65248 65248 182
Width: 656
VWidth: 2081
Flags: MW
AnchorPoint: "Below" 289 -216 basechar 0
AnchorPoint: "Above" 300 1334 basechar 0
LayerCount: 2
Fore
SplineSet
-16 0 m 2,0,1
 -70 0 -70 0 -70 55 c 2,2,-1
 -70 305 l 1,3,-1
 438 305 l 1,4,-1
 347 1053 l 1,5,-1
 601 1305 l 1,6,-1
 600 1273 l 2,7,8
 598 1208 598 1208 656 310 c 1,9,-1
 656 0 l 1,10,-1
 -16 0 l 2,0,1
EndSplineSet
EndChar

StartChar: uni0645.isol
Encoding: 65249 65249 183
Width: 1023
VWidth: 2081
Flags: MW
LayerCount: 2
Fore
SplineSet
251 -745 m 1,0,1
 199 -438 199 -438 163.5 -296.5 c 128,-1,2
 128 -155 128 -155 100 -38 c 1,3,4
 120 62 120 62 193 206 c 1,5,-1
 205 218 l 2,6,7
 251 264 251 264 337 273 c 0,8,9
 352 275 352 275 405.5 277.5 c 128,-1,10
 459 280 459 280 531 289 c 1,11,12
 510 321 510 321 459 373 c 128,-1,13
 408 425 408 425 372.5 425.5 c 128,-1,14
 337 426 337 426 252.5 365 c 128,-1,15
 168 304 168 304 170 337 c 0,16,17
 170 350 170 350 184 379 c 0,18,19
 349 710 349 710 517 714 c 1,20,21
 588 713 588 713 631 675 c 0,22,23
 674 636 674 636 729 544 c 128,-1,24
 784 452 784 452 812 406 c 0,25,26
 872 308 872 308 915 306 c 1,27,-1
 923 306 l 1,28,-1
 859 93 l 2,29,30
 853 76 853 76 837 59 c 0,31,32
 781 0 781 0 661 0 c 2,33,-1
 310 0 l 2,34,35
 292 0 292 0 277 -3 c 1,36,37
 378 -308 378 -308 384 -512 c 128,-1,38
 390 -716 390 -716 312 -788 c 0,39,40
 269 -829 269 -829 251 -745 c 1,0,1
EndSplineSet
EndChar

StartChar: uni0645.fina
Encoding: 65250 65250 184
Width: 901
VWidth: 2081
Flags: MW
AnchorPoint: "Above" 550 1050 basechar 0
AnchorPoint: "Below" 535 -420 basechar 0
LayerCount: 2
Fore
SplineSet
100 -38 m 1,0,1
 120 63 120 63 193 206 c 1,2,-1
 205 218 l 2,3,4
 253 266 253 266 337 273 c 0,5,6
 352 275 352 275 405.5 277.5 c 128,-1,7
 459 280 459 280 531 289 c 1,8,9
 510 321 510 321 459 373 c 128,-1,10
 408 425 408 425 372.5 425.5 c 128,-1,11
 337 426 337 426 272 379 c 0,12,13
 168 304 168 304 170 337 c 0,14,15
 170 350 170 350 184 379 c 0,16,17
 349 710 349 710 517 714 c 1,18,19
 584 713 584 713 629 675 c 0,20,21
 674 636 674 636 729 544 c 128,-1,22
 784 452 784 452 826.5 382 c 128,-1,23
 869 312 869 312 901 306 c 1,24,-1
 901 0 l 1,25,-1
 310 0 l 2,26,27
 288 0 288 0 277 -3 c 1,28,29
 378 -308 378 -308 384 -511 c 128,-1,30
 390 -714 390 -714 312 -788 c 0,31,32
 269 -829 269 -829 251 -745 c 1,33,34
 199 -438 199 -438 163.5 -296.5 c 128,-1,35
 128 -155 128 -155 100 -38 c 1,0,1
EndSplineSet
EndChar

StartChar: uni0645.medi
Encoding: 65252 65252 186
Width: 869
VWidth: 2081
Flags: MW
AnchorPoint: "Below" 339 -216 basechar 0
AnchorPoint: "Above" 539 1033 basechar 0
LayerCount: 2
Fore
SplineSet
698 289 m 1,0,1
 644 461 644 461 561 461 c 0,2,3
 474 461 474 461 431 354 c 1,4,5
 473 307 473 307 698 289 c 1,0,1
796 655 m 1,6,7
 847 553 847 553 879.5 436.5 c 128,-1,8
 912 320 912 320 912 288 c 1,9,10
 905 176 905 176 844 54 c 2,11,-1
 817 0 l 1,12,-1
 669 0 l 2,13,14
 469 0 469 0 294 68 c 1,15,-1
 230 27 l 2,16,17
 186 -1 186 -1 105 0 c 0,18,19
 -16 0 l 2,20,21
 -70 0 -70 0 -70 55 c 2,22,-1
 -70 305 l 1,23,-1
 286 305 l 1,24,25
 305 308 305 308 317 314 c 1,26,27
 329 333 329 333 384 450.5 c 128,-1,28
 439 568 439 568 498 629 c 0,29,30
 598 733 598 733 702 734 c 1,31,32
 755 732 755 732 796 655 c 1,6,7
EndSplineSet
EndChar

StartChar: uni0647.isol
Encoding: 65257 65257 191
Width: 987
VWidth: 2081
Flags: MW
LayerCount: 2
Fore
SplineSet
653 323 m 1,0,1
 621 341 621 341 555 392 c 0,2,3
 483 448 483 448 367 543 c 1,4,5
 292 426 292 426 291 376 c 1,6,7
 292 330 292 330 347 300 c 1,8,9
 389 281 389 281 439 281 c 0,10,11
 500 281 500 281 584 301 c 0,12,13
 624 312 624 312 653 323 c 1,0,1
887 495 m 0,14,15
 887 471 887 471 877 437 c 0,16,17
 867 402 867 402 848 354 c 0,18,19
 812 262 812 262 775 212 c 2,20,-1
 767 200 l 1,21,-1
 753 189 l 2,22,23
 518 -4 518 -4 279 -5 c 0,24,25
 200 -4 200 -4 150 45 c 0,26,27
 100 93 100 93 100 171 c 0,28,29
 101 337 101 337 409 732 c 0,30,31
 431 760 431 760 459 797 c 2,32,-1
 508 864 l 1,33,-1
 528 840 l 2,34,35
 584 775 584 775 717 682 c 1,36,-1
 718 682 l 1,37,-1
 719 681 l 2,38,39
 800 628 800 628 838 587 c 1,40,41
 886 538 886 538 887 495 c 0,14,15
EndSplineSet
EndChar

StartChar: uni0647.fina
Encoding: 65258 65258 192
Width: 905
VWidth: 2081
Flags: MW
AnchorPoint: "Below" 270 -8 basechar 0
AnchorPoint: "Above" 510 1195 basechar 0
LayerCount: 2
Fore
SplineSet
547 400 m 1,0,1
 544 470 544 470 537 600 c 1,2,-1
 525 608 l 1,3,4
 366 558 366 558 321 500 c 1,5,-1
 322 492 l 1,6,7
 401 413 401 413 547 400 c 1,0,1
726 0 m 1,8,9
 648 1 648 1 608 80 c 1,10,11
 583 130 583 130 563 236 c 1,12,13
 535 180 535 180 515 156 c 0,14,15
 489 126 489 126 459 113 c 0,16,17
 450 109 450 109 445 109 c 0,18,19
 310 109 310 109 217 155 c 1,20,-1
 216 155 l 1,21,-1
 215 156 l 1,22,23
 101 207 101 207 100 282 c 1,24,25
 101 323 101 323 157 451 c 0,26,27
 205 556 205 556 250 604 c 0,28,29
 272 627 272 627 296 644 c 2,30,-1
 300 647 l 1,31,32
 336 670 336 670 484 730 c 2,33,-1
 519 744 l 1,34,-1
 514 822 l 1,35,-1
 531 840 l 2,36,37
 572 883 572 883 651 953 c 2,38,-1
 696 994 l 1,39,-1
 703 976 l 2,40,41
 706 965 706 965 712 844 c 0,42,43
 723 631 723 631 729 484 c 0,44,45
 734 369 734 369 755 334 c 1,46,47
 774 305 774 305 826 304 c 2,48,-1
 905 304 l 1,49,-1
 905 0 l 1,50,-1
 726 0 l 1,8,9
EndSplineSet
EndChar

StartChar: uni0647.init
Encoding: 65259 65259 193
Width: 1220
VWidth: 2081
Flags: MW
AnchorPoint: "Below" 575 -217 basechar 0
AnchorPoint: "Above" 675 1182 basechar 0
LayerCount: 2
Fore
SplineSet
652 319 m 1,0,1
 682 393 682 393 649 477 c 0,2,3
 633 521 633 521 610 521 c 0,4,5
 544 522 544 522 504 474.5 c 128,-1,6
 464 427 464 427 463 364 c 1,7,-1
 471 354 l 1,8,-1
 652 319 l 1,0,1
807 496 m 1,9,10
 801 384 801 384 733 305 c 1,11,-1
 735 294 l 1,12,13
 808 279 808 279 940 226 c 1,14,15
 919 390 919 390 807 496 c 1,9,10
317 304 m 1,16,17
 337 524 337 524 544 658 c 1,18,-1
 466 703 l 1,19,-1
 466 707 l 2,20,21
 466 733 466 733 503 797 c 0,22,23
 539 859 539 859 572.5 901 c 128,-1,24
 606 943 606 943 663 968 c 1,25,26
 865 858 865 858 992.5 673 c 128,-1,27
 1120 488 1120 488 1120 306 c 0,28,29
 1120 172 1120 172 1083 88.5 c 128,-1,30
 1046 5 1046 5 1034 -10 c 0,31,32
 985 -72 985 -72 950.5 -72.5 c 128,-1,33
 916 -73 916 -73 593 69 c 1,34,-1
 589 69 l 1,35,36
 420 0 420 0 339 0 c 2,37,-1
 -16 0 l 2,38,39
 -70 0 -70 0 -70 54 c 2,40,-1
 -70 304 l 1,41,-1
 317 304 l 1,16,17
EndSplineSet
EndChar

StartChar: uni0647.medi
Encoding: 65260 65260 194
Width: 832
VWidth: 2081
Flags: MW
AnchorPoint: "Below" 416 -712 basechar 0
AnchorPoint: "Above" 516 1096 basechar 0
LayerCount: 2
Fore
SplineSet
343 305 m 1,0,1
 417 309 417 309 544 373 c 1,2,3
 541 496 541 496 491 591 c 1,4,5
 371 502 371 502 333 318 c 1,6,-1
 343 305 l 1,0,1
581 -207 m 1,7,8
 570 -82 570 -82 491 -27 c 0,9,10
 422 21 422 21 314 4 c 1,11,12
 322 -21 322 -21 332 -42 c 0,13,14
 414 -225 414 -225 581 -207 c 1,7,8
679 553 m 0,15,16
 679 409 679 409 603 316 c 1,17,-1
 608 304 l 1,18,-1
 832 304 l 1,19,-1
 832 0 l 1,20,-1
 715 0 l 1,21,22
 722 -20 722 -20 725 -39 c 1,23,24
 693 -263 693 -263 667 -335 c 128,-1,25
 641 -407 641 -407 599 -449.5 c 128,-1,26
 557 -492 557 -492 518 -496 c 1,27,28
 422 -495 422 -495 317 -390 c 0,29,30
 179 -252 179 -252 152 -9 c 1,31,-1
 142 0 l 1,32,-1
 -16 0 l 2,33,34
 -70 0 -70 0 -70 54 c 2,35,-1
 -70 304 l 1,36,-1
 194 304 l 1,37,38
 243 506 243 506 396 705 c 1,39,40
 457 783 457 783 518 835 c 128,-1,41
 579 887 579 887 598 868 c 1,42,43
 622 833 622 833 650.5 735 c 128,-1,44
 679 637 679 637 679 553 c 0,15,16
EndSplineSet
EndChar

StartChar: uni0648.isol
Encoding: 65261 65261 195
Width: 984
VWidth: 2081
Flags: MW
LayerCount: 2
Fore
SplineSet
725 285 m 1,0,1
 688 482 688 482 547 481 c 0,2,3
 489 481 489 481 439 356 c 1,4,-1
 444 340 l 1,5,6
 559 265 559 265 713 265 c 1,7,-1
 725 285 l 1,0,1
885 170 m 2,8,9
 885 -99 885 -99 764 -291 c 0,10,11
 717 -365 717 -365 664 -421 c 0,12,13
 351 -745 351 -745 14 -390 c 0,14,15
 -30 -343 -30 -343 -70 -287 c 128,-1,16
 -110 -231 -110 -231 -80 -201 c 128,-1,17
 -50 -171 -50 -171 19 -211 c 1,18,19
 138 -285 138 -285 290 -284.5 c 128,-1,20
 442 -284 442 -284 546 -214 c 0,21,22
 650 -143 650 -143 702 -24 c 1,23,-1
 695 -11 l 1,24,25
 303 17 303 17 304 221 c 0,26,27
 304 351 304 351 366 493 c 0,28,29
 505 806 505 806 638 776 c 0,30,31
 715 759 715 759 785 634 c 0,32,33
 886 447 886 447 885 306 c 2,34,-1
 885 170 l 2,8,9
EndSplineSet
EndChar

StartChar: uni0649.isol
Encoding: 65263 65263 197
Width: 1478
VWidth: 2081
Flags: MW
LayerCount: 2
Fore
SplineSet
1378 753 m 0,0,1
 1378 712 1378 712 1346 605 c 0,2,3
 1345 602 1345 602 1344 596 c 0,4,5
 1338 572 1338 572 1313 547 c 2,6,-1
 1269 503 l 1,7,-1
 1255 517 l 2,8,9
 1252 520 1252 520 1246 525 c 0,10,11
 1238 532 1238 532 1227 540 c 0,12,13
 1165 576 1165 576 1135 576 c 0,14,15
 1037 575 1037 575 953 505 c 2,16,-1
 951 503 l 1,17,-1
 949 502 l 2,18,19
 894 458 894 458 857 398 c 1,20,-1
 859 388 l 1,21,22
 903 356 903 356 1116 297 c 1,23,24
 1271 256 1271 256 1290 247 c 0,25,26
 1309 237 1309 237 1310 229 c 1,27,-1
 1310 217 l 2,28,29
 1310 178 1310 178 1297 98 c 0,30,31
 1294 83 1294 83 1292 57 c 0,32,33
 1286 4 1286 4 1268 -21 c 0,34,35
 1260 -32 1260 -32 1250 -43 c 0,36,37
 1180 -114 1180 -114 1103 -171 c 0,38,39
 1028 -227 1028 -227 945 -279 c 1,40,41
 698 -426 698 -426 488 -426 c 1,42,43
 295 -425 295 -425 195 -300 c 1,44,45
 88 -171 88 -171 101 12 c 0,46,47
 122 305 122 305 263 517 c 0,48,49
 280 542 280 542 298 560 c 0,50,51
 318 580 318 580 335 590 c 0,52,53
 375 615 375 615 372 593 c 1,54,55
 365 574 365 574 364 574 c 2,56,57
 357 555 357 555 343 534 c 2,58,-1
 341 532 l 1,59,60
 245 342 245 342 244 196 c 1,61,62
 245 42 245 42 357 -44 c 0,63,64
 459 -123 459 -123 613 -124 c 0,65,66
 861 -123 861 -123 1070 4 c 1,67,68
 1059 8 1059 8 1033 17 c 2,69,-1
 838 80 l 1,70,71
 685 131 685 131 664 168 c 0,72,73
 659 177 659 177 660 186 c 0,74,75
 661 361 661 361 859 582 c 0,76,77
 878 603 878 603 895 622 c 0,78,79
 1069 803 1069 803 1224 828 c 0,80,81
 1246 831 1246 831 1266 831 c 0,82,83
 1377 829 1377 829 1378 753 c 0,0,1
EndSplineSet
EndChar

StartChar: uni0649.fina
Encoding: 65264 65264 198
Width: 1313
VWidth: 2081
Flags: MW
AnchorPoint: "Below" 614 -566 basechar 0
AnchorPoint: "Above" 714 521 basechar 0
LayerCount: 2
Fore
SplineSet
913 0 m 1,0,1
 979 -30 979 -30 1178 -140 c 0,2,3
 1201 -153 1201 -153 1201 -165 c 1,4,5
 1200 -242 1200 -242 1174 -327 c 0,6,7
 1163 -363 1163 -363 1157 -369 c 2,8,-1
 1156 -370 l 2,9,10
 1150 -379 1150 -379 1144 -385 c 0,11,12
 1040 -515 1040 -515 813 -583 c 0,13,14
 630 -637 630 -637 467 -637 c 0,15,16
 298 -636 298 -636 201 -550 c 1,17,18
 100 -457 100 -457 100 -294 c 0,19,20
 101 -60 101 -60 282 156 c 2,21,-1
 313 193 l 1,22,-1
 365 199 l 1,23,-1
 351 178 l 2,24,25
 298 98 298 98 268 21 c 0,26,27
 240 -51 240 -51 240 -111 c 0,28,29
 242 -241 242 -241 386 -301 c 1,30,31
 496 -346 496 -346 635 -347 c 0,32,33
 806 -347 806 -347 912 -323 c 1,34,35
 892 -315 892 -315 866 -306 c 0,36,37
 818 -289 818 -289 745 -258 c 0,38,39
 648 -218 648 -218 635 -195 c 0,40,41
 627 -182 627 -182 630 -171 c 0,42,43
 697 70 697 70 724 126 c 0,44,45
 734 147 734 147 748 165 c 0,46,47
 765 186 765 186 785 205 c 0,48,49
 830 245 830 245 890 265 c 0,50,51
 934 280 934 280 996 290 c 0,52,53
 1094 305 1094 305 1185 305 c 2,54,-1
 1313 305 l 1,55,-1
 1313 0 l 1,56,-1
 913 0 l 1,0,1
EndSplineSet
EndChar

StartChar: uni06440627.isol
Encoding: 65275 65275 209
Width: 1214
VWidth: 2081
Flags: MW
AnchorPoint: "BelowLig" 339 -194 baselig 1
AnchorPoint: "BelowLig" 829 -185 baselig 0
AnchorPoint: "AboveLig" 195 1333 baselig 1
AnchorPoint: "AboveLig" 892 1333 baselig 0
LayerCount: 2
Fore
SplineSet
725 273 m 1,0,1
 671 215 671 215 596 155 c 1,2,-1
 598 152 l 1,3,4
 656 157 656 157 739 171 c 1,5,6
 739 224 739 224 725 273 c 1,0,1
756 602 m 1,7,8
 790 823 790 823 745 1151 c 1,9,-1
 761 1169 l 2,10,11
 804 1217 804 1217 863 1299 c 2,12,-1
 916 1374 l 1,13,-1
 934 1342 l 2,14,15
 1001 1224 1001 1224 1114 1094 c 1,16,-1
 1092 1072 l 1,17,18
 1079 1057 1079 1057 1045 1014.5 c 128,-1,19
 1011 972 1011 972 975 927 c 2,20,-1
 934 875 l 1,21,-1
 929 877 l 1,22,23
 919 622 919 622 843 418 c 1,24,-1
 843 413 l 1,25,26
 875 274 875 274 874.5 151.5 c 128,-1,27
 874 29 874 29 858 -13 c 2,28,-1
 849 -38 l 1,29,-1
 811 -61 l 2,30,31
 784 -77 784 -77 735 -88 c 0,32,33
 566 -128 566 -128 404 -128 c 2,34,-1
 296 -128 l 1,35,36
 327 76 327 76 329 92 c 2,37,-1
 337 150 l 1,38,-1
 400 153 l 2,39,40
 454 156 454 156 500 177 c 0,41,42
 588 217 588 217 674 353 c 1,43,-1
 674 362 l 1,44,45
 507 622 507 622 355 746 c 1,46,-1
 319 687 l 1,47,-1
 290 709 l 2,48,49
 100 860 100 860 100 925 c 1,50,51
 101 1018 101 1018 217 1170 c 2,52,-1
 263 1229 l 1,53,-1
 285 1213 l 2,54,55
 502 1060 502 1060 756 602 c 1,7,8
EndSplineSet
Ligature2: "'rlig' Lam Alef Ligatures subtable" uni0644.init uni0627.fina
EndChar

StartChar: uni06440627.fina
Encoding: 65276 65276 210
Width: 1299
VWidth: 2081
Flags: MW
AnchorPoint: "BelowLig" 336 -110 baselig 1
AnchorPoint: "BelowLig" 994 -116 baselig 0
AnchorPoint: "AboveLig" 249 1333 baselig 1
AnchorPoint: "AboveLig" 1006 1333 baselig 0
LayerCount: 2
Fore
SplineSet
735 305 m 1,0,1
 846 416 846 416 846 647 c 2,2,-1
 846 670 l 1,3,-1
 837 1091 l 1,4,-1
 1047 1286 l 1,5,6
 1047 1263 1047 1263 1060 692 c 0,7,8
 1070 305 1070 305 1245 304 c 2,9,-1
 1299 304 l 1,10,-1
 1299 0 l 1,11,-1
 1172 0 l 1,12,13
 1049 1 1049 1 975 147 c 0,14,15
 931 234 931 234 911 363 c 1,16,17
 805 138 805 138 713.5 62.5 c 128,-1,18
 622 -13 622 -13 540 -28.5 c 128,-1,19
 458 -44 458 -44 342.5 -44 c 128,-1,20
 227 -44 227 -44 168 -46 c 128,-1,21
 109 -48 109 -48 104.5 -42 c 128,-1,22
 100 -36 100 -36 100 -33 c 0,23,24
 100 17 100 17 250 58 c 1,25,26
 505 132 505 132 612 209 c 1,27,-1
 612 393 l 1,28,29
 610 518 610 518 403 729 c 1,30,31
 361 675 361 675 332.5 676 c 128,-1,32
 304 677 304 677 220.5 781.5 c 128,-1,33
 137 886 137 886 137 926.5 c 128,-1,34
 137 967 137 967 166 1040 c 0,35,36
 228 1200 228 1200 315 1202 c 1,37,38
 381 1202 381 1202 588 942 c 0,39,40
 726 771 726 771 739.5 636.5 c 128,-1,41
 753 502 753 502 730 308 c 1,42,-1
 735 305 l 1,0,1
EndSplineSet
Ligature2: "'rlig' Lam Alef Ligatures subtable" uni0644.medi uni0627.fina
EndChar

StartChar: uni0621.small
Encoding: 65536 -1 211
Width: 457
VWidth: 2081
Flags: MW
LayerCount: 2
Fore
SplineSet
120 715 m 1,0,1
 222 782 222 782 296.5 782 c 128,-1,2
 371 782 371 782 406 768 c 1,3,-1
 406 573 l 1,4,-1
 331 602 l 2,5,6
 238 638 238 638 161 623 c 1,7,8
 196 557 196 557 210 543 c 0,9,10
 259 496 259 496 349 472 c 1,11,-1
 356 472 l 1,12,13
 407 492 407 492 520 527 c 1,14,15
 502 461 502 461 480 407 c 2,16,-1
 462 362 l 1,17,-1
 413 351 l 2,18,19
 251 316 251 316 101 217 c 0,20,21
 29 170 29 170 19.5 170 c 128,-1,22
 10 170 10 170 2 171 c 1,23,24
 -39 214 -39 214 124 347 c 1,25,-1
 124 353 l 1,26,27
 14 439 14 439 -4 507 c 1,28,29
 38 626 38 626 65 659 c 128,-1,30
 92 692 92 692 120 715 c 1,0,1
EndSplineSet
EndChar

StartChar: madda.small
Encoding: 65537 -1 212
Width: 544
Flags: MW
LayerCount: 2
Fore
SplineSet
389 -14 m 0,0,1
 313 -14 313 -14 223 10 c 0,2,3
 60 54 60 54 -35 -39 c 1,4,5
 0 93 0 93 74 143 c 0,6,7
 164 204 164 204 269 164 c 0,8,9
 472 86 472 86 583 222 c 1,10,-1
 583 176 l 1,11,12
 521 -14 521 -14 389 -14 c 0,0,1
EndSplineSet
EndChar

StartChar: zero
Encoding: 48 48 213
Width: 1024
Flags: MW
LayerCount: 2
Fore
SplineSet
49 696 m 0,0,1
 49 978 49 978 167 1179 c 0,2,3
 269 1352 269 1352 421 1396 c 0,4,5
 466 1409 466 1409 512 1409 c 0,6,7
 680 1409 680 1409 805 1255 c 0,8,9
 938 1091 938 1091 968 824 c 0,10,11
 975 758 975 758 975 690 c 0,12,13
 975 395 975 395 854 194 c 0,14,15
 750 21 750 21 593 -18 c 0,16,17
 554 -27 554 -27 514 -27 c 0,18,19
 335 -27 335 -27 209 134 c 0,20,21
 74 308 74 308 53 598 c 0,22,23
 49 647 49 647 49 696 c 0,0,1
514 31 m 0,24,25
 589 31 589 31 620 137 c 0,26,27
 651 240 651 240 651 455 c 2,28,-1
 651 924 l 2,29,30
 651 1247 651 1247 579 1323 c 0,31,32
 550 1352 550 1352 510 1352 c 0,33,34
 433 1352 433 1352 402 1244 c 0,35,36
 373 1144 373 1144 373 924 c 2,37,-1
 373 455 l 2,38,39
 373 150 373 150 435 70 c 0,40,41
 466 31 466 31 514 31 c 0,24,25
EndSplineSet
Substitution2: "'locl' Arabic Localized Forms subtable" uni0660
EndChar

StartChar: one
Encoding: 49 49 214
Width: 1024
Flags: MW
LayerCount: 2
Fore
SplineSet
307 1184 m 0,0,1
 269 1184 269 1184 158 1142 c 0,2,3
 141 1136 141 1136 133 1133 c 1,4,-1
 133 1186 l 1,5,-1
 649 1409 l 1,6,-1
 684 1409 l 1,7,-1
 684 242 l 2,8,9
 684 132 684 132 717 95 c 0,10,11
 751 57 751 57 861 51 c 0,12,13
 881 50 881 50 905 49 c 1,14,-1
 905 0 l 1,15,-1
 137 0 l 1,16,-1
 137 49 l 1,17,18
 281 50 281 50 329 84 c 0,19,20
 375 117 375 117 380 212 c 0,21,22
 381 232 381 232 381 254 c 2,23,-1
 381 1042 l 1,24,25
 379 1182 379 1182 307 1184 c 0,0,1
EndSplineSet
Substitution2: "'locl' Arabic Localized Forms subtable" uni0661
EndChar

StartChar: two
Encoding: 50 50 215
Width: 1024
Flags: MW
LayerCount: 2
Fore
SplineSet
63 991 m 1,0,1
 191 1336 191 1336 410 1396 c 0,2,3
 459 1409 459 1409 514 1409 c 0,4,5
 684 1409 684 1409 791 1299 c 0,6,7
 892 1193 892 1193 893 1034 c 0,8,9
 893 853 893 853 749 682 c 0,10,11
 710 636 710 636 659 588 c 2,12,-1
 328 272 l 1,13,-1
 637 272 l 2,14,15
 781 272 781 272 826 291 c 0,16,17
 871 309 871 309 901 367 c 0,18,19
 913 391 913 391 930 432 c 1,20,-1
 979 432 l 1,21,-1
 887 0 l 1,22,-1
 35 0 l 1,23,-1
 35 47 l 1,24,25
 407 444 407 444 523 635 c 0,26,27
 610 778 610 778 614 902 c 0,28,29
 614 909 614 909 614 915 c 0,30,31
 614 1027 614 1027 542 1104 c 0,32,33
 473 1176 473 1176 371 1176 c 0,34,35
 240 1176 240 1176 159 1057 c 0,36,37
 139 1028 139 1028 121 991 c 1,38,-1
 63 991 l 1,0,1
EndSplineSet
Substitution2: "'locl' Arabic Localized Forms subtable" uni0662
EndChar

StartChar: three
Encoding: 51 51 216
Width: 1024
Flags: MW
LayerCount: 2
Fore
SplineSet
725 315 m 0,0,1
 725 506 725 506 561 616 c 0,2,3
 478 671 478 671 313 729 c 1,4,-1
 313 764 l 1,5,6
 490 819 490 819 544 900 c 0,7,8
 579 953 579 953 580 1032 c 0,9,10
 580 1158 580 1158 490 1213 c 0,11,12
 439 1243 439 1243 371 1243 c 0,13,14
 266 1243 266 1243 194 1169 c 0,15,16
 158 1132 158 1132 119 1071 c 1,17,-1
 76 1096 l 1,18,19
 239 1401 239 1401 530 1409 c 0,20,21
 538 1409 538 1409 545 1409 c 0,22,23
 745 1409 745 1409 830 1292 c 0,24,25
 879 1224 879 1224 879 1128 c 0,26,27
 879 1024 879 1024 828 963 c 0,28,29
 790 918 790 918 709 868 c 1,30,31
 957 755 957 755 958 504 c 0,32,33
 958 310 958 310 820 164 c 0,34,35
 685 21 685 21 475 -18 c 0,36,37
 411 -29 411 -29 346 -29 c 0,38,39
 167 -29 167 -29 82 49 c 0,40,41
 33 95 33 95 33 156 c 0,42,43
 33 226 33 226 95 258 c 0,44,45
 127 274 127 274 166 274 c 0,46,47
 243 274 243 274 326 201 c 0,48,49
 339 190 339 190 362 167 c 0,50,51
 430 103 430 103 468 86 c 0,52,53
 496 74 496 74 524 74 c 0,54,55
 638 74 638 74 692 171 c 0,56,57
 725 231 725 231 725 315 c 0,0,1
EndSplineSet
Substitution2: "'locl' Arabic Localized Forms subtable" uni0663
EndChar

StartChar: four
Encoding: 52 52 217
Width: 1024
Flags: MW
LayerCount: 2
Fore
SplineSet
844 522 m 1,0,-1
 973 522 l 1,1,-1
 973 295 l 1,2,-1
 844 295 l 1,3,-1
 844 0 l 1,4,-1
 547 0 l 1,5,-1
 547 295 l 1,6,-1
 39 295 l 1,7,-1
 39 526 l 1,8,9
 196 774 196 774 506 1181 c 0,10,11
 532 1215 532 1215 559 1251 c 2,12,-1
 680 1409 l 1,13,-1
 844 1409 l 1,14,-1
 844 522 l 1,0,-1
551 522 m 1,15,-1
 551 1130 l 1,16,-1
 123 522 l 1,17,-1
 551 522 l 1,15,-1
EndSplineSet
Substitution2: "'locl' Arabic Localized Forms subtable" uni0664
EndChar

StartChar: five
Encoding: 53 53 218
Width: 1024
Flags: MW
LayerCount: 2
Fore
SplineSet
172 287 m 0,0,1
 242 287 242 287 341 219 c 0,2,3
 352 211 352 211 375 195 c 0,4,5
 464 131 464 131 511 117 c 0,6,7
 536 110 536 110 559 109 c 0,8,9
 657 109 657 109 717 182 c 0,10,11
 763 239 763 239 764 313 c 0,12,13
 764 445 764 445 639 540 c 0,14,15
 569 592 569 592 473 623 c 0,16,17
 370 656 370 656 183 672 c 0,18,19
 147 675 147 675 104 678 c 1,20,-1
 303 1384 l 1,21,-1
 963 1384 l 1,22,-1
 874 1124 l 1,23,-1
 305 1124 l 1,24,-1
 260 958 l 1,25,26
 460 946 460 946 539 926 c 0,27,28
 554 922 554 922 569 918 c 0,29,30
 774 860 774 860 866 701 c 0,31,32
 924 600 924 600 924 477 c 0,33,34
 924 275 924 275 781 140 c 0,35,36
 636 2 636 2 402 -14 c 0,37,38
 374 -16 374 -16 346 -16 c 0,39,40
 168 -16 168 -16 88 63 c 0,41,42
 45 107 45 107 45 164 c 0,43,44
 45 235 45 235 103 269 c 0,45,46
 134 287 134 287 172 287 c 0,0,1
EndSplineSet
Substitution2: "'locl' Arabic Localized Forms subtable" uni0665
EndChar

StartChar: six
Encoding: 54 54 219
Width: 1024
Flags: MW
LayerCount: 2
Fore
SplineSet
963 1409 m 1,0,-1
 963 1356 l 1,1,2
 655 1293 655 1293 515 1067 c 0,3,4
 453 966 453 966 418 827 c 1,5,6
 500 862 500 862 590 862 c 0,7,8
 780 862 780 862 885 734 c 0,9,10
 973 625 973 625 973 455 c 0,11,12
 973 251 973 251 854 116 c 0,13,14
 740 -14 740 -14 563 -26 c 0,15,16
 547 -27 547 -27 532 -27 c 0,17,18
 321 -27 321 -27 191 128 c 0,19,20
 57 290 57 290 57 559 c 0,21,22
 57 892 57 892 287 1119 c 0,23,24
 342 1173 342 1173 408 1219 c 0,25,26
 550 1315 550 1315 703 1358 c 0,27,28
 805 1386 805 1386 963 1409 c 1,0,-1
377 496 m 0,29,30
 377 144 377 144 453 62 c 0,31,32
 485 29 485 29 537 29 c 0,33,34
 606 29 606 29 632 78 c 0,35,36
 662 137 662 137 662 332 c 0,37,38
 662 616 662 616 604 706 c 1,39,40
 562 769 562 769 477 770 c 0,41,42
 422 770 422 770 404 745 c 0,43,44
 380 711 380 711 378 569 c 0,45,46
 377 538 377 538 377 496 c 0,29,30
EndSplineSet
Substitution2: "'locl' Arabic Localized Forms subtable" uni0666
EndChar

StartChar: seven
Encoding: 55 55 220
Width: 1024
Flags: MW
LayerCount: 2
Fore
SplineSet
977 1384 m 1,0,-1
 496 0 l 1,1,-1
 301 0 l 1,2,-1
 711 1104 l 1,3,-1
 287 1104 l 2,4,5
 188 1104 188 1104 142 1049 c 0,6,7
 110 1010 110 1010 86 930 c 1,8,-1
 35 930 l 1,9,-1
 125 1384 l 1,10,-1
 977 1384 l 1,0,-1
EndSplineSet
Substitution2: "'locl' Arabic Localized Forms subtable" uni0667
EndChar

StartChar: eight
Encoding: 56 56 221
Width: 1024
Flags: MW
LayerCount: 2
Fore
SplineSet
57 322 m 0,0,1
 57 507 57 507 222 602 c 0,2,3
 279 635 279 635 365 664 c 1,4,5
 171 780 171 780 113 901 c 0,6,7
 81 969 81 969 80 1051 c 0,8,9
 80 1217 80 1217 213 1316 c 0,10,11
 339 1409 339 1409 539 1409 c 0,12,13
 757 1409 757 1409 864 1299 c 0,14,15
 938 1223 938 1223 938 1112 c 0,16,17
 938 983 938 983 819 903 c 0,18,19
 757 862 757 862 659 827 c 1,20,21
 860 699 860 699 926 569 c 0,22,23
 967 486 967 486 967 383 c 0,24,25
 967 196 967 196 833 83 c 0,26,27
 703 -27 703 -27 492 -27 c 0,28,29
 280 -27 280 -27 159 84 c 0,30,31
 57 179 57 179 57 322 c 0,0,1
610 864 m 1,32,33
 675 950 675 950 688 1016 c 0,34,35
 694 1050 694 1050 694 1098 c 0,36,37
 694 1279 694 1279 593 1332 c 0,38,39
 558 1350 558 1350 514 1350 c 0,40,41
 429 1350 429 1350 379 1285 c 0,42,43
 344 1239 344 1239 344 1180 c 0,44,45
 344 1041 344 1041 511 923 c 0,46,47
 556 892 556 892 610 864 c 1,32,33
410 627 m 1,48,49
 331 511 331 511 314 432 c 0,50,51
 305 388 305 388 305 330 c 0,52,53
 305 140 305 140 401 71 c 0,54,55
 445 40 445 40 504 39 c 0,56,57
 614 39 614 39 659 137 c 0,58,59
 682 189 682 189 682 260 c 0,60,61
 682 368 682 368 636 435 c 0,62,63
 589 504 589 504 440 607 c 0,64,65
 425 617 425 617 410 627 c 1,48,49
EndSplineSet
Substitution2: "'locl' Arabic Localized Forms subtable" uni0668
EndChar

StartChar: nine
Encoding: 57 57 222
Width: 1024
Flags: MW
LayerCount: 2
Fore
SplineSet
63 -27 m 1,0,-1
 63 27 l 1,1,2
 339 82 339 82 479 272 c 0,3,4
 563 386 563 386 612 559 c 1,5,6
 537 520 537 520 426 520 c 0,7,8
 251 520 251 520 147 642 c 0,9,10
 53 754 53 754 53 926 c 0,11,12
 53 1132 53 1132 173 1268 c 0,13,14
 289 1399 289 1399 469 1408 c 0,15,16
 482 1409 482 1409 494 1409 c 0,17,18
 705 1409 705 1409 835 1254 c 0,19,20
 969 1092 969 1092 969 823 c 0,21,22
 969 474 969 474 715 241 c 0,23,24
 683 212 683 212 649 186 c 0,25,26
 507 79 507 79 348 31 c 0,27,28
 237 -2 237 -2 63 -27 c 1,0,-1
649 938 m 0,29,30
 649 1274 649 1274 552 1337 c 0,31,32
 525 1354 525 1354 489 1354 c 0,33,34
 420 1354 420 1354 395 1305 c 0,35,36
 365 1247 365 1247 365 1055 c 0,37,38
 365 756 365 756 429 666 c 1,39,40
 469 612 469 612 539 612 c 0,41,42
 623 612 623 612 631 652 c 0,43,44
 632 656 632 656 633 672 c 2,45,-1
 639 725 l 1,46,47
 649 878 649 878 649 938 c 0,29,30
EndSplineSet
Substitution2: "'locl' Arabic Localized Forms subtable" uni0669
EndChar

StartChar: guillemotleft
Encoding: 171 171 223
Width: 1024
Flags: MW
LayerCount: 2
Fore
SplineSet
727 465 m 1,0,1
 749 433 749 433 859 293 c 0,2,3
 962 162 962 162 968 113 c 0,4,5
 969 108 969 108 969 104 c 0,6,7
 969 79 969 79 949 75 c 0,8,9
 946 74 946 74 944 74 c 0,10,11
 916 75 916 75 870 121 c 1,12,-1
 449 461 l 1,13,-1
 449 469 l 1,14,-1
 864 805 l 2,15,16
 867 807 867 807 876 815 c 0,17,18
 916 850 916 850 940 850 c 1,19,20
 964 848 964 848 965 827 c 1,21,22
 965 767 965 767 779 531 c 0,23,24
 735 475 735 475 727 465 c 1,0,1
326 465 m 1,25,26
 348 433 348 433 456 295 c 0,27,28
 559 163 559 163 566 113 c 0,29,30
 567 108 567 108 567 104 c 0,31,32
 563 78 563 78 543 74 c 1,33,34
 515 75 515 75 469 121 c 1,35,-1
 47 461 l 1,36,-1
 47 469 l 1,37,-1
 463 805 l 2,38,39
 466 807 466 807 475 815 c 0,40,41
 515 850 515 850 539 850 c 1,42,43
 562 848 562 848 563 827 c 1,44,45
 563 766 563 766 375 528 c 0,46,47
 334 475 334 475 326 465 c 1,25,26
EndSplineSet
Substitution2: "'locl' Arabic Localized Forms subtable" guillemotleft.locl
EndChar

StartChar: guillemotright
Encoding: 187 187 224
Width: 1024
Flags: MW
LayerCount: 2
Fore
SplineSet
297 459 m 1,0,1
 286 475 286 475 182 607 c 0,2,3
 56 768 56 768 55 819 c 0,4,5
 55 843 55 843 72 849 c 0,6,7
 75 850 75 850 78 850 c 0,8,9
 108 849 108 849 154 803 c 1,10,-1
 575 463 l 1,11,-1
 575 455 l 1,12,-1
 147 109 l 1,13,14
 107 74 107 74 84 74 c 1,15,16
 60 76 60 76 59 96 c 1,17,18
 59 158 59 158 222 363 c 0,19,20
 236 380 236 380 250 397 c 2,21,-1
 297 459 l 1,0,1
698 459 m 1,22,23
 687 475 687 475 584 606 c 0,24,25
 458 768 458 768 457 819 c 1,26,27
 461 846 461 846 481 850 c 1,28,29
 502 850 502 850 551 806 c 0,30,31
 554 804 554 804 555 803 c 2,32,-1
 977 463 l 1,33,-1
 977 455 l 1,34,-1
 561 119 l 1,35,36
 517 77 517 77 485 74 c 1,37,38
 462 76 462 76 461 96 c 1,39,40
 461 154 461 154 599 334 c 0,41,42
 623 366 623 366 649 397 c 2,43,-1
 698 459 l 1,22,23
EndSplineSet
Substitution2: "'locl' Arabic Localized Forms subtable" guillemotright.locl
EndChar

StartChar: exclam.locl
Encoding: 65538 -1 225
Width: 641
VWidth: 2081
Flags: MW
LayerCount: 2
Fore
SplineSet
504 145 m 1,0,-1
 385 -126 l 1,1,-1
 220 41 l 1,2,-1
 337 312 l 1,3,-1
 504 145 l 1,0,-1
419 378 m 1,4,-1
 304 369 l 1,5,-1
 304 376 l 2,6,7
 304 426 304 426 266.5 706 c 128,-1,8
 229 986 229 986 179 1222 c 1,9,-1
 397 1486 l 1,10,-1
 400 1444 l 2,11,12
 457 813 457 813 424 434 c 2,13,-1
 419 378 l 1,4,-1
EndSplineSet
EndChar

StartChar: period.locl
Encoding: 65539 -1 226
Width: 732
VWidth: 2081
Flags: MW
LayerCount: 2
Fore
SplineSet
534 203 m 1,0,-1
 436 -136 l 1,1,-1
 188 17 l 1,2,-1
 286 356 l 1,3,-1
 534 203 l 1,0,-1
EndSplineSet
Substitution2: "Decimal separator subtable" uni066B
EndChar

StartChar: period
Encoding: 46 46 227
Width: 512
Flags: MW
LayerCount: 2
Fore
SplineSet
256 319 m 0,0,1
 339 319 339 319 391 253 c 0,2,3
 429 204 429 204 430 143 c 0,4,5
 430 62 430 62 365 11 c 0,6,7
 316 -26 316 -26 254 -27 c 0,8,9
 169 -27 169 -27 119 39 c 0,10,11
 84 86 84 86 84 147 c 0,12,13
 84 225 84 225 146 278 c 0,14,15
 195 319 195 319 256 319 c 0,0,1
EndSplineSet
Substitution2: "'locl' Arabic Localized Forms subtable" period.locl
EndChar

StartChar: colon.locl
Encoding: 65540 -1 228
Width: 733
VWidth: 2081
Flags: MW
LayerCount: 2
Fore
SplineSet
176 783 m 1,0,-1
 355 1091 l 1,1,-1
 546 895 l 1,2,-1
 367 586 l 1,3,-1
 176 783 l 1,0,-1
181 54 m 1,4,-1
 360 362 l 1,5,-1
 551 166 l 1,6,-1
 372 -143 l 1,7,-1
 181 54 l 1,4,-1
EndSplineSet
EndChar

StartChar: exclam
Encoding: 33 33 229
Width: 681
Flags: MW
LayerCount: 2
Fore
SplineSet
340 319 m 0,0,1
 423 319 423 319 475 253 c 0,2,3
 513 204 513 204 514 143 c 0,4,5
 514 62 514 62 449 11 c 0,6,7
 400 -26 400 -26 338 -27 c 0,8,9
 253 -27 253 -27 203 39 c 0,10,11
 168 86 168 86 168 147 c 0,12,13
 168 225 168 225 230 278 c 0,14,15
 279 319 279 319 340 319 c 0,0,1
512 1206 m 0,16,17
 512 1142 512 1142 483 1053 c 0,18,19
 433 899 433 899 408 763 c 0,20,21
 385 638 385 638 369 479 c 1,22,-1
 309 479 l 1,23,24
 276 793 276 793 206 1018 c 0,25,26
 172 1127 172 1127 168 1170 c 0,27,28
 166 1190 166 1190 166 1210 c 0,29,30
 166 1355 166 1355 261 1399 c 0,31,32
 295 1415 295 1415 340 1415 c 0,33,34
 458 1415 458 1415 496 1307 c 0,35,36
 512 1263 512 1263 512 1206 c 0,16,17
EndSplineSet
Substitution2: "'locl' Arabic Localized Forms subtable" exclam.locl
EndChar

StartChar: quotedbl
Encoding: 34 34 230
Width: 1136
Flags: MW
LayerCount: 2
Fore
SplineSet
260 827 m 1,0,1
 254 854 254 854 237 925 c 0,2,3
 170 1210 170 1210 170 1270 c 0,4,5
 170 1361 170 1361 234 1398 c 0,6,7
 264 1415 264 1415 301 1415 c 0,8,9
 373 1415 373 1415 411 1356 c 0,10,11
 433 1321 433 1321 434 1278 c 0,12,13
 434 1212 434 1212 344 827 c 1,14,-1
 260 827 l 1,0,1
793 827 m 1,15,16
 720 1139 720 1139 708 1211 c 0,17,18
 702 1251 702 1251 702 1270 c 0,19,20
 702 1360 702 1360 766 1397 c 0,21,22
 797 1415 797 1415 834 1415 c 0,23,24
 906 1415 906 1415 944 1356 c 0,25,26
 966 1321 966 1321 967 1278 c 0,27,28
 967 1214 967 1214 877 827 c 1,29,-1
 793 827 l 1,15,16
EndSplineSet
EndChar

StartChar: numbersign
Encoding: 35 35 231
Width: 1024
Flags: MW
LayerCount: 2
Fore
SplineSet
956 580 m 1,0,-1
 956 430 l 1,1,-1
 756 430 l 1,2,-1
 696 0 l 1,3,-1
 537 0 l 1,4,-1
 596 430 l 1,5,-1
 365 430 l 1,6,-1
 305 0 l 1,7,-1
 145 0 l 1,8,-1
 205 430 l 1,9,-1
 8 430 l 1,10,-1
 8 580 l 1,11,-1
 227 580 l 1,12,-1
 264 854 l 1,13,-1
 68 854 l 1,14,-1
 68 1004 l 1,15,-1
 285 1004 l 1,16,-1
 346 1434 l 1,17,-1
 504 1434 l 1,18,-1
 444 1004 l 1,19,-1
 676 1004 l 1,20,-1
 737 1434 l 1,21,-1
 895 1434 l 1,22,-1
 836 1004 l 1,23,-1
 1016 1004 l 1,24,-1
 1016 854 l 1,25,-1
 815 854 l 1,26,-1
 778 580 l 1,27,-1
 956 580 l 1,0,-1
655 854 m 1,28,-1
 424 854 l 1,29,-1
 387 580 l 1,30,-1
 618 580 l 1,31,-1
 655 854 l 1,28,-1
EndSplineSet
EndChar

StartChar: dollar
Encoding: 36 36 232
Width: 1024
Flags: MW
LayerCount: 2
Fore
SplineSet
59 1016 m 0,0,1
 59 1204 59 1204 211 1302 c 0,2,3
 303 1361 303 1361 438 1376 c 1,4,-1
 438 1536 l 1,5,-1
 551 1536 l 1,6,-1
 551 1380 l 1,7,8
 721 1351 721 1351 808 1311 c 0,9,10
 841 1296 841 1296 877 1274 c 1,11,-1
 877 985 l 1,12,-1
 834 985 l 1,13,14
 778 1179 778 1179 683 1253 c 0,15,16
 629 1295 629 1295 551 1313 c 1,17,-1
 551 872 l 1,18,19
 715 787 715 787 777 743 c 0,20,21
 933 632 933 632 960 480 c 0,22,23
 967 442 967 442 967 401 c 0,24,25
 967 200 967 200 835 104 c 0,26,27
 738 34 738 34 551 0 c 1,28,-1
 551 -203 l 1,29,-1
 438 -203 l 1,30,-1
 438 0 l 1,31,32
 322 5 322 5 239 32 c 0,33,34
 187 49 187 49 94 88 c 1,35,-1
 94 408 l 1,36,-1
 137 403 l 1,37,38
 197 202 197 202 289 126 c 0,39,40
 348 78 348 78 436 61 c 1,41,-1
 436 575 l 1,42,43
 197 695 197 695 116 817 c 0,44,45
 59 904 59 904 59 1016 c 0,0,1
551 512 m 1,46,-1
 551 61 l 1,47,48
 711 92 711 92 736 219 c 0,49,50
 741 245 741 245 741 274 c 0,51,52
 741 355 741 355 711 396 c 0,53,54
 678 440 678 440 559 508 c 0,55,56
 555 510 555 510 551 512 c 1,46,-1
436 930 m 1,57,-1
 436 1319 l 1,58,59
 301 1284 301 1284 268 1209 c 0,60,61
 254 1177 254 1177 254 1135 c 0,62,63
 256 994 256 994 436 930 c 1,57,-1
EndSplineSet
EndChar

StartChar: percent
Encoding: 37 37 233
Width: 2048
Flags: MW
LayerCount: 2
Fore
SplineSet
1796 526 m 0,0,1
 1796 430 1796 430 1752 304 c 0,2,3
 1673 79 1673 79 1517 4 c 0,4,5
 1448 -29 1448 -29 1368 -29 c 0,6,7
 1225 -29 1225 -29 1150 73 c 0,8,9
 1096 148 1096 148 1096 256 c 0,10,11
 1096 415 1096 415 1205 560 c 0,12,13
 1305 692 1305 692 1441 741 c 0,14,15
 1501 762 1501 762 1559 762 c 0,16,17
 1690 762 1690 762 1754 670 c 0,18,19
 1796 610 1796 610 1796 526 c 0,0,1
1436 66 m 0,20,21
 1526 66 1526 66 1614 189 c 0,22,23
 1696 303 1696 303 1722 437 c 0,24,25
 1729 476 1729 476 1729 510 c 0,26,27
 1729 595 1729 595 1679 636 c 0,28,29
 1653 657 1653 657 1622 657 c 0,30,31
 1523 657 1523 657 1431 481 c 0,32,33
 1364 354 1364 354 1340 227 c 0,34,35
 1335 198 1335 198 1335 180 c 0,36,37
 1335 73 1335 73 1424 66 c 0,38,39
 1430 66 1430 66 1436 66 c 0,20,21
717 1389 m 0,40,41
 786 1389 786 1389 847 1349 c 0,42,43
 905 1310 905 1310 922 1303 c 0,44,45
 980 1276 980 1276 1061 1276 c 0,46,47
 1182 1276 1182 1276 1294 1330 c 0,48,49
 1357 1361 1357 1361 1382 1395 c 0,50,51
 1398 1416 1398 1416 1413 1417 c 2,52,-1
 1491 1417 l 1,53,-1
 684 -16 l 1,54,-1
 571 -16 l 1,55,-1
 1284 1253 l 1,56,57
 1156 1198 1156 1198 1049 1198 c 0,58,59
 1005 1198 1005 1198 952 1208 c 1,60,61
 949 932 949 932 821 762 c 0,62,63
 709 614 709 614 543 603 c 0,64,65
 530 602 530 602 518 602 c 0,66,67
 387 602 387 602 313 697 c 0,68,69
 255 773 255 773 254 881 c 0,70,71
 254 1050 254 1050 364 1195 c 0,72,73
 465 1328 465 1328 608 1372 c 0,74,75
 663 1389 663 1389 717 1389 c 0,40,41
756 1292 m 0,76,77
 716 1292 716 1292 644 1196 c 0,78,79
 549 1070 549 1070 507 928 c 0,80,81
 487 859 487 859 487 803 c 0,82,83
 487 738 487 738 536 709 c 0,84,85
 559 696 559 696 586 696 c 0,86,87
 683 696 683 696 772 829 c 0,88,89
 852 948 852 948 878 1090 c 0,90,91
 885 1131 885 1131 885 1165 c 0,92,93
 885 1226 885 1226 806 1272 c 0,94,95
 772 1291 772 1291 756 1292 c 0,76,77
EndSplineSet
Substitution2: "'locl' Arabic Localized Forms subtable" uni066A
EndChar

StartChar: ampersand
Encoding: 38 38 234
Width: 1705
Flags: MW
LayerCount: 2
Fore
SplineSet
1182 858 m 1,0,-1
 1604 858 l 1,1,-1
 1604 809 l 1,2,3
 1524 802 1524 802 1493 775 c 0,4,5
 1474 759 1474 759 1454 727 c 2,6,-1
 1399 637 l 1,7,8
 1339 540 1339 540 1214 368 c 2,9,-1
 1213 367 l 1,10,-1
 1213 366 l 1,11,-1
 1212 365 l 1,12,-1
 1211 364 l 1,13,-1
 1210 363 l 1,14,-1
 1210 362 l 1,15,-1
 1209 361 l 1,16,-1
 1208 360 l 1,17,18
 1310 230 1310 230 1366 197 c 0,19,20
 1405 174 1405 174 1452 174 c 0,21,22
 1517 174 1517 174 1563 240 c 0,23,24
 1567 246 1567 246 1571 252 c 1,25,-1
 1612 227 l 1,26,-1
 1579 174 l 2,27,28
 1538 109 1538 109 1531 100 c 0,29,30
 1430 -32 1430 -32 1278 -33 c 0,31,32
 1180 -33 1180 -33 1096 30 c 0,33,34
 1044 70 1044 70 973 147 c 1,35,36
 775 0 775 0 606 -25 c 0,37,38
 563 -31 563 -31 518 -31 c 0,39,40
 339 -31 339 -31 229 78 c 0,41,42
 128 179 128 179 127 330 c 0,43,44
 127 492 127 492 244 608 c 0,45,46
 337 701 337 701 528 795 c 1,47,48
 443 941 443 941 428 1021 c 0,49,50
 422 1055 422 1055 422 1092 c 0,51,52
 422 1260 422 1260 555 1347 c 0,53,54
 660 1415 660 1415 821 1415 c 0,55,56
 1009 1415 1009 1415 1102 1319 c 0,57,58
 1163 1255 1163 1255 1163 1165 c 0,59,60
 1163 1034 1163 1034 1020 945 c 0,61,62
 953 904 953 904 852 866 c 1,63,-1
 1161 428 l 1,64,65
 1279 574 1279 574 1304 648 c 0,66,67
 1316 686 1316 686 1317 725 c 0,68,69
 1317 768 1317 768 1297 783 c 0,70,71
 1273 799 1273 799 1182 809 c 1,72,-1
 1182 858 l 1,0,-1
412 541 m 0,73,74
 412 434 412 434 481 314 c 0,75,76
 557 183 557 183 661 141 c 0,77,78
 701 125 701 125 741 125 c 0,79,80
 810 125 810 125 910 193 c 0,81,82
 919 199 919 199 926 205 c 1,83,84
 862 289 862 289 682 556 c 1,85,-1
 681 557 l 1,86,-1
 681 558 l 1,87,-1
 680 559 l 1,88,-1
 679 560 l 1,89,-1
 679 561 l 1,90,-1
 678 562 l 1,91,-1
 677 563 l 1,92,-1
 677 564 l 1,93,-1
 676 565 l 1,94,-1
 675 566 l 1,95,-1
 675 567 l 1,96,-1
 674 568 l 1,97,-1
 673 569 l 1,98,-1
 673 570 l 1,99,-1
 672 571 l 1,100,-1
 671 572 l 1,101,-1
 671 573 l 1,102,-1
 670 574 l 1,103,-1
 669 575 l 1,104,-1
 669 576 l 1,105,-1
 668 577 l 1,106,-1
 667 578 l 1,107,-1
 667 579 l 1,108,-1
 666 580 l 1,109,-1
 665 581 l 1,110,-1
 665 582 l 1,111,-1
 664 583 l 1,112,-1
 663 584 l 1,113,-1
 662 586 l 1,114,-1
 563 733 l 1,115,116
 452 668 452 668 425 608 c 0,117,118
 412 578 412 578 412 541 c 0,73,74
813 926 m 1,119,120
 920 963 920 963 946 1029 c 0,121,122
 956 1057 956 1057 956 1092 c 0,123,124
 956 1205 956 1205 889 1284 c 0,125,126
 834 1347 834 1347 768 1348 c 0,127,128
 691 1348 691 1348 669 1280 c 0,129,130
 662 1258 662 1258 662 1233 c 0,131,132
 662 1131 662 1131 762 993 c 0,133,134
 785 961 785 961 813 926 c 1,119,120
EndSplineSet
EndChar

StartChar: quotesingle
Encoding: 39 39 235
Width: 569
Flags: MW
LayerCount: 2
Fore
SplineSet
244 827 m 1,0,1
 154 1186 154 1186 154 1270 c 0,2,3
 154 1361 154 1361 218 1398 c 0,4,5
 248 1415 248 1415 285 1415 c 0,6,7
 357 1415 357 1415 395 1356 c 0,8,9
 417 1321 417 1321 418 1278 c 0,10,11
 418 1216 418 1216 328 827 c 1,12,-1
 244 827 l 1,0,1
EndSplineSet
EndChar

StartChar: parenleft
Encoding: 40 40 236
Width: 681
Flags: MW
LayerCount: 2
Fore
SplineSet
326 528 m 0,0,1
 326 34 326 34 467 -154 c 0,2,3
 513 -215 513 -215 601 -271 c 0,4,5
 605 -274 605 -274 614 -279 c 0,6,7
 623 -285 623 -285 627 -287 c 1,8,-1
 627 -344 l 1,9,10
 441 -232 441 -232 349 -132 c 0,11,12
 296 -74 296 -74 244 6 c 1,13,14
 94 245 94 245 94 530 c 0,15,16
 94 866 94 866 282 1129 c 0,17,18
 319 1181 319 1181 362 1227 c 0,19,20
 445 1314 445 1314 540 1372 c 0,21,22
 576 1394 576 1394 627 1421 c 1,23,-1
 627 1366 l 1,24,25
 496 1278 496 1278 437 1185 c 0,26,27
 356 1057 356 1057 335 805 c 0,28,29
 326 690 326 690 326 528 c 0,0,1
EndSplineSet
EndChar

StartChar: parenright
Encoding: 41 41 237
Width: 681
Flags: MW
LayerCount: 2
Fore
SplineSet
55 1421 m 1,0,1
 280 1285 280 1285 403 1121 c 0,2,3
 587 875 587 875 588 545 c 0,4,5
 588 215 588 215 402 -46 c 0,6,7
 363 -101 363 -101 317 -150 c 0,8,9
 237 -236 237 -236 145 -293 c 0,10,11
 108 -316 108 -316 55 -344 c 1,12,-1
 55 -289 l 1,13,14
 189 -200 189 -200 249 -102 c 0,15,16
 329 27 329 27 348 281 c 0,17,18
 356 393 356 393 356 549 c 0,19,20
 356 1030 356 1030 224 1218 c 0,21,22
 177 1285 177 1285 87 1343 c 0,23,24
 81 1347 81 1347 68 1355 c 0,25,26
 59 1361 59 1361 55 1364 c 1,27,-1
 55 1421 l 1,0,1
EndSplineSet
EndChar

StartChar: asterisk
Encoding: 42 42 238
Width: 1038
Flags: MW
LayerCount: 2
Fore
SplineSet
907 1128 m 0,0,1
 907 1051 907 1051 793 1017 c 0,2,3
 770 1010 770 1010 652 987 c 0,4,5
 605 978 605 978 582 969 c 1,6,7
 604 959 604 959 712 936 c 0,8,9
 842 909 842 909 881 867 c 0,10,11
 905 840 905 840 905 805 c 0,12,13
 905 753 905 753 860 718 c 0,14,15
 831 696 831 696 799 696 c 0,16,17
 743 696 743 696 663 788 c 0,18,19
 651 801 651 801 629 828 c 0,20,21
 575 893 575 893 551 911 c 1,22,23
 555 871 555 871 588 772 c 0,24,25
 616 690 616 690 616 643 c 0,26,27
 616 581 616 581 568 552 c 0,28,29
 543 537 543 537 514 537 c 0,30,31
 449 537 449 537 420 588 c 0,32,33
 406 613 406 613 406 643 c 0,34,35
 406 692 406 692 444 790 c 0,36,37
 476 872 476 872 481 911 c 1,38,39
 458 894 458 894 388 818 c 0,40,41
 305 727 305 727 258 709 c 0,42,43
 240 703 240 703 225 702 c 0,44,45
 173 702 173 702 141 752 c 0,46,47
 123 781 123 781 123 813 c 0,48,49
 123 890 123 890 237 924 c 0,50,51
 260 931 260 931 379 953 c 0,52,53
 427 962 427 962 449 971 c 1,54,55
 427 981 427 981 319 1005 c 0,56,57
 188 1034 188 1034 150 1077 c 0,58,59
 128 1103 128 1103 127 1137 c 0,60,61
 127 1190 127 1190 171 1224 c 0,62,63
 199 1245 199 1245 231 1245 c 0,64,65
 287 1245 287 1245 365 1155 c 0,66,67
 377 1142 377 1142 400 1114 c 0,68,69
 456 1047 456 1047 481 1028 c 1,70,71
 477 1067 477 1067 442 1168 c 0,72,73
 414 1250 414 1250 414 1296 c 0,74,75
 414 1360 414 1360 463 1389 c 0,76,77
 487 1402 487 1402 516 1403 c 0,78,79
 582 1403 582 1403 611 1351 c 0,80,81
 625 1326 625 1326 625 1296 c 0,82,83
 625 1251 625 1251 586 1151 c 0,84,85
 554 1069 554 1069 549 1030 c 1,86,87
 573 1047 573 1047 643 1123 c 0,88,89
 725 1212 725 1212 772 1230 c 0,90,91
 790 1236 790 1236 805 1237 c 0,92,93
 857 1237 857 1237 889 1188 c 0,94,95
 907 1159 907 1159 907 1128 c 0,0,1
EndSplineSet
EndChar

StartChar: plus
Encoding: 43 43 239
Width: 1384
Flags: MW
LayerCount: 2
Fore
SplineSet
1257 428 m 1,0,-1
 793 428 l 1,1,-1
 793 -33 l 1,2,-1
 596 -33 l 1,3,-1
 596 428 l 1,4,-1
 127 428 l 1,5,-1
 127 625 l 1,6,-1
 596 625 l 1,7,-1
 596 1081 l 1,8,-1
 793 1081 l 1,9,-1
 793 625 l 1,10,-1
 1257 625 l 1,11,-1
 1257 428 l 1,0,-1
EndSplineSet
EndChar

StartChar: comma
Encoding: 44 44 240
Width: 512
Flags: MW
LayerCount: 2
Fore
SplineSet
279 -8 m 0,0,1
 273 -8 273 -8 267 -9 c 0,2,3
 253 -12 253 -12 229 -12 c 0,4,5
 144 -12 144 -12 103 56 c 0,6,7
 80 96 80 96 80 147 c 0,8,9
 80 246 80 246 154 292 c 0,10,11
 196 317 196 317 250 317 c 0,12,13
 359 317 359 317 416 229 c 0,14,15
 456 167 456 167 457 80 c 0,16,17
 457 -100 457 -100 301 -240 c 0,18,19
 228 -305 228 -305 117 -369 c 1,20,-1
 94 -324 l 1,21,22
 316 -170 316 -170 317 -53 c 0,23,24
 317 -15 317 -15 288 -9 c 0,25,26
 283 -8 283 -8 279 -8 c 0,0,1
EndSplineSet
EndChar

StartChar: hyphen
Encoding: 45 45 241
Width: 681
Flags: MW
LayerCount: 2
Fore
SplineSet
588 588 m 1,0,-1
 588 350 l 1,1,-1
 90 350 l 1,2,-1
 90 588 l 1,3,-1
 588 588 l 1,0,-1
EndSplineSet
EndChar

StartChar: slash
Encoding: 47 47 242
Width: 569
Flags: MW
LayerCount: 2
Fore
SplineSet
618 1415 m 1,0,-1
 135 -39 l 1,1,-1
 -49 -39 l 1,2,-1
 434 1415 l 1,3,-1
 618 1415 l 1,0,-1
EndSplineSet
EndChar

StartChar: colon
Encoding: 58 58 243
Width: 681
Flags: MW
LayerCount: 2
Fore
SplineSet
340 319 m 0,0,1
 423 319 423 319 475 253 c 0,2,3
 513 204 513 204 514 143 c 0,4,5
 514 62 514 62 449 11 c 0,6,7
 400 -26 400 -26 338 -27 c 0,8,9
 253 -27 253 -27 203 39 c 0,10,11
 168 86 168 86 168 147 c 0,12,13
 168 225 168 225 230 278 c 0,14,15
 279 319 279 319 340 319 c 0,0,1
340 967 m 0,16,17
 423 967 423 967 475 902 c 0,18,19
 513 854 513 854 514 793 c 0,20,21
 514 712 514 712 449 660 c 0,22,23
 400 622 400 622 340 621 c 0,24,25
 253 621 253 621 203 689 c 0,26,27
 169 736 169 736 168 797 c 0,28,29
 168 876 168 876 231 928 c 0,30,31
 280 967 280 967 340 967 c 0,16,17
EndSplineSet
Substitution2: "'locl' Arabic Localized Forms subtable" colon.locl
EndChar

StartChar: semicolon
Encoding: 59 59 244
Width: 681
Flags: MW
LayerCount: 2
Fore
SplineSet
313 -12 m 2,0,1
 269 -12 269 -12 227 19 c 0,2,3
 169 63 169 63 168 147 c 0,4,5
 168 246 168 246 242 292 c 0,6,7
 284 317 284 317 338 317 c 0,8,9
 447 317 447 317 504 229 c 0,10,11
 544 167 544 167 545 80 c 0,12,13
 545 -100 545 -100 389 -240 c 0,14,15
 316 -305 316 -305 205 -369 c 1,16,-1
 182 -324 l 1,17,18
 405 -169 405 -169 406 -51 c 0,19,20
 406 -22 406 -22 382 -11 c 0,21,22
 376 -8 376 -8 369 -8 c 2,23,-1
 354 -8 l 1,24,-1
 330 -12 l 1,25,-1
 313 -12 l 2,0,1
340 967 m 0,26,27
 423 967 423 967 475 902 c 0,28,29
 513 854 513 854 514 793 c 0,30,31
 514 712 514 712 449 660 c 0,32,33
 400 622 400 622 340 621 c 0,34,35
 253 621 253 621 203 689 c 0,36,37
 169 736 169 736 168 797 c 0,38,39
 168 876 168 876 231 928 c 0,40,41
 280 967 280 967 340 967 c 0,26,27
EndSplineSet
EndChar

StartChar: less
Encoding: 60 60 245
Width: 1384
Flags: MW
LayerCount: 2
Fore
SplineSet
1257 -51 m 1,0,-1
 127 479 l 1,1,-1
 127 573 l 1,2,-1
 1257 1104 l 1,3,-1
 1257 899 l 1,4,-1
 463 526 l 1,5,-1
 1257 154 l 1,6,-1
 1257 -51 l 1,0,-1
EndSplineSet
EndChar

StartChar: equal
Encoding: 61 61 246
Width: 1384
Flags: MW
LayerCount: 2
Fore
SplineSet
1257 678 m 1,0,-1
 127 678 l 1,1,-1
 127 874 l 1,2,-1
 1257 874 l 1,3,-1
 1257 678 l 1,0,-1
1257 178 m 1,4,-1
 127 178 l 1,5,-1
 127 375 l 1,6,-1
 1257 375 l 1,7,-1
 1257 178 l 1,4,-1
EndSplineSet
EndChar

StartChar: question
Encoding: 63 63 248
Width: 1024
Flags: MW
LayerCount: 2
Fore
SplineSet
309 1255 m 0,0,1
 309 1229 309 1229 338 1197 c 0,2,3
 373 1159 373 1159 381 1128 c 0,4,5
 385 1111 385 1111 385 1092 c 0,6,7
 385 1011 385 1011 323 977 c 0,8,9
 293 961 293 961 256 961 c 0,10,11
 181 961 181 961 141 1025 c 0,12,13
 117 1065 117 1065 117 1116 c 0,14,15
 117 1248 117 1248 229 1331 c 0,16,17
 337 1411 337 1411 502 1411 c 0,18,19
 706 1411 706 1411 819 1299 c 0,20,21
 910 1208 910 1208 911 1071 c 0,22,23
 911 952 911 952 840 870 c 0,24,25
 784 806 784 806 664 731 c 0,26,27
 575 676 575 676 549 639 c 0,28,29
 520 597 520 597 518 504 c 0,30,31
 518 490 518 490 518 473 c 1,32,-1
 457 473 l 1,33,34
 453 535 453 535 453 567 c 0,35,36
 453 642 453 642 503 737 c 0,37,38
 556 838 556 838 565 860 c 0,39,40
 606 960 606 960 606 1071 c 0,41,42
 606 1258 606 1258 512 1316 c 0,43,44
 477 1337 477 1337 434 1337 c 0,45,46
 350 1337 350 1337 320 1291 c 0,47,48
 309 1274 309 1274 309 1255 c 0,0,1
489 319 m 0,49,50
 569 319 569 319 622 255 c 0,51,52
 661 206 661 206 662 145 c 0,53,54
 662 62 662 62 597 10 c 0,55,56
 549 -27 549 -27 489 -27 c 0,57,58
 402 -27 402 -27 351 39 c 0,59,60
 315 86 315 86 315 147 c 0,61,62
 315 225 315 225 378 278 c 0,63,64
 428 319 428 319 489 319 c 0,49,50
EndSplineSet
EndChar

StartChar: at
Encoding: 64 64 249
Width: 1904
Flags: MW
LayerCount: 2
Fore
SplineSet
653 530 m 0,0,1
 653 622 653 622 697 744 c 0,2,3
 775 962 775 962 927 1033 c 0,4,5
 993 1063 993 1063 1069 1063 c 0,6,7
 1135 1063 1135 1063 1169 1030 c 0,8,9
 1193 1006 1193 1006 1219 954 c 1,10,-1
 1241 1036 l 1,11,-1
 1386 1036 l 1,12,-1
 1251 504 l 1,13,14
 1247 484 1247 484 1247 467 c 1,15,16
 1253 373 1253 373 1325 369 c 1,17,18
 1415 369 1415 369 1490 473 c 0,19,20
 1573 587 1573 587 1585 746 c 0,21,22
 1587 768 1587 768 1587 788 c 0,23,24
 1587 974 1587 974 1457 1124 c 0,25,26
 1333 1268 1333 1268 1145 1316 c 0,27,28
 1070 1335 1070 1335 995 1335 c 0,29,30
 768 1335 768 1335 609 1182 c 0,31,32
 452 1031 452 1031 418 786 c 0,33,34
 410 727 410 727 410 666 c 0,35,36
 410 422 410 422 556 254 c 0,37,38
 697 93 697 93 924 62 c 0,39,40
 973 55 973 55 1022 55 c 0,41,42
 1171 55 1171 55 1317 109 c 0,43,44
 1368 128 1368 128 1430 156 c 1,45,-1
 1456 84 l 1,46,47
 1256 -11 1256 -11 1126 -30 c 0,48,49
 1066 -39 1066 -39 997 -39 c 0,50,51
 723 -39 723 -39 514 112 c 0,52,53
 324 249 324 249 254 463 c 0,54,55
 221 566 221 566 221 676 c 0,56,57
 221 928 221 928 377 1125 c 0,58,59
 523 1309 523 1309 752 1379 c 0,60,61
 869 1415 869 1415 993 1415 c 0,62,63
 1247 1415 1247 1415 1437 1276 c 0,64,65
 1610 1149 1610 1149 1663 951 c 0,66,67
 1683 876 1683 876 1683 799 c 0,68,69
 1683 609 1683 609 1581 462 c 0,70,71
 1490 331 1490 331 1360 300 c 0,72,73
 1328 293 1328 293 1296 293 c 0,74,75
 1191 293 1191 293 1137 367 c 0,76,77
 1111 402 1111 402 1104 446 c 1,78,79
 1019 335 1019 335 909 304 c 0,80,81
 877 295 877 295 846 295 c 0,82,83
 756 295 756 295 700 374 c 0,84,85
 653 440 653 440 653 530 c 0,0,1
932 391 m 0,86,87
 1022 391 1022 391 1097 528 c 0,88,89
 1165 652 1165 652 1179 798 c 0,90,91
 1182 825 1182 825 1182 848 c 1,92,93
 1172 956 1172 956 1098 963 c 1,94,95
 1021 963 1021 963 941 886 c 0,96,97
 837 786 837 786 816 634 c 0,98,99
 811 601 811 601 811 567 c 0,100,101
 811 447 811 447 877 406 c 0,102,103
 902 391 902 391 932 391 c 0,86,87
EndSplineSet
EndChar

StartChar: bracketleft
Encoding: 91 91 250
Width: 681
Flags: MW
LayerCount: 2
Fore
SplineSet
616 -238 m 1,0,-1
 616 -305 l 1,1,-1
 137 -305 l 1,2,-1
 137 1389 l 1,3,-1
 616 1389 l 1,4,-1
 616 1321 l 1,5,-1
 487 1321 l 2,6,7
 399 1321 399 1321 374 1293 c 1,8,9
 350 1265 350 1265 350 1178 c 2,10,-1
 350 -129 l 2,11,12
 350 -203 350 -203 377 -223 c 0,13,14
 399 -238 399 -238 453 -238 c 2,15,-1
 616 -238 l 1,0,-1
EndSplineSet
EndChar

StartChar: backslash
Encoding: 92 92 251
Width: 569
Flags: MW
LayerCount: 2
Fore
SplineSet
432 -39 m 1,0,-1
 -51 1415 l 1,1,-1
 139 1415 l 1,2,-1
 621 -39 l 1,3,-1
 432 -39 l 1,0,-1
EndSplineSet
EndChar

StartChar: bracketright
Encoding: 93 93 252
Width: 681
Flags: MW
LayerCount: 2
Fore
SplineSet
66 -305 m 1,0,-1
 66 -238 l 1,1,-1
 229 -238 l 2,2,3
 298 -238 298 -238 316 -213 c 0,4,5
 332 -190 332 -190 332 -129 c 2,6,-1
 332 1178 l 2,7,8
 332 1269 332 1269 305 1295 c 1,9,10
 278 1320 278 1320 195 1321 c 2,11,-1
 66 1321 l 1,12,-1
 66 1389 l 1,13,-1
 545 1389 l 1,14,-1
 545 -305 l 1,15,-1
 66 -305 l 1,0,-1
EndSplineSet
EndChar

StartChar: asciicircum
Encoding: 94 94 253
Width: 1189
Flags: MW
LayerCount: 2
Fore
SplineSet
332 637 m 1,0,-1
 150 637 l 1,1,-1
 514 1384 l 1,2,-1
 678 1384 l 1,3,-1
 1042 637 l 1,4,-1
 860 637 l 1,5,-1
 596 1194 l 1,6,-1
 332 637 l 1,0,-1
EndSplineSet
EndChar

StartChar: underscore
Encoding: 95 95 254
Width: 1024
Flags: MW
LayerCount: 2
Fore
SplineSet
1024 -317 m 1,0,-1
 0 -317 l 1,1,-1
 0 -154 l 1,2,-1
 1024 -154 l 1,3,-1
 1024 -317 l 1,0,-1
EndSplineSet
EndChar

StartChar: braceleft
Encoding: 123 123 255
Width: 806
Flags: MW
LayerCount: 2
Fore
SplineSet
696 -358 m 1,0,1
 456 -355 456 -355 365 -300 c 0,2,3
 277 -247 277 -247 266 -117 c 0,4,5
 264 -94 264 -94 264 -70 c 2,6,-1
 264 297 l 2,7,8
 264 408 264 408 218 456 c 0,9,10
 172 503 172 503 45 535 c 1,11,12
 180 568 180 568 223 619 c 0,13,14
 263 668 263 668 264 772 c 2,15,-1
 264 1139 l 2,16,17
 264 1291 264 1291 339 1354 c 0,18,19
 417 1419 417 1419 630 1428 c 0,20,21
 661 1429 661 1429 696 1430 c 1,22,-1
 696 1405 l 1,23,24
 561 1376 561 1376 516 1310 c 0,25,26
 480 1255 480 1255 479 1151 c 2,27,-1
 479 801 l 2,28,29
 479 675 479 675 434 623 c 0,30,31
 388 569 388 569 253 538 c 0,32,33
 245 536 245 536 238 535 c 1,34,35
 381 505 381 505 430 452 c 1,36,37
 478 390 478 390 479 268 c 1,38,-1
 479 -82 l 2,39,40
 479 -213 479 -213 542 -269 c 0,41,42
 591 -312 591 -312 696 -334 c 1,43,-1
 696 -358 l 1,0,1
EndSplineSet
EndChar

StartChar: bar
Encoding: 124 124 256
Width: 450
Flags: MW
LayerCount: 2
Fore
SplineSet
135 -39 m 1,0,-1
 135 1415 l 1,1,-1
 315 1415 l 1,2,-1
 315 -39 l 1,3,-1
 135 -39 l 1,0,-1
EndSplineSet
EndChar

StartChar: braceright
Encoding: 125 125 257
Width: 806
Flags: MW
LayerCount: 2
Fore
SplineSet
111 1430 m 1,0,1
 337 1427 337 1427 427 1381 c 0,2,3
 526 1330 526 1330 540 1196 c 0,4,5
 543 1170 543 1170 543 1141 c 2,6,-1
 543 774 l 2,7,8
 543 664 543 664 589 616 c 0,9,10
 635 569 635 569 762 537 c 1,11,12
 627 504 627 504 583 452 c 0,13,14
 543 403 543 403 543 299 c 2,15,-1
 543 -68 l 2,16,17
 543 -219 543 -219 469 -282 c 0,18,19
 392 -347 392 -347 181 -356 c 0,20,21
 148 -357 148 -357 111 -358 c 1,22,-1
 111 -334 l 1,23,24
 246 -305 246 -305 291 -239 c 0,25,26
 327 -184 327 -184 328 -80 c 2,27,-1
 328 270 l 2,28,29
 328 397 328 397 377 451 c 0,30,31
 427 506 427 506 569 537 c 1,32,33
 426 567 426 567 378 619 c 0,34,35
 330 670 330 670 328 790 c 0,36,37
 328 797 328 797 328 803 c 2,38,-1
 328 1153 l 2,39,40
 328 1285 328 1285 263 1341 c 0,41,42
 213 1384 213 1384 111 1405 c 1,43,-1
 111 1430 l 1,0,1
EndSplineSet
EndChar

StartChar: asciitilde
Encoding: 126 126 258
Width: 1064
Flags: MW
LayerCount: 2
Fore
SplineSet
313 678 m 0,0,1
 393 678 393 678 551 609 c 0,2,3
 681 553 681 553 717 544 c 0,4,5
 738 539 738 539 754 539 c 0,6,7
 818 539 818 539 883 619 c 0,8,9
 888 625 888 625 893 631 c 1,10,-1
 1006 532 l 1,11,12
 917 407 917 407 842 375 c 0,13,14
 802 358 802 358 754 358 c 0,15,16
 670 358 670 358 566 411 c 0,17,18
 467 462 467 462 446 471 c 0,19,20
 377 498 377 498 309 498 c 0,21,22
 246 498 246 498 203 455 c 0,23,24
 186 438 186 438 168 412 c 1,25,-1
 59 506 l 1,26,27
 133 633 133 633 225 665 c 0,28,29
 265 678 265 678 313 678 c 0,0,1
EndSplineSet
EndChar

StartChar: plusminus
Encoding: 177 177 259
Width: 1384
Flags: MW
LayerCount: 2
Fore
SplineSet
1257 549 m 1,0,-1
 793 549 l 1,1,-1
 793 178 l 1,2,-1
 596 178 l 1,3,-1
 596 549 l 1,4,-1
 129 549 l 1,5,-1
 129 745 l 1,6,-1
 596 745 l 1,7,-1
 596 1143 l 1,8,-1
 793 1143 l 1,9,-1
 793 745 l 1,10,-1
 1257 745 l 1,11,-1
 1257 549 l 1,0,-1
1255 -90 m 1,12,-1
 127 -90 l 1,13,-1
 127 98 l 1,14,-1
 1255 98 l 1,15,-1
 1255 -90 l 1,12,-1
EndSplineSet
EndChar

StartChar: paragraph
Encoding: 182 182 260
Width: 1105
Flags: MW
LayerCount: 2
Fore
SplineSet
408 543 m 1,0,1
 110 554 110 554 28 798 c 0,2,3
 0 882 0 882 0 985 c 0,4,5
 0 1258 0 1258 198 1342 c 0,6,7
 297 1383 297 1383 449 1384 c 2,8,-1
 1063 1384 l 1,9,-1
 1063 1333 l 1,10,11
 1017 1329 1017 1329 1010 1329 c 0,12,13
 932 1320 932 1320 914 1302 c 1,14,15
 897 1283 897 1283 897 1227 c 1,16,-1
 895 1206 l 1,17,-1
 895 -203 l 1,18,-1
 897 -223 l 1,19,20
 899 -283 899 -283 915 -300 c 0,21,22
 934 -318 934 -318 1006 -326 c 0,23,24
 1014 -326 1014 -326 1053 -330 c 1,25,-1
 1053 -381 l 1,26,-1
 702 -381 l 1,27,-1
 702 1333 l 1,28,-1
 600 1333 l 1,29,-1
 600 -381 l 1,30,-1
 242 -381 l 1,31,-1
 242 -330 l 1,32,33
 357 -319 357 -319 382 -302 c 0,34,35
 405 -286 405 -286 406 -238 c 0,36,37
 406 -231 406 -231 406 -223 c 2,38,-1
 408 -203 l 1,39,-1
 408 543 l 1,0,1
408 1333 m 1,40,41
 313 1308 313 1308 268 1264 c 0,42,43
 185 1181 185 1181 184 989 c 0,44,45
 184 731 184 731 329 633 c 0,46,47
 364 610 364 610 408 594 c 1,48,-1
 408 1333 l 1,40,41
EndSplineSet
Substitution2: "'rtlm' Mirrored forms subtable" paragraph.rtlm
EndChar

StartChar: divide
Encoding: 247 247 261
Width: 1384
Flags: MW
LayerCount: 2
Fore
SplineSet
862 1014 m 0,0,1
 862 938 862 938 800 891 c 0,2,3
 758 860 758 860 707 860 c 0,4,5
 633 860 633 860 586 919 c 0,6,7
 553 962 553 962 553 1014 c 0,8,9
 553 1088 553 1088 612 1134 c 0,10,11
 655 1166 655 1166 707 1167 c 0,12,13
 782 1167 782 1167 829 1109 c 0,14,15
 862 1067 862 1067 862 1014 c 0,0,1
1257 428 m 1,16,-1
 127 428 l 1,17,-1
 127 625 l 1,18,-1
 1257 625 l 1,19,-1
 1257 428 l 1,16,-1
862 39 m 0,20,21
 862 -37 862 -37 800 -84 c 0,22,23
 758 -115 758 -115 707 -115 c 0,24,25
 633 -115 633 -115 586 -56 c 0,26,27
 553 -13 553 -13 553 39 c 0,28,29
 553 113 553 113 612 160 c 0,30,31
 655 193 655 193 707 193 c 0,32,33
 782 193 782 193 829 134 c 0,34,35
 862 92 862 92 862 39 c 0,20,21
EndSplineSet
EndChar

StartChar: multiply
Encoding: 215 215 262
Width: 1384
Flags: MW
LayerCount: 2
Fore
SplineSet
1257 104 m 1,0,-1
 1118 -35 l 1,1,-1
 692 391 l 1,2,-1
 266 -35 l 1,3,-1
 127 104 l 1,4,-1
 549 526 l 1,5,-1
 127 948 l 1,6,-1
 266 1087 l 1,7,-1
 692 664 l 1,8,-1
 1118 1087 l 1,9,-1
 1257 948 l 1,10,-1
 836 526 l 1,11,-1
 1257 104 l 1,0,-1
EndSplineSet
EndChar

StartChar: paragraph.rtlm
Encoding: 65541 -1 263
Width: 1105
Flags: MW
LayerCount: 2
Fore
SplineSet
697 543 m 1,0,1
 697 -203 l 1,2,-1
 699 -223 l 2,3,4
 699 -231 699 -231 699 -238 c 0,5,6
 700 -286 700 -286 723 -302 c 0,7,8
 748 -319 748 -319 863 -330 c 1,9,-1
 863 -381 l 1,10,-1
 505 -381 l 1,11,-1
 505 1333 l 1,12,-1
 403 1333 l 1,13,-1
 403 -381 l 1,14,-1
 52 -381 l 1,15,-1
 52 -330 l 1,16,17
 91 -326 91 -326 99 -326 c 0,18,19
 171 -318 171 -318 190 -300 c 0,20,21
 206 -283 206 -283 208 -223 c 1,22,-1
 210 -203 l 1,23,-1
 210 1206 l 1,24,-1
 208 1227 l 1,25,26
 208 1283 208 1283 191 1302 c 1,27,28
 173 1320 173 1320 95 1329 c 0,29,30
 88 1329 88 1329 42 1333 c 1,31,-1
 42 1384 l 1,32,-1
 656 1384 l 2,33,34
 808 1383 808 1383 907 1342 c 0,35,36
 1105 1258 1105 1258 1105 985 c 0,37,38
 1105 882 1105 882 1077 798 c 0,39,40
 995 554 995 554 697 543 c 1,0,1
697 1333 m 1,41,-1
 697 594 l 1,42,43
 741 610 741 610 776 633 c 0,44,45
 921 731 921 731 921 989 c 0,46,47
 920 1181 920 1181 837 1264 c 0,48,49
 792 1308 792 1308 697 1333 c 1,41,-1
EndSplineSet
EndChar

StartChar: guillemotleft.locl
Encoding: 65542 -1 264
Width: 620
Flags: MW
LayerCount: 2
Fore
SplineSet
273 836 m 2,0,1
 182 691 182 691 182 469.5 c 128,-1,2
 182 248 182 248 283 76 c 2,3,-1
 296 54 l 1,4,-1
 227 13 l 1,5,6
 118 109 118 109 84 198 c 0,7,8
 32 336 32 336 31 437 c 0,9,10
 32 743 32 743 201 890 c 2,11,-1
 215 902 l 1,12,-1
 286 857 l 1,13,-1
 273 836 l 2,0,1
567 836 m 2,14,15
 476 691 476 691 476 469 c 128,-1,16
 476 247 476 247 577 75 c 2,17,-1
 589 53 l 1,18,-1
 521 14 l 1,19,20
 413 105 413 105 369.5 217 c 128,-1,21
 326 329 326 329 326 476 c 128,-1,22
 326 623 326 623 393 756 c 0,23,24
 433 836 433 836 508 901 c 1,25,-1
 581 857 l 1,26,-1
 567 836 l 2,14,15
EndSplineSet
EndChar

StartChar: guillemotright.locl
Encoding: 65543 -1 265
Width: 620
Flags: MW
LayerCount: 2
Fore
SplineSet
347 836 m 1,0,1
 334 857 l 1,2,-1
 405 902 l 1,3,-1
 419 890 l 1,4,5
 588 743 588 743 589 437 c 1,6,7
 588 336 588 336 536 198 c 0,8,9
 502 109 502 109 393 13 c 1,10,-1
 324 54 l 1,11,-1
 337 76 l 2,12,13
 438 248 438 248 438 469.5 c 128,-1,14
 438 691 438 691 347 836 c 1,0,1
53 836 m 1,15,-1
 39 857 l 1,16,-1
 112 901 l 1,17,18
 187 836 187 836 227 756 c 0,19,20
 294 623 294 623 294 476 c 128,-1,21
 294 329 294 329 250.5 217 c 128,-1,22
 207 105 207 105 99 14 c 1,23,-1
 31 53 l 1,24,-1
 43 75 l 1,25,26
 144 247 144 247 144 469 c 128,-1,27
 144 691 144 691 53 836 c 1,15,-1
EndSplineSet
EndChar

StartChar: ellipsis
Encoding: 8230 8230 266
Width: 2048
Flags: MW
LayerCount: 2
Fore
SplineSet
340 319 m 0,0,1
 423 319 423 319 475 253 c 0,2,3
 513 204 513 204 514 143 c 0,4,5
 514 62 514 62 449 11 c 0,6,7
 400 -26 400 -26 338 -27 c 0,8,9
 253 -27 253 -27 203 39 c 0,10,11
 168 86 168 86 168 147 c 0,12,13
 168 225 168 225 230 278 c 0,14,15
 279 319 279 319 340 319 c 0,0,1
1022 319 m 0,16,17
 1105 319 1105 319 1157 253 c 0,18,19
 1195 204 1195 204 1196 143 c 0,20,21
 1196 62 1196 62 1131 11 c 0,22,23
 1082 -26 1082 -26 1020 -27 c 0,24,25
 935 -27 935 -27 885 39 c 0,26,27
 850 86 850 86 850 147 c 0,28,29
 850 225 850 225 912 278 c 0,30,31
 961 319 961 319 1022 319 c 0,16,17
1704 319 m 0,32,33
 1787 319 1787 319 1839 253 c 0,34,35
 1877 204 1877 204 1878 143 c 0,36,37
 1878 62 1878 62 1813 11 c 0,38,39
 1764 -26 1764 -26 1702 -27 c 0,40,41
 1617 -27 1617 -27 1567 39 c 0,42,43
 1532 86 1532 86 1532 147 c 0,44,45
 1532 225 1532 225 1594 278 c 0,46,47
 1643 319 1643 319 1704 319 c 0,32,33
EndSplineSet
Substitution2: "'locl' Arabic Localized Forms subtable" ellipsis.locl
EndChar

StartChar: ellipsis.locl
Encoding: 65544 -1 267
Width: 2166
VWidth: 2081
Flags: MW
LayerCount: 2
Fore
SplineSet
525 182 m 1,0,-1
 441 -112 l 1,1,-1
 203 36 l 1,2,-1
 287 330 l 1,3,-1
 525 182 l 1,0,-1
1985 183 m 1,4,-1
 1901 -111 l 1,5,-1
 1663 37 l 1,6,-1
 1747 331 l 1,7,-1
 1985 183 l 1,4,-1
1263 183 m 1,8,-1
 1179 -111 l 1,9,-1
 941 37 l 1,10,-1
 1025 331 l 1,11,-1
 1263 183 l 1,8,-1
EndSplineSet
EndChar

StartChar: uni066B
Encoding: 1643 1643 268
Width: 1000
VWidth: 2081
Flags: MW
LayerCount: 2
Fore
SplineSet
537 23 m 0,0,1
 537 27 537 27 519 23 c 0,2,3
 433 4 433 4 383 45.5 c 128,-1,4
 333 87 333 87 333.5 149 c 128,-1,5
 334 211 334 211 374 250 c 1,6,7
 416 289 416 289 487.5 289 c 128,-1,8
 559 289 559 289 614 229 c 1,9,10
 667 169 667 169 667 83 c 0,11,12
 666 -101 666 -101 576 -226 c 1,13,14
 509 -317 509 -317 401 -370 c 2,15,-1
 378 -382 l 1,16,-1
 340 -299 l 1,17,-1
 359 -288 l 1,18,19
 536 -180 536 -180 537 23 c 0,0,1
EndSplineSet
EndChar

StartChar: twodots
Encoding: 65545 -1 269
Width: 734
VWidth: 2081
Flags: MW
LayerCount: 2
Fore
SplineSet
700 136 m 1,0,-1
 521 -76 l 1,1,-1
 355 72 l 1,2,-1
 527 282 l 1,3,-1
 700 136 l 1,0,-1
381 138 m 1,4,-1
 200 -74 l 1,5,-1
 36 74 l 1,6,-1
 208 284 l 1,7,-1
 381 138 l 1,4,-1
EndSplineSet
EndChar

StartChar: onedot
Encoding: 65546 -1 270
Width: 729
VWidth: 2081
Flags: MW
LayerCount: 2
Fore
SplineSet
446 -77 m 1,0,-1
 178 30 l 1,1,-1
 289 282 l 1,2,-1
 559 179 l 1,3,-1
 446 -77 l 1,0,-1
EndSplineSet
EndChar

StartChar: threedots
Encoding: 65547 -1 271
Width: 732
VWidth: 2081
Flags: MW
LayerCount: 2
Fore
SplineSet
379 234 m 1,0,-1
 192 382 l 1,1,-1
 353 572 l 1,2,-1
 537 432 l 1,3,-1
 379 234 l 1,0,-1
EndSplineSet
Refer: 269 -1 N 1 0 0 1 0 33 2
EndChar

StartChar: threedots.reversed
Encoding: 65548 -1 272
Width: 732
VWidth: 2081
Flags: MW
LayerCount: 2
Fore
SplineSet
733 269 m 5,0,-1
 510 80 l 5,1,-1
 382 236 l 5,2,-1
 598 429 l 5,3,-1
 733 269 l 5,0,-1
384 267 m 1,4,-1
 161 78 l 1,5,-1
 33 234 l 1,6,-1
 247 427 l 1,7,-1
 384 267 l 1,4,-1
426 117 m 1,8,-1
 541 -29 l 1,9,-1
 305 -209 l 1,10,-1
 188 -72 l 1,11,-1
 426 117 l 1,8,-1
EndSplineSet
EndChar

StartChar: uni0628.isol.base
Encoding: 65549 -1 273
Width: 1489
VWidth: 2081
Flags: MW
LayerCount: 2
Fore
SplineSet
1274 310 m 1,0,1
 1236 406 1236 406 1131 514 c 1,2,-1
 1287 722 l 1,3,4
 1347 784 1347 784 1353 760 c 1,5,6
 1356 758 1356 758 1357 756 c 0,7,8
 1499 607 1499 607 1499 387 c 0,9,10
 1499 197 1499 197 1485 124 c 1,11,12
 1482 114 1482 114 1471 101 c 0,13,14
 1427 51 1427 51 1316 35 c 0,15,16
 1290 31 1290 31 1234 26 c 128,-1,17
 1178 21 1178 21 1071 8 c 128,-1,18
 964 -5 964 -5 792 -5 c 0,19,20
 403 -5 403 -5 274.5 79.5 c 128,-1,21
 146 164 146 164 146 336 c 1,22,23
 147 461 147 461 253 624 c 0,24,25
 277 661 277 661 293 679 c 2,26,-1
 361 754 l 1,27,-1
 356 708 l 2,28,29
 355 698 355 698 345 646 c 0,30,31
 290 371 290 371 539 314 c 0,32,33
 709 275 709 275 1155 299 c 0,34,35
 1213 303 1213 303 1274 310 c 1,0,1
EndSplineSet
EndChar

StartChar: uni0628.fina.base
Encoding: 65550 -1 274
Width: 1297
VWidth: 2081
Flags: MW
LayerCount: 2
Fore
SplineSet
1345 0 m 1,0,-1
 404 0 l 1,1,2
 174 13 174 13 82 86 c 128,-1,3
 -10 159 -10 159 -8 342 c 0,4,5
 -8 468 -8 468 99 631 c 1,6,-1
 209 786 l 1,7,-1
 201 714 l 2,8,9
 201 713 201 713 191 659 c 128,-1,10
 181 605 181 605 181 555 c 0,11,12
 181 306 181 306 530 306 c 2,13,-1
 1087 306 l 1,14,-1
 975 520 l 1,15,-1
 1164 769 l 1,16,-1
 1201 763 l 1,17,-1
 1345 313 l 1,18,-1
 1345 0 l 1,0,-1
EndSplineSet
EndChar

StartChar: uni0628.init.base
Encoding: 65551 -1 275
Width: 739
VWidth: 2081
Flags: MW
LayerCount: 2
Fore
SplineSet
476 300 m 1,0,1
 435 404 435 404 364 493 c 1,2,-1
 495 703 l 1,3,4
 520 750 520 750 578 757 c 1,5,-1
 578 757 l 1,6,7
 738 536 738 536 738 225 c 0,8,9
 738 125 738 125 738 101 c 0,10,11
 734 0 734 0 608 0 c 2,12,-1
 -109 0 l 1,13,-1
 -109 300 l 1,14,-1
 476 300 l 1,0,1
EndSplineSet
EndChar

StartChar: uni0641.isol.base
Encoding: 65552 -1 276
Width: 1684
VWidth: 2081
Flags: MW
LayerCount: 2
Fore
SplineSet
1546 520 m 1,0,1
 1530 578 1530 578 1511 626 c 0,2,3
 1440 794 1440 794 1405 804 c 0,4,5
 1314 832 1314 832 1229 676 c 1,6,-1
 1233 658 l 1,7,8
 1296 618 1296 618 1353.5 587.5 c 128,-1,9
 1411 557 1411 557 1529 503 c 1,10,-1
 1546 520 l 1,0,1
1185 808 m 1,11,12
 1342 1008 1342 1008 1430 1008 c 128,-1,13
 1518 1008 1518 1008 1601 871 c 1,14,15
 1697 711 1697 711 1696.5 495.5 c 128,-1,16
 1696 280 1696 280 1669 198 c 0,17,18
 1644 122 1644 122 1589 62 c 0,19,20
 1532 0 1532 0 1426 0 c 2,21,-1
 478 0 l 2,22,23
 146 0 146 0 146 260 c 1,24,25
 146 420 146 420 213 562 c 1,26,-1
 287 636 l 1,27,-1
 286 571 l 2,28,29
 285 486 285 486 290 452 c 0,30,31
 314 308 314 308 483 307 c 2,32,-1
 1399 307 l 1,33,34
 1229 389 1229 389 1175 425 c 0,35,36
 1068 494 1068 494 1068 570.5 c 128,-1,37
 1068 647 1068 647 1185 808 c 1,11,12
EndSplineSet
EndChar

StartChar: uni0641.fina.base
Encoding: 65553 -1 277
Width: 1523
VWidth: 2081
Flags: MW
LayerCount: 2
Fore
SplineSet
1406 520 m 1,0,1
 1390 578 1390 578 1371 626 c 0,2,3
 1300 794 1300 794 1265 804 c 0,4,5
 1174 832 1174 832 1089 676 c 1,6,-1
 1093 658 l 1,7,8
 1156 618 1156 618 1213.5 587.5 c 128,-1,9
 1271 557 1271 557 1389 503 c 1,10,-1
 1406 520 l 1,0,1
1078 854 m 2,11,12
 1198 1008 1198 1008 1288 1008 c 0,13,14
 1376 1008 1376 1008 1464.5 861 c 128,-1,15
 1553 714 1553 714 1553 494 c 0,16,-1
 1564 314 l 1,17,-1
 1564 0 l 1,18,-1
 346 0 l 2,19,20
 13 0 13 0 14 260 c 0,21,22
 14 424 14 424 82 563 c 1,23,-1
 154 636 l 1,24,-1
 154 582 l 2,25,26
 154 477 154 477 157 451 c 1,27,28
 181 307 181 307 351 307 c 2,29,-1
 1260 307 l 5,30,31
 1100 380 1100 380 1032 425 c 0,32,33
 925 494 925 494 925 570.5 c 128,-1,34
 925 647 925 647 1042 808 c 1,35,-1
 1078 854 l 2,11,12
EndSplineSet
EndChar

StartChar: uni0641.init.base
Encoding: 65554 -1 278
Width: 721
VWidth: 2081
Flags: MW
LayerCount: 2
Fore
SplineSet
560 480 m 1,0,1
 544 537 544 537 525 585 c 0,2,3
 454 753 454 753 419 764 c 0,4,5
 328 792 328 792 243 636 c 1,6,-1
 247 618 l 1,7,8
 310 578 310 578 367.5 547.5 c 128,-1,9
 425 517 425 517 543 463 c 1,10,-1
 560 480 l 1,0,1
326 306 m 1,11,12
 94 401 94 401 93 513 c 1,13,-1
 93 515 l 2,14,15
 93 588 93 588 211 762 c 0,16,17
 328 935 328 935 429 958 c 0,18,19
 438 960 438 960 445 960 c 2,20,-1
 448 960 l 1,21,22
 537 958 537 958 621 826 c 0,23,24
 726 660 726 660 725.5 424 c 128,-1,25
 725 188 725 188 679 111 c 0,26,27
 612 0 612 0 511 0 c 2,28,-1
 -109 0 l 1,29,-1
 -109 307 l 1,30,-1
 326 306 l 1,11,12
EndSplineSet
EndChar

StartChar: uni0641.medi.base
Encoding: 65555 -1 279
Width: 724
VWidth: 2081
Flags: MW
LayerCount: 2
Fore
SplineSet
560 481 m 1,0,1
 544 538 544 538 525 586 c 0,2,3
 454 754 454 754 419 765 c 0,4,5
 328 793 328 793 243 637 c 1,6,-1
 247 619 l 1,7,8
 310 579 310 579 367.5 548.5 c 128,-1,9
 425 518 425 518 543 464 c 1,10,-1
 560 481 l 1,0,1
316 307 m 1,11,12
 84 402 84 402 83 514 c 1,13,-1
 83 516 l 2,14,15
 82 588 82 588 200 762 c 128,-1,16
 318 936 318 936 418 959 c 0,17,18
 427 961 427 961 435 961 c 2,19,-1
 438 961 l 1,20,21
 527 960 527 960 619 814 c 0,22,23
 711 669 711 669 714 452 c 2,24,-1
 716 319 l 1,25,-1
 727 308 l 1,26,-1
 763 307 l 1,27,-1
 763 0 l 1,28,-1
 -109 0 l 1,29,-1
 -109 308 l 1,30,-1
 316 307 l 1,11,12
EndSplineSet
EndChar

StartChar: uni0642.base
Encoding: 65556 -1 280
Width: 1360
VWidth: 2081
Flags: MW
LayerCount: 2
Fore
SplineSet
1154 296 m 1,0,1
 1083 503 1083 503 971 503 c 0,2,3
 892 503 892 503 844 388 c 1,4,-1
 844 378 l 1,5,6
 857 350 857 350 883 328 c 0,7,8
 956 266 956 266 1057 266 c 0,9,10
 1111 266 1111 266 1146 279 c 1,11,-1
 1154 296 l 1,0,1
661 -314 m 0,12,13
 897 -313 897 -313 1129 -180 c 1,14,-1
 1130 -180 l 1,15,16
 1185 -147 1185 -147 1211 -118 c 1,17,18
 1209 -72 1209 -72 1197 5 c 1,19,-1
 1186 13 l 1,20,21
 1096 1 1096 1 1017 1 c 0,22,23
 691 2 691 2 691 242 c 1,24,25
 692 356 692 356 777 536 c 1,26,27
 824 630 824 630 882 691 c 0,28,29
 984 797 984 797 1087 796.5 c 128,-1,30
 1190 796 1190 796 1266 676 c 0,31,32
 1375 504 1375 504 1374 143 c 0,33,34
 1374 26 1374 26 1339 -111 c 1,35,36
 1275 -326 1275 -326 1040 -482 c 1,37,38
 832 -616 832 -616 612 -617 c 1,39,40
 146 -615 146 -615 146 -152 c 1,41,42
 147 135 147 135 276 340 c 2,43,-1
 307 389 l 1,44,-1
 354 389 l 1,45,46
 280 186 280 186 280.5 29.5 c 128,-1,47
 281 -127 281 -127 385.5 -220.5 c 128,-1,48
 490 -314 490 -314 661 -314 c 0,12,13
EndSplineSet
EndChar

StartChar: uni0646.base
Encoding: 65557 -1 298
Width: 1173
VWidth: 2081
Flags: MW
LayerCount: 2
Fore
SplineSet
996 -93 m 1,0,1
 992 160 992 160 865 325 c 1,2,3
 966 491 966 491 1037 617 c 1,4,-1
 1067 590 l 2,5,6
 1179 491 1179 491 1185 178 c 1,7,8
 1189 -73 1189 -73 1122 -201 c 0,9,10
 1102 -237 1102 -237 1076 -269 c 0,11,12
 1002 -359 1002 -359 773 -446 c 1,13,14
 610 -506 610 -506 455.5 -506 c 128,-1,15
 301 -506 301 -506 223 -383.5 c 128,-1,16
 145 -261 145 -261 145 -110 c 128,-1,17
 145 41 145 41 192 181 c 128,-1,18
 239 321 239 321 319 428 c 1,19,-1
 334 443 l 2,20,21
 390 499 390 499 391 461 c 1,22,-1
 390 451 l 1,23,24
 280 223 280 223 280 79.5 c 128,-1,25
 280 -64 280 -64 350.5 -140 c 128,-1,26
 421 -216 421 -216 544 -216 c 0,27,28
 788 -215 788 -215 996 -93 c 1,0,1
EndSplineSet
EndChar

StartChar: farsikaf.isol.base
Encoding: 65558 -1 312
Width: 1242
VWidth: 2081
Flags: MW
LayerCount: 2
Fore
SplineSet
465 306 m 2,0,-1
 913 306 l 1,1,2
 805 398 805 398 416 633 c 1,3,4
 409 640 409 640 418.5 688 c 128,-1,5
 428 736 428 736 442 754 c 0,6,7
 531 868 531 868 1015 1046 c 0,8,9
 1133 1089 1133 1089 1213 1106 c 1,10,11
 1208 1064 1208 1064 1171 942 c 2,12,-1
 1159 902 l 1,13,-1
 1107 885 l 2,14,15
 827 795 827 795 723 749 c 1,16,17
 834 689 834 689 1032 540.5 c 128,-1,18
 1230 392 1230 392 1231 324 c 1,19,20
 1231 137 1231 137 1216 100 c 0,21,22
 1176 0 1176 0 1095 0 c 2,23,-1
 313 0 l 2,24,25
 187 1 187 1 118 59 c 0,26,27
 -57 210 -57 210 111 537 c 1,28,29
 139 576 139 576 176.5 600.5 c 128,-1,30
 214 625 214 625 210 599 c 0,31,32
 209 594 209 594 203 577 c 1,33,34
 119 307 119 307 465 306 c 2,0,-1
EndSplineSet
EndChar

StartChar: farsikaf.fina.base
Encoding: 65559 -1 313
Width: 1193
VWidth: 2081
Flags: MW
LayerCount: 2
Fore
SplineSet
912 308 m 1,0,1
 773 416 773 416 421 633 c 1,2,3
 412 637 412 637 416 658.5 c 128,-1,4
 420 680 420 680 424.5 706 c 128,-1,5
 429 732 429 732 443 752 c 0,6,7
 497 831 497 831 794 957 c 0,8,9
 982 1037 982 1037 1189 1101 c 1,10,-1
 1217 1110 l 1,11,12
 1211 1073 1211 1073 1174 943 c 1,13,-1
 1162 902 l 1,14,-1
 1110 885 l 1,15,16
 859 804 859 804 729 749 c 1,17,18
 840 688 840 688 1037.5 538.5 c 128,-1,19
 1235 389 1235 389 1234 324 c 1,20,-1
 1232 274 l 1,21,-1
 1232 1 l 1,22,-1
 313 0 l 2,23,24
 187 1 187 1 118 59 c 1,25,26
 -57 210 -57 210 111 537 c 1,27,28
 138 576 138 576 176 600 c 0,29,30
 214 624 214 624 210 599 c 0,31,32
 209 594 209 594 203 577 c 0,33,34
 117 308 117 308 462 308 c 2,35,-1
 912 308 l 1,0,1
EndSplineSet
EndChar

StartChar: gafdash
Encoding: 65560 -1 319
Width: 867
VWidth: 2081
Flags: MW
LayerCount: 2
Fore
SplineSet
776 1206 m 2,0,1
 381 1091 381 1091 71 913 c 2,2,-1
 41 896 l 1,3,-1
 50 1013 l 1,4,-1
 96 1041 l 2,5,6
 426 1246 426 1246 872 1366 c 1,7,-1
 828 1221 l 1,8,-1
 776 1206 l 2,0,1
EndSplineSet
EndChar

StartChar: uni063306CC.isol
Encoding: 64763 64763 320
Width: 2496
VWidth: 2081
Flags: MW
AnchorPoint: "AboveLig" 1908 886 baselig 0
AnchorPoint: "AboveLig" 658 850 baselig 1
AnchorPoint: "BelowLig" 1845 -188 baselig 0
AnchorPoint: "BelowLig" 661 -838 baselig 1
LayerCount: 2
Fore
SplineSet
2189 285 m 1,0,1
 2179 375 2179 375 2129 466 c 1,2,-1
 2339 710 l 1,3,-1
 2348 679 l 2,4,5
 2421 429 2421 429 2383 104 c 0,6,7
 2381 83 2381 83 2359 60 c 0,8,9
 2296 -6 2296 -6 2186 -3 c 0,10,11
 2167 -3 2167 -3 2160 -3 c 0,12,13
 2024 -3 2024 -3 1783 86 c 1,14,15
 1664 -11 1664 -11 1483 -7 c 1,16,17
 1237 2 1237 2 1147 300 c 1,18,19
 1109 418 1109 418 936 302 c 0,20,21
 899 277 899 277 856 207 c 1,22,-1
 858 198 l 1,23,-1
 1309 21 l 1,24,-1
 1309 6 l 1,25,26
 1289 -153 l 2,27,28
 1282 -201 1282 -201 1248 -235 c 0,29,30
 1178 -305 1178 -305 1103 -362 c 0,31,32
 760 -619 760 -619 487 -617 c 1,33,34
 95 -611 95 -611 100 -179 c 1,35,36
 123 118 123 118 289 360 c 1,37,38
 323 395 323 395 347.5 406.5 c 128,-1,39
 372 418 372 418 375 412 c 128,-1,40
 378 406 378 406 348.5 355 c 128,-1,41
 319 304 319 304 278 204.5 c 128,-1,42
 237 105 237 105 243 6 c 0,43,44
 265 -314 265 -314 612 -315 c 1,45,46
 860 -314 860 -314 1069 -187 c 1,47,48
 1038 -176 1038 -176 859.5 -118 c 128,-1,49
 681 -60 681 -60 663 -22 c 0,50,51
 659 -14 659 -14 659 -5 c 0,52,53
 660 186 660 186 892 429 c 1,54,55
 1095 639 1095 639 1265 640 c 1,56,57
 1372 638 1372 638 1390.5 493 c 128,-1,58
 1409 348 1409 348 1501.5 319.5 c 128,-1,59
 1594 291 1594 291 1754 313 c 1,60,61
 1767 377 1767 377 1741 427 c 1,62,-1
 1958 662 l 1,63,-1
 1968 638 l 2,64,65
 1974 623 1974 623 1974 544 c 128,-1,66
 1974 465 1974 465 1926 354 c 1,67,-1
 1929 343 l 1,68,69
 2011 283 2011 283 2147 283 c 0,70,71
 2171 283 2171 283 2189 285 c 1,0,1
EndSplineSet
Ligature2: "'liga' Regular Ligatures subtable" uni0633.init uni06CC.fina
Ligature2: "'liga' Regular Ligatures subtable" uni0633.init uni0649.fina
EndChar

StartChar: uni063506CC.isol
Encoding: 64773 64773 328
Width: 2918
VWidth: 2081
Flags: MW
AnchorPoint: "AboveLig" 1925 1002 baselig 0
AnchorPoint: "AboveLig" 658 850 baselig 1
AnchorPoint: "BelowLig" 1845 -188 baselig 0
AnchorPoint: "BelowLig" 661 -838 baselig 1
LayerCount: 2
Fore
SplineSet
2627 315 m 1,0,1
 2608 353 2608 353 2504.5 413 c 128,-1,2
 2401 473 2401 473 2291 473 c 128,-1,3
 2181 473 2181 473 2112 421 c 2,4,-1
 1967 312 l 1,5,-1
 1968 308 l 1,6,7
 2393 282 2393 282 2570 304 c 1,8,9
 2603 309 2603 309 2627 315 c 1,0,1
936 302 m 0,10,11
 899 277 899 277 856 207 c 1,12,-1
 858 198 l 1,13,-1
 1309 31 l 1,14,-1
 1309 16 l 1,15,16
 1289 -153 l 2,17,18
 1283 -200 1283 -200 1248 -235 c 0,19,20
 1177 -305 1177 -305 1103 -361 c 1,21,22
 760 -619 760 -619 487 -617 c 1,23,24
 95 -611 95 -611 100 -179 c 1,25,26
 123 118 123 118 289 360 c 1,27,28
 323 395 323 395 347.5 406.5 c 128,-1,29
 372 418 372 418 375 412 c 128,-1,30
 378 406 378 406 360 376 c 0,31,32
 233 164 233 164 243 6 c 0,33,34
 266 -314 266 -314 612 -315 c 1,35,36
 860 -314 860 -314 1069 -187 c 1,37,38
 1038 -176 1038 -176 859.5 -118 c 128,-1,39
 681 -60 681 -60 663 -22 c 0,40,41
 659 -14 659 -14 659 -5 c 0,42,43
 660 186 660 186 892 429 c 1,44,45
 1095 639 1095 639 1265 640 c 1,46,47
 1372 638 1372 638 1390.5 493.5 c 128,-1,48
 1409 349 1409 349 1504 319 c 1,49,50
 1571 299 1571 299 1700 307 c 1,51,52
 1802 326 1802 326 1882 401 c 1,53,-1
 2132 627 l 2,54,55
 2292 772 2292 772 2421 772 c 1,56,57
 2510 771 2510 771 2647 676.5 c 128,-1,58
 2784 582 2784 582 2804 526 c 0,59,60
 2818 487 2818 487 2818 412 c 0,61,62
 2818 235 2818 235 2762 153 c 128,-1,63
 2706 71 2706 71 2614.5 33.5 c 128,-1,64
 2523 -4 2523 -4 2229 -5 c 0,65,66
 1718 -6 1718 -6 1477 2.5 c 128,-1,67
 1236 11 1236 11 1147 300 c 1,68,69
 1109 418 1109 418 936 302 c 0,10,11
EndSplineSet
Ligature2: "'liga' Regular Ligatures subtable" uni0635.init uni06CC.fina
Ligature2: "'liga' Regular Ligatures subtable" uni0635.init uni0649.fina
EndChar

StartChar: baa_yaa.base
Encoding: 65561 -1 346
Width: 1638
VWidth: 2081
Flags: MW
AnchorPoint: "AboveLig" 1209 1052 baselig 0
AnchorPoint: "AboveLig" 569 851 baselig 1
AnchorPoint: "BelowLig" 1227 -538 baselig 0
AnchorPoint: "BelowLig" 662 -837 baselig 1
LayerCount: 2
Fore
SplineSet
1638 0 m 1,0,-1
 1484 0 l 1,1,2
 1277 8 1277 8 1148 301 c 24,3,4
 1076 463 1076 463 857 208 c 1,5,-1
 859 198 l 1,6,7
 901 168 901 168 1056.5 120.5 c 128,-1,8
 1212 73 1212 73 1290 37 c 1,9,10
 1311 26 1311 26 1310 7 c 1,11,-1
 1290 -152 l 1,12,13
 1285 -198 1285 -198 1249 -234 c 0,14,15
 1120 -362 1120 -362 945 -469 c 1,16,17
 698 -616 698 -616 496.5 -615.5 c 128,-1,18
 295 -615 295 -615 191.5 -488 c 128,-1,19
 88 -361 88 -361 101 -178 c 0,20,21
 122 130 122 130 264 328 c 0,22,23
 301 379 301 379 338.5 402 c 128,-1,24
 376 425 376 425 373 405 c 128,-1,25
 370 385 370 385 341 341 c 1,26,27
 244 152 244 152 244.5 2.5 c 128,-1,28
 245 -147 245 -147 352.5 -230.5 c 128,-1,29
 460 -314 460 -314 613 -314 c 0,30,31
 861 -313 861 -313 1070 -186 c 1,32,33
 1059 -182 1059 -182 1033 -174 c 2,34,-1
 838 -110 l 2,35,36
 682 -58 682 -58 664 -21 c 0,37,38
 660 -13 660 -13 660 -4 c 0,39,40
 661 187 661 187 893 430 c 1,41,42
 1096 640 1096 640 1266 641 c 1,43,44
 1373 639 1373 639 1391.5 495.5 c 128,-1,45
 1410 352 1410 352 1505 320 c 0,46,47
 1552 304 1552 304 1638 305 c 1,48,-1
 1638 0 l 1,0,-1
EndSplineSet
EndChar

StartChar: uni06F4
Encoding: 1780 1780 365
Width: 1000
VWidth: 2081
Flags: MW
LayerCount: 2
Fore
SplineSet
507 918 m 0,0,1
 507 791 507 791 710 790 c 0,2,3
 748 790 748 790 853 829 c 24,4,5
 981 878 981 878 849 708 c 1,6,7
 729 579 729 579 585 568 c 0,8,9
 547 565 547 565 508 575 c 1,10,11
 568 251 568 251 497 -50 c 1,12,13
 474 -137 474 -137 426 -134 c 1,14,15
 369 -122 369 -122 363 73 c 0,16,17
 356 394 356 394 83 910 c 1,18,19
 136 1039 136 1039 193 1114 c 2,20,-1
 243 1179 l 1,21,-1
 262 1156 l 2,22,23
 319 1091 319 1091 371 993 c 1,24,25
 397 1043 397 1043 434 1082 c 0,26,27
 540 1191 540 1191 682 1191 c 1,28,29
 785 1186 785 1186 834 1102 c 0,30,31
 865 1049 865 1049 838 1004 c 0,32,33
 825 982 825 982 757 991 c 0,34,35
 508 1021 508 1021 507 918 c 0,0,1
EndSplineSet
EndChar

StartChar: uni06F5
Encoding: 1781 1781 366
Width: 1000
VWidth: 2081
Flags: MW
LayerCount: 2
Fore
SplineSet
727 351 m 0,0,1
 709 503 709 503 621 659 c 0,2,3
 503 871 503 871 429 836 c 1,4,5
 402 807 402 807 374 737 c 0,6,7
 307 569 307 569 313 458 c 128,-1,8
 319 347 319 347 367 329 c 0,9,10
 377 326 377 326 395 329 c 128,-1,11
 413 332 413 332 473 402 c 2,12,-1
 527 465 l 1,13,-1
 539 438 l 2,14,15
 608 282 608 282 726 309 c 1,16,17
 730 328 730 328 727 351 c 0,0,1
904 334 m 0,18,19
 871 195 871 195 809 121 c 0,20,21
 773 77 773 77 736 46 c 0,22,23
 607 -60 607 -60 514 6 c 0,24,25
 473 35 473 35 430 101 c 1,26,27
 293 -51 293 -51 185 6 c 0,28,29
 162 18 162 18 138 40 c 0,30,31
 74 101 74 101 74 255 c 0,32,33
 75 496 75 496 243.5 801 c 128,-1,34
 412 1106 412 1106 552 1136 c 0,35,36
 562 1138 562 1138 570 1138 c 0,37,38
 657 1137 657 1137 755 1000 c 0,39,40
 985 675 985 675 904 334 c 0,18,19
EndSplineSet
EndChar

StartChar: uni06F6
Encoding: 1782 1782 367
Width: 1000
VWidth: 2081
Flags: MW
LayerCount: 2
Fore
SplineSet
559 1124 m 1,0,1
 396 1063 396 1063 369 977 c 0,2,3
 350 917 350 917 356 844 c 1,4,5
 452 811 452 811 548 837 c 1,6,-1
 819 1108 l 1,7,-1
 863 862 l 1,8,-1
 849 845 l 2,9,10
 500 443 500 443 397 107 c 0,11,12
 316 -154 316 -154 250 -122 c 24,13,14
 206 -101 206 -101 246 120 c 128,-1,15
 286 341 286 341 379 552 c 1,16,17
 254 555 254 555 217 601 c 1,18,19
 159 676 159 676 143.5 825.5 c 128,-1,20
 128 975 128 975 148.5 1036.5 c 128,-1,21
 169 1098 169 1098 230 1146 c 0,22,23
 398 1278 398 1278 592 1214 c 0,24,25
 624 1204 624 1204 626 1196 c 0,26,27
 636 1159 636 1159 559 1124 c 1,0,1
EndSplineSet
EndChar

StartChar: uni06F2
Encoding: 1778 1778 370
Width: 1000
VWidth: 2404
Flags: MW
LayerCount: 2
Fore
SplineSet
520 656 m 1,0,1
 629 70 629 70 519 -132 c 0,2,3
 501 -165 501 -165 471 -165 c 1,4,5
 438 -167 438 -167 431 -86 c 0,6,7
 381 430 381 430 141 910 c 1,8,9
 197 1046 197 1046 241 1104 c 2,10,-1
 292 1170 l 1,11,-1
 310 1146 l 2,12,13
 558 826 558 826 734 1094 c 0,14,15
 755 1125 755 1125 760 1153.5 c 128,-1,16
 765 1182 765 1182 792 1197 c 0,17,18
 852 1230 852 1230 859 1072 c 1,19,20
 853 944 853 944 806.5 849 c 128,-1,21
 760 754 760 754 653 695 c 0,22,23
 592 663 592 663 520 656 c 1,0,1
EndSplineSet
EndChar

StartChar: uni0670
Encoding: 1648 1648 377
Width: 0
VWidth: 2372
Flags: MW
AnchorPoint: "Above" 108 536 mark 0
LayerCount: 2
Fore
SplineSet
170 640 m 1,0,1
 149 549 149 549 92 544 c 1,2,3
 49 542 49 542 47 587 c 0,4,5
 35 802 35 802 -71 950 c 1,6,7
 -88 979 -88 979 -49.5 1022.5 c 128,-1,8
 -11 1066 -11 1066 15 1099 c 0,9,10
 98 1205 98 1205 120 1171 c 0,11,12
 233 994 233 994 170 640 c 1,0,1
EndSplineSet
EndChar

StartChar: uni06330631.isol
Encoding: 65580 -1 382
Width: 2238
VWidth: 2081
Flags: MW
AnchorPoint: "AboveLig" 245 965 baselig 1
AnchorPoint: "AboveLig" 1657 886 baselig 0
AnchorPoint: "BelowLig" 1594 -188 baselig 0
AnchorPoint: "BelowLig" 401 -602 baselig 1
LayerCount: 2
Fore
SplineSet
1938 285 m 1,0,1
 1928 375 1928 375 1878 466 c 1,2,-1
 2083 704 l 1,3,-1
 2097 681 l 2,4,5
 2155 579 2155 579 2132 105 c 1,6,7
 2130 84 2130 84 2108 60 c 0,8,9
 2045 -6 2045 -6 1935 -3 c 0,10,11
 1916 -3 1916 -3 1909 -3 c 0,12,13
 1773 -3 1773 -3 1532 86 c 1,14,15
 1413 -11 1413 -11 1225.5 -5 c 128,-1,16
 1038 1 1038 1 956 222 c 0,17,18
 953 229 953 229 943 276 c 1,19,20
 850 255 850 255 791 215 c 1,21,22
 798 160 798 160 806 90 c 128,-1,23
 814 20 814 20 781 -113 c 0,24,25
 721 -347 721 -347 581 -492.5 c 128,-1,26
 441 -638 441 -638 281 -638 c 1,27,28
 186 -637 186 -637 75 -532 c 128,-1,29
 -36 -427 -36 -427 -79 -325 c 1,30,-1
 -79 -324 l 1,31,32
 -109 -247 -109 -247 -97 -209 c 1,33,34
 -73 -179 -73 -179 38 -257 c 0,35,36
 75 -284 75 -284 144.5 -308 c 128,-1,37
 214 -332 214 -332 287 -332 c 0,38,39
 413 -331 413 -331 500 -252 c 128,-1,40
 587 -173 587 -173 627 -42 c 1,41,-1
 627 -37 l 1,42,43
 603 26 603 26 571.5 75.5 c 128,-1,44
 540 125 540 125 477 214 c 1,45,-1
 501 238 l 2,46,47
 626 367 626 367 794.5 462.5 c 128,-1,48
 963 558 963 558 1122 575 c 1,49,50
 1137 481 1137 481 1170 394 c 1,51,52
 1224 257 1224 257 1414 280 c 0,53,54
 1454 285 1454 285 1500 304 c 1,55,56
 1519 372 1519 372 1490 427 c 1,57,-1
 1707 662 l 1,58,-1
 1717 638 l 2,59,60
 1723 623 1723 623 1723 544 c 128,-1,61
 1723 465 1723 465 1675 354 c 1,62,-1
 1678 343 l 1,63,64
 1760 283 1760 283 1896 283 c 0,65,66
 1920 283 1920 283 1938 285 c 1,0,1
EndSplineSet
Ligature2: "'liga' Regular Ligatures subtable" uni0633.init uni0631.fina
EndChar

StartChar: uni06350631.isol
Encoding: 65586 -1 388
Width: 2667
VWidth: 2081
Flags: MW
AnchorPoint: "AboveLig" 245 965 baselig 1
AnchorPoint: "AboveLig" 1732 1002 baselig 0
AnchorPoint: "BelowLig" 1594 -188 baselig 0
AnchorPoint: "BelowLig" 401 -602 baselig 1
LayerCount: 2
Fore
SplineSet
500 -252 m 128,-1,1
 587 -173 587 -173 627 -42 c 1,2,-1
 627 -37 l 1,3,4
 603 26 603 26 571.5 75.5 c 128,-1,5
 540 125 540 125 477 214 c 1,6,-1
 501 238 l 2,7,8
 634 370 634 370 795 462 c 0,9,10
 963 558 963 558 1122 575 c 1,11,12
 1137 481 1137 481 1170 394 c 1,13,14
 1215 280 1215 280 1415 302 c 1,15,-1
 1416 302 l 2,16,17
 1543 302 1543 302 1626 397 c 1,18,-1
 1881 627 l 2,19,20
 2042 772 2042 772 2170 772 c 1,21,22
 2259 771 2259 771 2396 676.5 c 128,-1,23
 2533 582 2533 582 2553 526 c 0,24,25
 2567 487 2567 487 2567 412 c 0,26,27
 2567 235 2567 235 2511 153 c 0,28,29
 2456 72 2456 72 2364 34 c 0,30,31
 2278 0 2278 0 1978 -0 c 2,32,-1
 1232 -1 l 2,33,34
 1049 -1 1049 -1 956 222 c 0,35,36
 953 229 953 229 943 276 c 1,37,38
 850 255 850 255 791 215 c 1,39,40
 798 160 798 160 806 90 c 0,41,42
 814 17 814 17 781 -113 c 0,43,44
 721 -347 721 -347 581 -492.5 c 128,-1,45
 441 -638 441 -638 281 -638 c 1,46,47
 186 -637 186 -637 75 -532 c 128,-1,48
 -36 -427 -36 -427 -79 -325 c 1,49,-1
 -79 -324 l 1,50,51
 -109 -247 -109 -247 -97 -209 c 1,52,53
 -72 -177 -72 -177 38 -257 c 0,54,55
 75 -284 75 -284 144.5 -308 c 128,-1,56
 214 -332 214 -332 287 -332 c 0,57,0
 413 -331 413 -331 500 -252 c 128,-1,1
2376 315 m 1,58,59
 2357 353 2357 353 2285 395 c 0,60,61
 2151 473 2151 473 2040.5 473 c 128,-1,62
 1930 473 1930 473 1861 422 c 2,63,-1
 1716 312 l 1,64,-1
 1717 308 l 1,65,66
 1971 292 1971 292 2123 291 c 2,67,-1
 2174 291 l 1,68,69
 2299 296 2299 296 2376 315 c 1,58,59
EndSplineSet
Ligature2: "'liga' Regular Ligatures subtable" uni0635.init uni0631.fina
EndChar

StartChar: uni0651064E.liga
Encoding: 65604 -1 406
Width: 0
VWidth: 2264
Flags: MW
AnchorPoint: "AboveLig" -32 1330 mark 0
AnchorPoint: "Above" -32 1330 mark 0
LayerCount: 2
Fore
SplineSet
266 2257 m 1,0,1
 258 2183 258 2183 238 2152 c 0,2,3
 197 2088 197 2088 139 2063 c 2,4,-1
 -386 1835 l 1,5,6
 -373 1909 -373 1909 -356 1934 c 0,7,8
 -340 1959 -340 1959 -328 1970 c 0,9,10
 -284 2014 -284 2014 -186 2058 c 2,11,-1
 266 2257 l 1,0,1
EndSplineSet
Refer: 47 1617 N 1 0 0 1 0 0 2
Ligature2: "'liga' Mark Ligatures subtable" uni064E uni0651
Ligature2: "'liga' Mark Ligatures subtable" uni0651 uni064E
EndChar

StartChar: uni06280631.base
Encoding: 65608 -1 410
Width: 1509
VWidth: 2081
Flags: MW
LayerCount: 2
Fore
SplineSet
15 16 m 1,0,1
 282 -167 282 -167 515 13 c 0,2,3
 649 116 649 116 687 334 c 1,4,5
 571 354 571 354 507 433 c 1,6,-1
 583 752 l 1,7,-1
 635 706 l 2,8,9
 772 585 772 585 934 609 c 0,10,11
 968 614 968 614 988 626 c 1,12,13
 1030 672 1030 672 1048 767 c 0,14,15
 1054 800 1054 800 1059 810.5 c 128,-1,16
 1064 821 1064 821 1090.5 848.5 c 128,-1,17
 1117 876 1117 876 1146 879 c 1,18,19
 1177 878 1177 878 1186 827 c 0,20,21
 1254 427 1254 427 1319 357 c 0,22,23
 1379 297 1379 297 1510 300 c 1,24,-1
 1510 0 l 1,25,-1
 1382 0 l 1,26,27
 1172 -2 1172 -2 1110 249 c 0,28,29
 1074 394 1074 394 1056 471 c 1,30,31
 976 365 976 365 855 332 c 1,32,33
 830 111 830 111 689 -99 c 0,34,35
 499 -381 499 -381 284 -382 c 1,36,37
 189 -381 189 -381 75 -273 c 128,-1,38
 -39 -165 -39 -165 -76 -70 c 0,39,40
 -152 126 -152 126 15 16 c 1,0,1
EndSplineSet
EndChar

StartChar: ben_noon.base
Encoding: 65627 -1 429
Width: 1838
VWidth: 2081
Flags: MW
AnchorPoint: "BelowLig" 1292 -163 baselig 0
AnchorPoint: "AboveLig" 1289 1141 baselig 0
AnchorPoint: "BelowLig" 609 -254 baselig 1
AnchorPoint: "AboveLig" 604 1347 baselig 1
LayerCount: 2
Fore
SplineSet
1384 476 m 1,0,1
 1292 362 1292 362 1142 331 c 1,2,3
 1156 44 1156 44 1033 -105 c 0,4,5
 956 -198 956 -198 761.5 -270 c 128,-1,6
 567 -342 567 -342 431 -343 c 1,7,8
 185 -343 185 -343 120 -81 c 0,9,10
 70 120 70 120 148 346 c 128,-1,11
 226 572 226 572 329 637 c 0,12,13
 363 658 363 658 358 637 c 1,14,-1
 347 614 l 1,15,16
 237 387 237 387 237 243.5 c 128,-1,17
 237 100 237 100 307 24 c 0,18,19
 378 -54 378 -54 501 -52 c 0,20,21
 745 -51 745 -51 953 71 c 1,22,23
 949 325 949 325 822 489 c 1,24,25
 945 692 945 692 989 823 c 1,26,-1
 1025 753 l 1,27,28
 1116 579 1116 579 1261 609 c 0,29,30
 1295 616 1295 616 1311 626 c 0,31,32
 1358 657 1358 657 1377 767 c 0,33,34
 1383 801 1383 801 1388 811 c 128,-1,35
 1393 821 1393 821 1419.5 848.5 c 128,-1,36
 1446 876 1446 876 1475 879 c 1,37,38
 1506 878 1506 878 1515 827 c 0,39,40
 1583 427 1583 427 1648 357 c 0,41,42
 1708 297 1708 297 1839 300 c 1,43,-1
 1839 0 l 1,44,-1
 1711 0 l 1,45,46
 1501 -2 1501 -2 1439 249 c 0,47,48
 1402 398 1402 398 1384 476 c 1,0,1
EndSplineSet
EndChar

StartChar: uni06440645.init
Encoding: 65634 -1 436
Width: 1074
VWidth: 2081
Flags: MW
AnchorPoint: "Below" 510 -171 basechar 0
AnchorPoint: "Above" 223 1201 basechar 0
LayerCount: 2
Fore
SplineSet
552 109 m 1,0,1
 338 -8 338 -8 -9 0 c 1,2,3
 -70 -6 -70 -6 -70 55 c 2,4,-1
 -70 308 l 1,5,6
 260 309 260 309 385 347 c 1,7,-1
 336 911 l 2,8,9
 323 1064 323 1064 317 1104 c 1,10,-1
 549 1344 l 1,11,-1
 618 423 l 1,12,13
 846 361 846 361 974 193 c 1,14,-1
 974 190 l 2,15,16
 974 158 974 158 877 -23 c 2,17,-1
 832 -107 l 1,18,-1
 803 -74 l 2,19,20
 704 38 704 38 552 109 c 1,0,1
EndSplineSet
Ligature2: "'liga' Regular Ligatures (no ignore mark) subtable" uni0644.init uni0645.medi
EndChar

StartChar: uni0627.isol.short
Encoding: 65635 -1 437
Width: 579
VWidth: 2081
Flags: MW
LayerCount: 2
Fore
SplineSet
214 -17 m 1,0,-1
 218 132 l 1,1,2
 210 351 210 351 171 806 c 2,3,-1
 170 813 l 1,4,-1
 409 1107 l 1,5,-1
 411 1063 l 2,6,7
 433 698 433 698 456 334 c 2,8,-1
 457 333 l 1,9,-1
 456 331 l 2,10,11
 417 156 417 156 264 26 c 2,12,-1
 214 -17 l 1,0,-1
EndSplineSet
EndChar

StartChar: uni0627.fina.short
Encoding: 65636 -1 438
Width: 566
VWidth: 2081
Flags: MW
LayerCount: 2
Fore
SplineSet
361 0 m 1,0,1
 198 2 198 2 180 240 c 1,2,-1
 123 865 l 1,3,-1
 148 887 l 2,4,5
 173 911 173 911 218 955 c 0,6,7
 310 1045 310 1045 341 1062 c 0,8,9
 348 1066 348 1066 354 1068 c 2,10,-1
 368 1072 l 1,11,-1
 399 461 l 1,12,13
 408 305 408 305 529 304 c 2,14,-1
 566 304 l 1,15,-1
 566 0 l 1,16,-1
 361 0 l 1,0,1
EndSplineSet
EndChar

StartChar: lamalefisolated.short
Encoding: 65637 -1 439
Width: 1033
VWidth: 2081
Flags: MW
LayerCount: 2
Fore
SplineSet
544 273 m 1,0,1
 490 215 490 215 415 155 c 1,2,-1
 417 152 l 1,3,4
 475 157 475 157 558 171 c 1,5,6
 558 224 558 224 544 273 c 1,0,1
580 635 m 1,7,8
 606 850 606 850 564 1151 c 1,9,-1
 580 1169 l 2,10,11
 623 1217 623 1217 682 1299 c 2,12,-1
 735 1374 l 1,13,-1
 753 1342 l 2,14,15
 820 1224 820 1224 933 1094 c 1,16,-1
 911 1072 l 1,17,18
 898 1057 898 1057 864.5 1015 c 128,-1,19
 831 973 831 973 794 927 c 2,20,-1
 753 875 l 1,21,-1
 748 877 l 1,22,23
 738 622 738 622 662 418 c 1,24,-1
 662 413 l 1,25,26
 694 274 694 274 694 151.5 c 128,-1,27
 694 29 694 29 677 -13 c 2,28,-1
 668 -38 l 1,29,-1
 630 -61 l 2,30,31
 603 -77 603 -77 554 -88 c 0,32,33
 385 -128 385 -128 223 -128 c 2,34,-1
 115 -128 l 1,35,36
 146 76 146 76 148 92 c 2,37,-1
 156 150 l 1,38,-1
 219 153 l 2,39,40
 273 156 273 156 319 177 c 0,41,42
 407 217 407 217 493 353 c 1,43,-1
 493 362 l 1,44,45
 419 543 419 543 353 620 c 1,46,-1
 319 564 l 1,47,-1
 290 586 l 2,48,49
 100 737 100 737 100 802 c 1,50,51
 101 895 101 895 217 1047 c 2,52,-1
 266 1110 l 1,53,-1
 286 1089 l 2,54,55
 499 869 499 869 580 635 c 1,7,8
EndSplineSet
EndChar

StartChar: alamaleffinal.short
Encoding: 65638 -1 440
Width: 1299
VWidth: 2081
Flags: MW
LayerCount: 2
Fore
SplineSet
521 600 m 1,0,1
 475 558 475 558 463.5 557.5 c 128,-1,2
 452 557 452 557 449 558 c 0,3,4
 421 570 421 570 342 669 c 128,-1,5
 263 768 263 768 263 808.5 c 128,-1,6
 263 849 263 849 291.5 922 c 128,-1,7
 320 995 320 995 335.5 1015 c 128,-1,8
 351 1035 351 1035 367 1050 c 0,9,10
 418 1097 418 1097 445 1083 c 1,11,12
 778 895 778 895 752 324 c 1,13,14
 845 433 845 433 846 647 c 2,15,-1
 846 670 l 1,16,-1
 837 1091 l 1,17,-1
 1047 1286 l 1,18,19
 1047 1263 1047 1263 1060 692 c 0,20,21
 1070 305 1070 305 1245 304 c 2,22,-1
 1299 304 l 1,23,-1
 1299 0 l 1,24,-1
 1172 0 l 1,25,26
 1049 1 1049 1 975 147 c 0,27,28
 931 234 931 234 911 363 c 1,29,30
 805 138 805 138 713.5 62.5 c 128,-1,31
 622 -13 622 -13 540 -28.5 c 128,-1,32
 458 -44 458 -44 342.5 -44 c 128,-1,33
 227 -44 227 -44 168 -46 c 128,-1,34
 109 -48 109 -48 104.5 -42 c 128,-1,35
 100 -36 100 -36 100 -33 c 0,36,37
 100 17 100 17 250 58 c 1,38,39
 505 133 505 133 612 210 c 1,40,41
 629 487 629 487 521 600 c 1,0,1
EndSplineSet
EndChar

StartChar: uni200C
Encoding: 8204 8204 441
Width: 0
VWidth: 0
Flags: MW
LayerCount: 2
Fore
SplineSet
-30 1638 m 1,0,-1
 30 1638 l 1,1,-1
 30 0 l 1,2,-1
 -30 0 l 1,3,-1
 -30 1638 l 1,0,-1
EndSplineSet
EndChar

StartChar: uni200D
Encoding: 8205 8205 442
Width: 0
VWidth: 0
Flags: MW
LayerCount: 2
Fore
SplineSet
-198 1596 m 1,0,-1
 -156 1638 l 1,1,-1
 0 1482 l 1,2,-1
 156 1638 l 1,3,-1
 198 1596 l 1,4,-1
 42 1440 l 1,5,-1
 198 1284 l 1,6,-1
 156 1242 l 1,7,-1
 30 1368 l 1,8,-1
 30 0 l 1,9,-1
 -30 0 l 1,10,-1
 -30 1368 l 1,11,-1
 -156 1242 l 1,12,-1
 -198 1284 l 1,13,-1
 -42 1440 l 1,14,-1
 -198 1596 l 1,0,-1
EndSplineSet
EndChar

StartChar: uni200E
Encoding: 8206 8206 443
Width: 0
VWidth: 0
Flags: MW
LayerCount: 2
Fore
SplineSet
-222 0 m 1,0,-1
 -222 1479 l 1,1,-1
 108 1479 l 1,2,-1
 -19 1606 l 1,3,-1
 24 1648 l 1,4,-1
 222 1450 l 1,5,-1
 24 1252 l 1,6,-1
 -19 1294 l 1,7,-1
 106 1419 l 1,8,-1
 -162 1419 l 1,9,-1
 -162 0 l 1,10,-1
 -222 0 l 1,0,-1
EndSplineSet
EndChar

StartChar: uni200F
Encoding: 8207 8207 444
Width: 0
VWidth: 0
Flags: MW
LayerCount: 2
Fore
SplineSet
222 0 m 1,0,-1
 162 0 l 1,1,-1
 162 1419 l 1,2,-1
 -106 1419 l 1,3,-1
 19 1294 l 1,4,-1
 -24 1252 l 1,5,-1
 -222 1450 l 1,6,-1
 -24 1648 l 1,7,-1
 19 1606 l 1,8,-1
 -108 1479 l 1,9,-1
 222 1479 l 1,10,-1
 222 0 l 1,0,-1
EndSplineSet
EndChar

StartChar: uni202A
Encoding: 8234 8234 445
Width: 0
VWidth: 1479
Flags: MW
LayerCount: 2
Fore
SplineSet
-222 1479 m 1,0,-1
 -162 1479 l 1,1,-1
 -162 60 l 1,2,-1
 106 60 l 1,3,-1
 -19 185 l 1,4,-1
 24 227 l 1,5,-1
 222 29 l 1,6,-1
 24 -169 l 1,7,-1
 -19 -127 l 1,8,-1
 108 0 l 1,9,-1
 -222 0 l 1,10,-1
 -222 1479 l 1,0,-1
EndSplineSet
EndChar

StartChar: uni202B
Encoding: 8235 8235 446
Width: 0
VWidth: 1479
Flags: MW
LayerCount: 2
Fore
SplineSet
222 1479 m 1,0,-1
 222 0 l 1,1,-1
 -108 0 l 1,2,-1
 19 -127 l 1,3,-1
 -24 -169 l 1,4,-1
 -222 29 l 1,5,-1
 -24 227 l 1,6,-1
 19 185 l 1,7,-1
 -106 60 l 1,8,-1
 162 60 l 1,9,-1
 162 1479 l 1,10,-1
 222 1479 l 1,0,-1
EndSplineSet
EndChar

StartChar: uni202D
Encoding: 8237 8237 447
Width: 0
VWidth: 1479
Flags: MW
LayerCount: 2
Fore
SplineSet
108 0 m 1,0,-1
 -222 0 l 1,1,-1
 -222 1479 l 1,2,-1
 108 1479 l 1,3,-1
 -19 1606 l 1,4,-1
 24 1648 l 1,5,-1
 222 1450 l 1,6,-1
 24 1252 l 1,7,-1
 -19 1294 l 1,8,-1
 106 1419 l 1,9,-1
 -162 1419 l 1,10,-1
 -162 60 l 1,11,-1
 106 60 l 1,12,-1
 -19 185 l 1,13,-1
 24 227 l 1,14,-1
 222 29 l 1,15,-1
 24 -169 l 1,16,-1
 -19 -127 l 1,17,-1
 108 0 l 1,0,-1
EndSplineSet
EndChar

StartChar: uni202E
Encoding: 8238 8238 448
Width: 0
VWidth: 1479
Flags: MW
LayerCount: 2
Fore
SplineSet
-108 1479 m 1,0,-1
 222 1479 l 1,1,-1
 222 0 l 1,2,-1
 -108 0 l 1,3,-1
 19 -127 l 1,4,-1
 -24 -169 l 1,5,-1
 -222 29 l 1,6,-1
 -24 227 l 1,7,-1
 19 185 l 1,8,-1
 -106 60 l 1,9,-1
 162 60 l 1,10,-1
 162 1419 l 1,11,-1
 -106 1419 l 1,12,-1
 19 1294 l 1,13,-1
 -24 1252 l 1,14,-1
 -222 1450 l 1,15,-1
 -24 1648 l 1,16,-1
 19 1606 l 1,17,-1
 -108 1479 l 1,0,-1
EndSplineSet
EndChar

StartChar: uni202C
Encoding: 8236 8236 449
Width: 0
VWidth: 0
Flags: MW
LayerCount: 2
Fore
SplineSet
0 1638 m 1,0,-1
 198 1440 l 1,1,-1
 156 1398 l 1,2,-1
 30 1524 l 1,3,-1
 30 60 l 1,4,-1
 200 60 l 1,5,-1
 200 0 l 1,6,-1
 -200 0 l 1,7,-1
 -200 60 l 1,8,-1
 -30 60 l 1,9,10
 -30 792 -30 792 -30 1524 c 1,11,-1
 -156 1398 l 1,12,-1
 -198 1440 l 1,13,-1
 0 1638 l 1,0,-1
EndSplineSet
EndChar

StartChar: uni065A
Encoding: 1626 1626 451
Width: 0
Flags: MW
AnchorPoint: "Above" 0 1533 mark 0
LayerCount: 2
Fore
SplineSet
-138 1843 m 1,0,-1
 -0 1652 l 1,1,-1
 138 1844 l 1,2,-1
 372 1844 l 1,3,-1
 108 1404 l 1,4,-1
 -108 1404 l 1,5,-1
 -371 1843 l 1,6,-1
 -138 1843 l 1,0,-1
EndSplineSet
EndChar

StartChar: verticaltwodots
Encoding: 65639 -1 463
Width: 734
VWidth: 2081
Flags: MW
LayerCount: 2
Fore
SplineSet
381 286 m 1,0,-1
 543 148 l 1,1,-1
 352 -66 l 1,2,-1
 193 64 l 1,3,-1
 381 286 l 1,0,-1
379 -34 m 1,4,-1
 541 -172 l 1,5,-1
 350 -386 l 1,6,-1
 191 -256 l 1,7,-1
 379 -34 l 1,4,-1
EndSplineSet
EndChar

StartChar: uni06BE
Encoding: 1726 1726 484
Width: 1200
Flags: MW
AnchorPoint: "Below" 536 -217 basechar 0
AnchorPoint: "Above" 636 1182 basechar 0
LayerCount: 2
Fore
SplineSet
622 276 m 5,0,1
 681 365 681 365 649 454 c 4,2,3
 633 498 633 498 610 498 c 4,4,5
 534 499 534 499 479 441.5 c 132,-1,6
 424 384 424 384 423 321 c 5,7,-1
 431 311 l 5,8,-1
 622 276 l 5,0,1
933 168 m 5,9,10
 942 212 942 212 932 246 c 4,11,12
 911 323 911 323 809 360 c 4,13,14
 798 364 798 364 789 369 c 5,15,16
 794 335 794 335 761 249 c 5,17,-1
 765 233 l 5,18,19
 807 224 807 224 842.5 208 c 132,-1,20
 878 192 878 192 933 168 c 5,9,10
882 571 m 1,21,22
 1032 503 1032 503 1065.5 432 c 128,-1,23
 1099 361 1099 361 1100.5 252.5 c 128,-1,24
 1102 144 1102 144 1064 58 c 128,-1,25
 1026 -28 1026 -28 1014 -43 c 0,26,27
 964 -105 964 -105 928 -107 c 1,28,29
 854 -106 854 -106 549 48 c 1,30,31
 352 -33 352 -33 319 -33 c 2,32,-1
 154 -33 l 2,33,34
 132 -32 132 -32 116 -17 c 1,35,36
 100 0 100 0 100 21 c 2,37,-1
 100 53 l 1,38,-1
 336 160 l 1,39,-1
 294 221 l 1,40,-1
 295 223 l 1,41,42
 297 489 297 489 537 633 c 0,43,44
 562 648 562 648 586 660 c 0,45,46
 657 693 657 693 756 678 c 1,47,48
 811 605 811 605 882 571 c 1,21,22
EndSplineSet
Substitution2: "'init' Initial Forms subtable" uni06BE.init
Substitution2: "'medi' Medial Forms subtable" uni06BE.medi
Substitution2: "'fina' Terminal Forms subtable" uni06BE.fina
EndChar

StartChar: uni06BE.fina
Encoding: 64427 64427 486
Width: 1280
VWidth: 2081
Flags: MW
AnchorPoint: "Below" 656 -712 basechar 0
AnchorPoint: "Above" 756 1096 basechar 0
LayerCount: 2
Fore
SplineSet
744 342 m 1,0,1
 741 465 741 465 691 561 c 1,2,3
 615 472 615 472 573 316 c 1,4,-1
 580 281 l 1,5,6
 668 299 668 299 744 342 c 1,0,1
813 -211 m 1,7,8
 806 -113 806 -113 711 -47 c 1,9,10
 651 -9 651 -9 584 4 c 1,11,12
 592 -21 592 -21 602 -42 c 0,13,14
 675 -197 675 -197 813 -211 c 1,7,8
1280 0 m 1,15,-1
 955 0 l 1,16,17
 962 -20 962 -20 965 -39 c 1,18,19
 933 -263 933 -263 907 -335 c 128,-1,20
 881 -407 881 -407 839 -449.5 c 128,-1,21
 797 -492 797 -492 758 -496 c 1,22,23
 662 -495 662 -495 557 -390 c 0,24,25
 428 -260 428 -260 392 15 c 1,26,27
 321 -7 321 -7 268 0 c 2,28,-1
 113 20 l 1,29,30
 60 29 60 29 60 84 c 2,31,-1
 60 125 l 1,32,-1
 427 237 l 1,33,34
 431 310 431 310 460 388 c 0,35,36
 561 666 561 666 766 843 c 1,37,38
 820 887 820 887 838 868 c 1,39,40
 862 833 862 833 890.5 737.5 c 128,-1,41
 919 642 919 642 919 553 c 0,42,43
 919 409 919 409 843 317 c 1,44,-1
 850 304 l 1,45,-1
 1280 304 l 1,46,-1
 1280 0 l 1,15,-1
EndSplineSet
EndChar

StartChar: uni06BE.init
Encoding: 64428 64428 487
Width: 1220
VWidth: 2081
Flags: MW
AnchorPoint: "Above" 605 1020 basechar 0
AnchorPoint: "Below" 575 -217 basechar 0
LayerCount: 2
Fore
SplineSet
642 309 m 1,0,1
 701 398 701 398 669 487 c 0,2,3
 653 531 653 531 630 531 c 0,4,5
 554 532 554 532 499 474.5 c 128,-1,6
 444 417 444 417 443 354 c 1,7,-1
 451 344 l 1,8,-1
 642 309 l 1,0,1
953 201 m 1,9,10
 962 245 962 245 952 279 c 0,11,12
 931 356 931 356 829 393 c 0,13,14
 818 397 818 397 809 402 c 1,15,16
 814 368 814 368 781 282 c 1,17,-1
 785 266 l 1,18,19
 827 257 827 257 862.5 241 c 128,-1,20
 898 225 898 225 953 201 c 1,9,10
340 0 m 1,21,-1
 -16 0 l 2,22,23
 -70 0 -70 0 -70 54 c 2,24,-1
 -70 304 l 1,25,-1
 317 304 l 1,26,27
 338 535 338 535 557 666 c 0,28,29
 582 681 582 681 606 693 c 0,30,31
 677 726 677 726 776 711 c 1,32,33
 834 635 834 635 902 604 c 0,34,35
 1050 537 1050 537 1084.5 465.5 c 128,-1,36
 1119 394 1119 394 1120.5 285.5 c 128,-1,37
 1122 177 1122 177 1084 91 c 128,-1,38
 1046 5 1046 5 1034 -10 c 0,39,40
 984 -72 984 -72 948 -74 c 1,41,42
 874 -73 874 -73 569 81 c 1,43,44
 363 3 363 3 340 0 c 1,21,-1
EndSplineSet
EndChar

StartChar: NameMe.65666
Encoding: 65656 -1 490
Width: 473
Flags: MW
LayerCount: 2
Fore
SplineSet
322 76 m 1,0,-1
 186 -43 l 1,1,-1
 95 75 l 1,2,-1
 226 189 l 1,3,-1
 322 76 l 1,0,-1
487 221 m 1,4,-1
 351 102 l 1,5,-1
 260 220 l 1,6,-1
 391 334 l 1,7,-1
 487 221 l 1,4,-1
190 221 m 1,8,-1
 54 102 l 1,9,-1
 -37 220 l 1,10,-1
 94 334 l 1,11,-1
 190 221 l 1,8,-1
EndSplineSet
EndChar

StartChar: NameMe.65664.1
Encoding: 65657 -1 492
Width: 0
VWidth: 2121
Flags: MW
LayerCount: 2
Fore
SplineSet
-15 1165 m 1,0,1
 -81 1137 -81 1137 -118.5 1185.5 c 128,-1,2
 -156 1234 -156 1234 -126 1300 c 1,3,4
 -113 1326 -113 1326 -93 1348 c 0,5,6
 -33 1410 -33 1410 38.5 1409.5 c 128,-1,7
 110 1409 110 1409 138 1335 c 1,8,9
 162 1263 162 1263 129.5 1188.5 c 128,-1,10
 97 1114 97 1114 53 1072 c 0,11,12
 -30 993 -30 993 -120 986 c 0,13,14
 -139 984 -139 984 -145 999 c 1,15,16
 -154 1042 -154 1042 -63 1087 c 0,17,18
 -16 1111 -16 1111 -15 1165 c 1,0,1
EndSplineSet
EndChar

StartChar: uni0640.alt
Encoding: 65658 -1 498
Width: 800
VWidth: 2681
Flags: MW
LayerCount: 2
Fore
SplineSet
-52 273 m 1,0,-1
 852 273 l 1,1,-1
 852 -34 l 1,2,-1
 -52 -34 l 1,3,-1
 -52 273 l 1,0,-1
EndSplineSet
EndChar
